<svg width="50" height="50" viewBox="0 0 50 50" fill="none" xmlns="http://www.w3.org/2000/svg">
<path d="M50 25C50 30.4297 48.269 35.4552 45.3288 39.5546C45.1902 39.7478 44.4237 39.5986 44.2799 39.7877C43.0457 41.4092 41.6261 42.8332 40.0391 44.1095C39.8577 44.2554 35.8443 46.2771 33.9665 47.0841C33.6887 47.2035 34.3037 48.2136 34.0208 48.323C31.2225 49.4061 28.1806 50 25 50C11.1929 50 0 38.8071 0 25C0 11.1929 11.1929 0 25 0C38.8071 0 50 11.1929 50 25Z" fill="#84B017"/>
<path d="M41.4113 35.5866V42.9292C40.969 43.3366 40.5115 43.7296 40.0392 44.1095C39.8578 44.2554 40.2914 44.781 40.106 44.9219C38.2612 46.3227 36.216 47.4733 34.0208 48.3229H18.4094C17.9779 48.3229 17.6281 47.9731 17.6281 47.5417V43.114H10.1475C9.71602 43.114 9.36621 42.7641 9.36621 42.3327V30.3776C9.36621 29.9462 9.71602 29.5964 10.1475 29.5964H19.4741C19.9056 29.5964 20.2554 29.9462 20.2554 30.3776V34.8054H40.6301C41.0615 34.8054 41.4113 35.1552 41.4113 35.5866Z" fill="#71892E"/>
<path d="M45.3288 7.32422V39.5546C43.8658 41.5944 42.1034 43.4049 40.1059 44.9219H15.1367C14.8671 44.9219 14.6484 44.7032 14.6484 44.4336V7.32422C14.6484 7.05459 14.8671 6.83594 15.1367 6.83594H44.8405C45.1102 6.83594 45.3288 7.05459 45.3288 7.32422Z" fill="#FFC14F"/>
<path d="M17.6595 44.9219H15.1367C14.8671 44.9219 14.6484 44.7032 14.6484 44.4336V7.32422C14.6484 7.05459 14.8671 6.83594 15.1367 6.83594H17.6595C17.3898 6.83594 17.1712 7.05459 17.1712 7.32422V44.4336C17.1712 44.7032 17.3898 44.9219 17.6595 44.9219Z" fill="#FFB52D"/>
<path d="M38.0859 10.2539C38.0859 9.98428 38.3046 9.76562 38.5742 9.76562H42.4805C42.7501 9.76562 42.9688 9.98428 42.9688 10.2539C42.9688 10.5235 42.7501 10.7422 42.4805 10.7422H38.5742C38.3046 10.7422 38.0859 10.5235 38.0859 10.2539ZM42.4805 16.6016H38.5742C38.3046 16.6016 38.0859 16.8202 38.0859 17.0898C38.0859 17.3595 38.3046 17.5781 38.5742 17.5781H42.4805C42.7501 17.5781 42.9688 17.3595 42.9688 17.0898C42.9688 16.8202 42.7501 16.6016 42.4805 16.6016ZM42.4805 31.25H38.5742C38.3046 31.25 38.0859 31.4687 38.0859 31.7383C38.0859 32.0079 38.3046 32.2266 38.5742 32.2266H42.4805C42.7501 32.2266 42.9688 32.0079 42.9688 31.7383C42.9688 31.4687 42.7501 31.25 42.4805 31.25ZM42.4805 33.2031H38.5742C38.3046 33.2031 38.0859 33.4218 38.0859 33.6914C38.0859 33.961 38.3046 34.1797 38.5742 34.1797H42.4805C42.7501 34.1797 42.9688 33.961 42.9688 33.6914C42.9688 33.4218 42.7501 33.2031 42.4805 33.2031ZM42.4805 38.0859H40.5273C40.2577 38.0859 40.0391 38.3046 40.0391 38.5742C40.0391 38.8438 40.2577 39.0625 40.5273 39.0625H42.4805C42.7501 39.0625 42.9688 38.8438 42.9688 38.5742C42.9688 38.3046 42.7501 38.0859 42.4805 38.0859ZM42.4805 18.5547H34.668C34.3983 18.5547 34.1797 18.7733 34.1797 19.043C34.1797 19.3126 34.3983 19.5312 34.668 19.5312H42.4805C42.7501 19.5312 42.9688 19.3126 42.9688 19.043C42.9688 18.7733 42.7501 18.5547 42.4805 18.5547ZM42.4805 29.2969H34.668C34.3983 29.2969 34.1797 29.5155 34.1797 29.7852C34.1797 30.0548 34.3983 30.2734 34.668 30.2734H42.4805C42.7501 30.2734 42.9688 30.0548 42.9688 29.7852C42.9688 29.5155 42.7501 29.2969 42.4805 29.2969ZM42.4805 11.7188H39.5508C39.2812 11.7188 39.0625 11.9374 39.0625 12.207C39.0625 12.4767 39.2812 12.6953 39.5508 12.6953H42.4805C42.7501 12.6953 42.9688 12.4767 42.9688 12.207C42.9688 11.9374 42.7501 11.7188 42.4805 11.7188Z" fill="#F29500"/>
<path d="M36.1491 40.0391H6.44531C6.17568 40.0391 5.95703 39.8204 5.95703 39.5508V2.44141C5.95703 2.17178 6.17568 1.95312 6.44531 1.95312H36.1491C36.4187 1.95312 36.6374 2.17178 36.6374 2.44141V39.5508C36.6374 39.8204 36.4187 40.0391 36.1491 40.0391Z" fill="#DCE6EB"/>
<path d="M8.87041 40.0391H6.44531C6.17568 40.0391 5.95703 39.8204 5.95703 39.5508V2.44141C5.95703 2.17178 6.17568 1.95312 6.44531 1.95312H8.87041C8.60078 1.95312 8.38213 2.17178 8.38213 2.44141V39.5508C8.38213 39.8204 8.60078 40.0391 8.87041 40.0391Z" fill="#C8D2DC"/>
<path d="M18.8558 20.0195C18.8558 19.7499 19.0744 19.5312 19.344 19.5312H23.2503C23.5199 19.5312 23.7386 19.7499 23.7386 20.0195C23.7386 20.2892 23.5199 20.5078 23.2503 20.5078H19.344C19.0744 20.5078 18.8558 20.2892 18.8558 20.0195ZM27.4577 21.4844H15.1367C14.8671 21.4844 14.6484 21.703 14.6484 21.9727C14.6484 22.2423 14.8671 22.4609 15.1367 22.4609H27.4577C27.7273 22.4609 27.946 22.2423 27.946 21.9727C27.946 21.703 27.7273 21.4844 27.4577 21.4844Z" fill="#909BA6"/>
<path d="M17.5781 36.6211C17.5781 36.8907 17.3595 37.1094 17.0898 37.1094H10.905C10.6354 37.1094 10.4167 36.8907 10.4167 36.6211C10.4167 36.3515 10.6354 36.1328 10.905 36.1328H17.0898C17.3595 36.1328 17.5781 36.3515 17.5781 36.6211ZM17.0898 34.1797H8.30078C8.03115 34.1797 7.8125 34.3983 7.8125 34.668C7.8125 34.9376 8.03115 35.1562 8.30078 35.1562H17.0898C17.3595 35.1562 17.5781 34.9376 17.5781 34.668C17.5781 34.3983 17.3595 34.1797 17.0898 34.1797ZM24.3896 13.6719H18.2048C17.9352 13.6719 17.7165 13.8905 17.7165 14.1602C17.7165 14.4298 17.9352 14.6484 18.2048 14.6484H24.3896C24.6593 14.6484 24.8779 14.4298 24.8779 14.1602C24.8779 13.8905 24.6593 13.6719 24.3896 13.6719ZM24.3896 15.625H18.2048C17.9352 15.625 17.7165 15.8437 17.7165 16.1133C17.7165 16.3829 17.9352 16.6016 18.2048 16.6016H24.3896C24.6593 16.6016 24.8779 16.3829 24.8779 16.1133C24.8779 15.8437 24.6593 15.625 24.3896 15.625ZM16.9026 12.6953H25.6917C25.9613 12.6953 26.18 12.4767 26.18 12.207C26.18 11.9374 25.9613 11.7188 25.6917 11.7188H16.9026C16.633 11.7188 16.4144 11.9374 16.4144 12.207C16.4144 12.4767 16.633 12.6953 16.9026 12.6953ZM24.3896 26.3672H18.2048C17.9352 26.3672 17.7165 26.5858 17.7165 26.8555C17.7165 27.1251 17.9352 27.3438 18.2048 27.3438H24.3896C24.6593 27.3438 24.8779 27.1251 24.8779 26.8555C24.8779 26.5858 24.6593 26.3672 24.3896 26.3672ZM30.3874 24.4141H12.207C11.9374 24.4141 11.7188 24.6327 11.7188 24.9023C11.7188 25.172 11.9374 25.3906 12.207 25.3906H30.3874C30.657 25.3906 30.8757 25.172 30.8757 24.9023C30.8757 24.6327 30.657 24.4141 30.3874 24.4141Z" fill="#A2ABB8"/>
<path d="M23.7383 7.32422C23.7383 8.67256 22.6452 9.76562 21.2969 9.76562C19.9485 9.76562 18.8555 8.67256 18.8555 7.32422C18.8555 5.97588 19.9485 4.88281 21.2969 4.88281C22.6452 4.88281 23.7383 5.97588 23.7383 7.32422Z" fill="#FFC14F"/>
<path d="M22.611 7.32421C22.611 8.05009 22.0226 8.63846 21.2968 8.63846C20.571 8.63846 19.9824 8.05009 19.9824 7.32421C19.9824 6.59833 20.5708 6.00995 21.2967 6.00995C22.0226 6.00995 22.611 6.59833 22.611 7.32421Z" fill="#FF9F22"/>
<path d="M33.6916 36.1328C33.6916 36.4024 33.473 36.6211 33.2033 36.6211H29.5775C29.3187 36.6211 29.0594 36.5599 28.8277 36.444L27.8915 35.976C27.6215 35.841 27.2969 35.8938 27.0836 36.1071L26.5763 36.6144C26.2495 36.9412 25.8201 37.1047 25.3908 37.1047C24.9614 37.1047 24.5322 36.9413 24.2053 36.6144C24.0775 36.4867 23.9719 36.34 23.8912 36.1786L23.0871 34.5706C22.966 34.3283 22.7319 34.1837 22.461 34.1837C22.1901 34.1837 21.9562 34.3283 21.835 34.5706L20.9446 36.3513C20.824 36.5924 20.5308 36.6901 20.2896 36.5696C20.0483 36.449 19.9506 36.1558 20.0712 35.9145L20.9615 34.1339C21.2474 33.5622 21.822 33.2071 22.461 33.2071C23.1001 33.2071 23.6747 33.5622 23.9605 34.1339L24.7647 35.742C24.7983 35.8095 24.8424 35.8706 24.8957 35.9239C25.1685 36.1967 25.6126 36.1969 25.8856 35.9239L26.393 35.4166C26.904 34.9057 27.6815 34.7795 28.3281 35.1025L29.2644 35.5706C29.361 35.6189 29.4693 35.6445 29.5773 35.6445H33.2033C33.473 35.6445 33.6916 35.8632 33.6916 36.1328Z" fill="#19305C"/>
<path d="M32.248 30.3877C32.4387 30.5784 32.4387 30.8875 32.248 31.0782L29.4859 33.8403C29.2952 34.031 28.9861 34.031 28.7954 33.8403C28.6047 33.6496 28.6047 33.3405 28.7954 33.1498L31.5575 30.3877C31.7482 30.1971 32.0574 30.1971 32.248 30.3877ZM49.5114 13.1243C48.9393 12.5522 48.0119 12.5522 47.4398 13.1243L39.1534 21.4107C38.5813 21.9828 38.5813 22.9102 39.1534 23.4823C39.7255 24.0544 40.6529 24.0544 41.225 23.4823L49.5114 15.196C50.0835 14.6239 50.0835 13.6964 49.5114 13.1243Z" fill="#203E76"/>
<path d="M30.8675 31.7688C30.2955 31.1967 30.2955 30.2692 30.8675 29.6972L39.8445 20.7202C40.4166 20.1482 41.344 20.1482 41.9161 20.7202C42.4881 21.2923 42.4881 22.2197 41.9161 22.7918L32.9391 31.7688C32.367 32.3408 31.4396 32.3408 30.8675 31.7688Z" fill="#2E5AAC"/>
<path d="M49.9939 17.3428C49.9699 17.4969 49.8738 17.6302 49.7351 17.7016L47.4011 18.904C46.1547 19.5462 45.318 20.7615 45.1631 22.1553C45.1333 22.4233 44.8919 22.6164 44.6238 22.5866C44.5093 22.5738 44.4084 22.5225 44.3327 22.4468C44.2314 22.3455 44.1755 22.2008 44.1925 22.0474C44.3835 20.3278 45.4158 18.8282 46.9538 18.0359L48.6932 17.1398L45.9898 14.4363C45.7991 14.2456 45.7991 13.9365 45.9898 13.7458C46.1806 13.5551 46.4896 13.5551 46.6804 13.7458L49.8568 16.9223C49.9671 17.0325 50.0181 17.1889 49.9939 17.3428Z" fill="#4172CC"/>
</svg>
