<svg width="50" height="64" viewBox="0 0 50 64" fill="none" xmlns="http://www.w3.org/2000/svg">
<path d="M46.0496 32.1802V19.1395C46.0496 17.6586 44.849 16.4579 43.368 16.4579H6.51111C2.91512 16.4579 0 19.3731 0 22.9691C0 27.5599 2.91512 30.374 6.51111 30.374L46.0496 32.1802Z" fill="#FD7A6E"/>
<path d="M40.5217 2.68159V25.4584L32.1274 25.9061C32.1568 25.5063 32.1883 24.6552 32.1883 24.2479C32.1883 15.3617 25.3581 8.52013 16.4706 8.52013C15.6341 8.52013 14.863 8.48964 14.084 8.31933V2.68159C14.084 1.20036 15.2843 0 16.7656 0H37.8401C39.3214 0 40.5217 1.20036 40.5217 2.68159Z" fill="#55D47B"/>
<path d="M40.5216 30.2697V25.4583H32.6174C32.6468 25.0585 32.6621 24.6551 32.6621 24.2477C32.6621 15.3616 25.4321 8.13019 16.5447 8.13019C15.7083 8.13019 14.886 8.19402 14.084 8.31921V30.2697H40.5216Z" fill="#00C755"/>
<path d="M35.6271 8.31413V25.4583L32.3099 25.906C32.3392 25.5062 32.188 24.655 32.188 24.2477C32.188 16.189 25.2458 10.6209 18.9795 8.31413C20.9651 8.31413 22.5741 6.70398 22.5741 4.71826H32.0311C32.0312 6.70398 33.6413 8.31413 35.6271 8.31413Z" fill="#8CE09F"/>
<path d="M35.6268 30.2697V25.4583H32.6171C32.6465 25.0585 32.6619 24.6551 32.6619 24.2478C32.6619 16.189 26.7151 9.49145 18.9795 8.31415V30.2697H35.6268Z" fill="#55D47B"/>
<path d="M27.3023 23.8777C29.3122 23.8777 30.9416 21.6071 30.9416 18.8061C30.9416 16.0051 29.3122 13.7344 27.3023 13.7344C25.2924 13.7344 23.6631 16.0051 23.6631 18.8061C23.6631 21.6071 25.2924 23.8777 27.3023 23.8777Z" fill="#00C755"/>
<path d="M27.5618 24.2477C27.5618 24.6576 27.5401 25.0611 27.4953 25.4582L16.9048 26.7544L6.51151 25.7135C6.18081 25.7135 5.77461 25.7135 5.57679 25.2744C5.54481 24.9373 5.52832 24.5938 5.52832 24.2479C5.52832 18.1633 10.4611 13.2317 16.5445 13.2317C22.6289 13.2316 27.5618 18.1631 27.5618 24.2477Z" fill="#FFCA8B"/>
<path d="M25.7685 30.2697C26.6924 28.8573 27.3022 27.2207 27.4948 25.4582H6.5109C6.18019 25.4582 5.86473 25.393 5.57617 25.2743C5.74537 27.1071 6.36575 28.8081 7.32167 30.2697H25.7685Z" fill="#FFB25A"/>
<path d="M18.0711 23.3038C17.8504 23.2259 17.625 23.1444 17.3999 23.0599V19.3154C17.9208 19.4656 18.23 19.7252 18.2608 19.752C18.6385 20.0933 19.2213 20.0673 19.5673 19.6925C19.9155 19.315 19.8917 18.7269 19.5142 18.3788C19.4668 18.3349 18.6831 17.6303 17.3997 17.4124V16.6897C17.3997 16.1762 16.9836 15.7601 16.4701 15.7601C15.9566 15.7601 15.5404 16.1762 15.5404 16.6897V17.4805C14.1711 17.7648 13.108 18.8661 12.8419 20.2977C12.6149 21.5027 13.003 22.666 13.8548 23.3341C14.286 23.6722 14.8183 23.9821 15.5404 24.3072V29.1326C14.9432 29.0759 14.5398 28.9116 13.8713 28.4743C13.4416 28.1933 12.8657 28.3136 12.5844 28.7434C12.3033 29.173 12.4238 29.7491 12.8535 30.0302C13.9025 30.7166 14.629 30.9352 15.5404 30.9968V31.8066C15.5404 32.3201 15.9566 32.7362 16.4701 32.7362C16.9836 32.7362 17.3997 32.3201 17.3997 31.8066V30.9136C19.1961 30.5107 20.3494 28.9998 20.5999 27.5097C20.9192 25.6106 19.9265 23.9598 18.0711 23.3038ZM15.0025 21.8709C14.7035 21.6364 14.5726 21.1541 14.6693 20.6418C14.7515 20.2058 15.0227 19.688 15.5406 19.4324V22.2263C15.3408 22.1116 15.1584 21.9933 15.0025 21.8709ZM18.7664 27.2013C18.6497 27.8959 18.1853 28.6312 17.3999 28.9688V25.0384C18.8691 25.5024 18.8515 26.8305 18.7664 27.2013Z" fill="#495560"/>
<path d="M46.0495 32.1622V60.7822C46.0495 62.2634 44.8492 63.4637 43.3679 63.4637H19.8468C13.363 54.944 13.363 39.0131 19.7881 29.4807H43.3679C44.8492 29.4807 46.0495 30.681 46.0495 32.1622Z" fill="#C7AEE4"/>
<path d="M19.8462 63.4637H6.51111C2.91524 63.4637 0 60.5485 0 56.9526V22.9695C0 26.5654 2.91524 29.4806 6.51111 29.4806H19.7874C15.4586 38.9874 15.7178 54.137 19.8462 63.4637Z" fill="#BD9CDE"/>
<path d="M49.9998 40.0089V52.9353C49.9998 54.4153 48.7995 55.6169 47.3183 55.6169H43.3303C40.2189 51.1088 39.9982 42.5977 43.3214 37.3273H47.3183C48.7995 37.3275 49.9998 38.5277 49.9998 40.0089Z" fill="#BD9CDE"/>
<path d="M43.3307 55.6169H38.3085C36.8273 55.6169 35.627 54.4153 35.627 52.9353V40.0089C35.627 38.5277 36.8273 37.3273 38.3085 37.3273H43.3218C41.0398 42.4773 41.1663 50.5386 43.3307 55.6169Z" fill="#B18CD9"/>
<path d="M42.8133 48.7755C44.0855 48.7755 45.1168 47.7441 45.1168 46.4719C45.1168 45.1997 44.0855 44.1684 42.8133 44.1684C41.5411 44.1684 40.5098 45.1997 40.5098 46.4719C40.5098 47.7441 41.5411 48.7755 42.8133 48.7755Z" fill="#FFCA8B"/>
<path d="M11.1408 47.6686C11.1417 49.3844 9.39558 50.7763 7.24091 50.7774C5.08624 50.7785 3.33876 49.3884 3.33789 47.6725C3.33702 45.9566 5.08302 44.5647 7.23781 44.5637C9.39248 44.5624 11.14 45.9526 11.1408 47.6686Z" fill="white"/>
<path d="M24.4854 47.6619C24.4862 49.3778 26.2337 50.7679 28.3884 50.7668C30.543 50.7657 32.2892 49.3738 32.2883 47.6579C32.2874 45.9421 30.5399 44.5518 28.3853 44.5529C26.2306 44.554 24.4845 45.9459 24.4854 47.6619Z" fill="white"/>
<path d="M20.9358 43.2508C20.1058 42.8304 19.087 42.7388 17.8108 42.7455C16.2677 42.7463 13.0567 42.7479 13.0586 46.2631C13.0592 47.6349 13.5416 48.9294 14.417 49.9078C15.3181 50.9152 16.5239 51.4697 17.8128 51.4697C19.105 51.4691 20.3112 50.9133 21.2118 49.9045C22.0862 48.9251 22.5674 47.6302 22.5666 46.2583C22.5658 44.8104 22.0171 43.7986 20.9358 43.2508Z" fill="#495560"/>
<path d="M26.2021 45.0361C25.687 45.0351 25.2715 44.6181 25.2725 44.1046L25.2753 42.5724C25.2763 42.0596 25.6923 41.6446 26.205 41.6446C26.7201 41.6456 27.1356 42.0626 27.1346 42.5761L27.1318 44.1083C27.1308 44.6209 26.7148 45.0361 26.2021 45.0361Z" fill="#495560"/>
<path d="M11.9556 44.8958C11.4402 44.8947 11.0249 44.4776 11.026 43.964C11.0271 43.4864 10.6394 43.0972 10.1618 43.0961C9.92924 43.0961 9.71233 43.1857 9.54883 43.3483C9.38497 43.5116 9.29436 43.7288 9.29386 43.9602C9.29275 44.473 8.87676 44.8878 8.36422 44.8878C7.84895 44.8867 7.43346 44.4697 7.43457 43.9562C7.43606 43.2282 7.72115 42.5444 8.23704 42.0307C8.75145 41.5186 9.43405 41.2368 10.1598 41.2368C11.6687 41.24 12.8886 42.4653 12.8853 43.9681C12.8841 44.4809 12.4682 44.8958 11.9556 44.8958Z" fill="#495560"/>
</svg>
