<svg width="50" height="50" viewBox="0 0 50 50" fill="none" xmlns="http://www.w3.org/2000/svg">
<path fill-rule="evenodd" clip-rule="evenodd" d="M38.5488 8.18329C38.5488 6.73505 37.3676 5.5538 35.9193 5.5538H6.37949C4.93125 5.5538 3.75 6.73495 3.75 8.18329V44.431C3.75 45.8792 4.93125 47.0605 6.37949 47.0605H35.9193C37.3676 47.0605 38.5488 45.8793 38.5488 44.431V8.18329Z" fill="#DEA368"/>
<path fill-rule="evenodd" clip-rule="evenodd" d="M38.5483 8.18329C38.5483 6.73505 37.3672 5.5538 35.9188 5.5538H7.45664C6.0084 5.5538 4.82715 6.73505 4.82715 8.18329V44.431C4.82715 45.8792 6.0084 47.0604 7.45664 47.0604H35.9188C37.3672 47.0604 38.5483 45.8793 38.5483 44.431V8.18329Z" fill="#E6B17C"/>
<path d="M35.9033 8.19913H36.7261V44.4151H35.9033V8.19913Z" fill="#DEA368"/>
<path d="M6.39551 8.19913H35.9037V44.4151H6.39551V8.19913Z" fill="#E9E9FF"/>
<path fill-rule="evenodd" clip-rule="evenodd" d="M21.1498 1.06436C22.8581 1.06436 24.2429 2.44922 24.2429 4.15743V4.58223L27.3093 4.0462C27.7701 3.96563 28.1992 4.08106 28.5574 4.38213C28.9156 4.68311 29.1032 5.08594 29.1032 5.55381V8.88253H13.1963V5.55381C13.1963 5.08594 13.3839 4.68321 13.7421 4.38213C14.1003 4.08116 14.5293 3.96563 14.9902 4.0462L18.0566 4.58223V4.15743C18.0566 2.44913 19.4414 1.06436 21.1497 1.06436H21.1498Z" fill="#AB733A"/>
<path fill-rule="evenodd" clip-rule="evenodd" d="M22.054 1.19904C23.3207 1.58605 24.242 2.76417 24.242 4.15743V4.58224L27.3084 4.0462C27.7693 3.96564 28.1983 4.08116 28.5565 4.38214C28.9147 4.68312 29.1023 5.08595 29.1023 5.55382V8.88253H13.9434V5.68458C13.9434 5.21661 14.131 4.81398 14.4892 4.5129C14.8474 4.21193 15.2765 4.0964 15.7373 4.17697L18.0559 4.58224L18.8038 4.713V4.2882C18.8038 2.5799 20.1886 1.19513 21.8969 1.19513C21.9496 1.19513 22.002 1.1965 22.054 1.19904Z" fill="#BA8047"/>
<path d="M21.1498 4.97344C21.5955 4.97344 21.9568 4.61212 21.9568 4.16641C21.9568 3.7207 21.5955 3.35938 21.1498 3.35938C20.7041 3.35938 20.3428 3.7207 20.3428 4.16641C20.3428 4.61212 20.7041 4.97344 21.1498 4.97344Z" fill="#E9E9FF"/>
<path fill-rule="evenodd" clip-rule="evenodd" d="M18.915 25.4221C18.6454 25.4221 18.4268 25.2034 18.4268 24.9338C18.4268 24.6642 18.6454 24.4455 18.915 24.4455H30.5308C30.8004 24.4455 31.019 24.6642 31.019 24.9338C31.019 25.2034 30.8004 25.4221 30.5308 25.4221H18.915ZM18.915 28.1427C18.6454 28.1427 18.4268 27.924 18.4268 27.6544C18.4268 27.3848 18.6454 27.1661 18.915 27.1661H27.3667C27.6363 27.1661 27.855 27.3848 27.855 27.6544C27.855 27.924 27.6363 28.1427 27.3667 28.1427H18.915Z" fill="#7986BF"/>
<path fill-rule="evenodd" clip-rule="evenodd" d="M18.915 14.7833C18.6454 14.7833 18.4268 14.5646 18.4268 14.295C18.4268 14.0254 18.6454 13.8067 18.915 13.8067H30.5308C30.8004 13.8067 31.019 14.0254 31.019 14.295C31.019 14.5646 30.8004 14.7833 30.5308 14.7833H18.915ZM18.915 17.5039C18.6454 17.5039 18.4268 17.2852 18.4268 17.0156C18.4268 16.746 18.6454 16.5273 18.915 16.5273H30.5308C30.8004 16.5273 31.019 16.746 31.019 17.0156C31.019 17.2852 30.8004 17.5039 30.5308 17.5039H18.915Z" fill="#7986BF"/>
<path fill-rule="evenodd" clip-rule="evenodd" d="M18.915 36.0606C18.6454 36.0606 18.4268 35.842 18.4268 35.5724C18.4268 35.3027 18.6454 35.0841 18.915 35.0841H26.3413C26.6109 35.0841 26.8296 35.3027 26.8296 35.5724C26.8296 35.842 26.6109 36.0606 26.3413 36.0606H18.915ZM18.915 38.7813C18.6454 38.7813 18.4268 38.5627 18.4268 38.2931C18.4268 38.0234 18.6454 37.8048 18.915 37.8048H26.1948C26.4645 37.8048 26.6831 38.0234 26.6831 38.2931C26.6831 38.5627 26.4645 38.7813 26.1948 38.7813H18.915Z" fill="#7986BF"/>
<path fill-rule="evenodd" clip-rule="evenodd" d="M15.2294 14.0078C15.2778 14.2722 15.1027 14.5258 14.8384 14.5743C14.574 14.6228 14.3204 14.4477 14.2719 14.1833C14.2365 13.9922 14.1336 13.8416 13.9934 13.7319C13.9025 13.661 13.7952 13.6053 13.6783 13.5649V15.3263C13.701 15.3338 13.7234 15.3413 13.7454 15.349C14.2388 15.5214 14.6849 15.7852 14.9616 16.1787C15.2163 16.5407 15.3224 16.986 15.1927 17.5315C15.0744 18.0288 14.7245 18.3848 14.271 18.5922C14.0876 18.6761 13.8865 18.7348 13.6782 18.7676V19.3139C13.6782 19.5835 13.4596 19.8022 13.19 19.8022C12.9203 19.8022 12.7017 19.5835 12.7017 19.3139V18.7335C12.4968 18.6867 12.2983 18.6146 12.1156 18.5162C11.6348 18.2574 11.2593 17.8254 11.1422 17.2079C11.0927 16.9436 11.2669 16.6891 11.5313 16.6396C11.7956 16.59 12.0501 16.7643 12.0996 17.0286C12.1552 17.3217 12.3397 17.5301 12.5772 17.6578C12.6174 17.6794 12.6589 17.6989 12.7017 17.7163V16.0472C12.3573 15.9352 12.0181 15.7901 11.7448 15.5296C11.4118 15.212 11.2379 14.8153 11.2066 14.4141C11.1737 13.9938 11.301 13.5692 11.5683 13.2271C11.8427 12.8758 12.2538 12.6543 12.7017 12.5619V11.997C12.7017 11.7273 12.9203 11.5087 13.19 11.5087C13.4596 11.5087 13.6782 11.7273 13.6782 11.997V12.5587L13.7056 12.5643C14.0278 12.6315 14.3359 12.7651 14.5921 12.9652C14.9116 13.2149 15.1468 13.5622 15.2292 14.0078H15.2294ZM12.7019 13.5716C12.5516 13.6286 12.423 13.7135 12.3352 13.826C12.2199 13.9735 12.1651 14.158 12.1794 14.3416C12.1927 14.5124 12.2692 14.6836 12.4163 14.8238C12.4908 14.8948 12.5894 14.9542 12.7019 15.0062V13.5716ZM13.6784 17.7744C13.7445 17.7566 13.8077 17.7341 13.8669 17.707C14.0571 17.62 14.2008 17.4842 14.2431 17.3063C14.3007 17.0638 14.2629 16.879 14.1647 16.7394C14.0596 16.5899 13.8865 16.4686 13.6785 16.3708L13.6784 17.7744Z" fill="#F9AC00"/>
<path fill-rule="evenodd" clip-rule="evenodd" d="M31.606 28.4278L28.166 30.5179C29.5357 32.3532 30.071 33.8093 29.4775 37.2325C28.3906 43.5018 31.8756 46.7883 37.2081 48.9356C42.5406 46.7883 46.0256 43.5018 44.9387 37.2325C44.3452 33.8093 44.8805 32.3532 46.2502 30.5179L42.8103 28.4278C39.6666 30.2721 34.7495 30.2721 31.6059 28.4278H31.606Z" fill="#004CBD"/>
<path fill-rule="evenodd" clip-rule="evenodd" d="M37.208 47.6395C41.8272 45.6833 44.702 42.8816 43.758 37.4372C43.2966 34.7757 43.3605 32.945 44.5605 30.8934L42.772 29.8066C39.4876 31.4104 34.9284 31.4104 31.644 29.8066L29.8555 30.8934C31.0555 32.9451 31.1193 34.7757 30.6579 37.4372C29.7141 42.8816 32.5888 45.6833 37.208 47.6395Z" fill="#0062D9"/>
<path fill-rule="evenodd" clip-rule="evenodd" d="M37.2081 47.6395C41.8273 45.6832 44.7021 42.8816 43.7581 37.4372C43.2967 34.7757 43.3606 32.945 44.5605 30.8934L42.772 29.8066C41.1298 30.6086 39.1689 31.0095 37.208 31.0095V47.6395H37.2081Z" fill="#056CEB"/>
<path fill-rule="evenodd" clip-rule="evenodd" d="M33.542 38.0233C33.4082 37.7896 33.4894 37.4914 33.7233 37.3577C33.9571 37.224 34.2552 37.3051 34.3889 37.539L35.6863 39.8035L40.1235 35.3665C40.3141 35.1759 40.6233 35.1759 40.8139 35.3665C41.0045 35.5571 41.0045 35.8663 40.8139 36.0569L35.9256 40.945L35.9254 40.9447C35.8954 40.9746 35.8612 41.0012 35.8226 41.0231C35.5888 41.1569 35.2906 41.0758 35.157 40.842L33.542 38.0232V38.0233Z" fill="#43F043"/>
<path fill-rule="evenodd" clip-rule="evenodd" d="M15.2284 24.6465C15.2769 24.9108 15.1018 25.1646 14.8374 25.213C14.5731 25.2614 14.3193 25.0863 14.2709 24.822C14.2356 24.6309 14.1326 24.4803 13.9924 24.3706C13.9016 24.2997 13.7942 24.2439 13.6774 24.2035V25.9649C13.7 25.9724 13.7224 25.98 13.7444 25.9877C14.2378 26.1601 14.6839 26.4238 14.9607 26.8174C15.2153 27.1794 15.3214 27.6247 15.1917 28.1701C15.0734 28.6675 14.7235 29.0234 14.27 29.2309C14.0866 29.3147 13.8856 29.3734 13.6773 29.4062V29.9525C13.6773 30.2222 13.4586 30.4408 13.189 30.4408C12.9193 30.4408 12.7007 30.2222 12.7007 29.9525V29.3722C12.4958 29.3254 12.2974 29.2532 12.1147 29.1549C11.6338 28.8961 11.2583 28.4641 11.1412 27.8466C11.0917 27.5822 11.2659 27.3277 11.5303 27.2782C11.7946 27.2287 12.0491 27.4029 12.0986 27.6673C12.1542 27.9604 12.3388 28.1687 12.5762 28.2966C12.6164 28.3182 12.6579 28.3377 12.7007 28.3551V26.6859C12.3564 26.5739 12.017 26.4289 11.7439 26.1684C11.4109 25.8508 11.2369 25.4541 11.2056 25.0528C11.1728 24.6325 11.3 24.208 11.5673 23.8658C11.8417 23.5146 12.2527 23.2931 12.7007 23.2007V22.6357C12.7007 22.3661 12.9193 22.1475 13.189 22.1475C13.4586 22.1475 13.6773 22.3661 13.6773 22.6357V23.1975L13.7046 23.203C14.0269 23.2703 14.335 23.4039 14.5911 23.604C14.9107 23.8536 15.1458 24.201 15.2282 24.6466L15.2284 24.6465ZM12.7009 24.2104C12.5506 24.2674 12.422 24.3522 12.3342 24.4646C12.219 24.6122 12.1642 24.7967 12.1785 24.9803C12.1918 25.1511 12.2684 25.3223 12.4154 25.4625C12.49 25.5335 12.5885 25.5929 12.701 25.6448V24.2103L12.7009 24.2104ZM13.6775 28.4132C13.7436 28.3953 13.8067 28.3729 13.8659 28.3458C14.0562 28.2588 14.1998 28.123 14.2421 27.945C14.2997 27.7025 14.2619 27.5178 14.1637 27.3781C14.0586 27.2287 13.8856 27.1074 13.6775 27.0096L13.6775 28.4132Z" fill="#F9AC00"/>
<path fill-rule="evenodd" clip-rule="evenodd" d="M15.2283 35.2852C15.2768 35.5495 15.1017 35.8031 14.8373 35.8516C14.573 35.9 14.3192 35.7249 14.2708 35.4606C14.2355 35.2695 14.1325 35.1189 13.9923 35.0092C13.9015 34.9383 13.7942 34.8825 13.6773 34.8421V36.6034C13.6999 36.611 13.7223 36.6185 13.7443 36.6262C14.2377 36.7986 14.6838 37.0623 14.9607 37.4559C15.2153 37.8179 15.3214 38.2632 15.1917 38.8086C15.0734 39.306 14.7235 39.6619 14.27 39.8694C14.0866 39.9532 13.8856 40.0119 13.6773 40.0447V40.591C13.6773 40.8607 13.4586 41.0793 13.189 41.0793C12.9193 41.0793 12.7007 40.8607 12.7007 40.591V40.0107C12.4958 39.9639 12.2974 39.8917 12.1147 39.7934C11.6338 39.5346 11.2583 39.1026 11.1412 38.4851C11.0917 38.2207 11.2659 37.9662 11.5303 37.9167C11.7946 37.8672 12.0491 38.0414 12.0986 38.3058C12.1542 38.5988 12.3387 38.8072 12.5762 38.935C12.6164 38.9566 12.6579 38.9761 12.7007 38.9935V37.3243C12.3564 37.2123 12.0171 37.0673 11.7439 36.8068C11.4109 36.4892 11.2369 36.0925 11.2056 35.6912C11.1728 35.2709 11.3 34.8464 11.5673 34.5042C11.8417 34.1529 12.2527 33.9315 12.7007 33.8391V33.2741C12.7007 33.0045 12.9193 32.7859 13.189 32.7859C13.4586 32.7859 13.6773 33.0045 13.6773 33.2741V33.8359L13.7046 33.8414C14.0269 33.9087 14.335 34.0423 14.5911 34.2424C14.9107 34.492 15.1458 34.8394 15.2282 35.285L15.2283 35.2852ZM12.7008 34.8489C12.5505 34.906 12.4219 34.9908 12.3341 35.1033C12.2189 35.2509 12.1641 35.4354 12.1783 35.619C12.1916 35.7898 12.2682 35.961 12.4152 36.1012C12.4897 36.1722 12.5883 36.2316 12.7008 36.2835V34.8489ZM13.6774 39.0518C13.7435 39.034 13.8067 39.0114 13.8658 38.9844C14.0561 38.8974 14.1997 38.7615 14.242 38.5836C14.2996 38.3411 14.2618 38.1564 14.1636 38.0167C14.0585 37.8673 13.8855 37.7459 13.6775 37.6482L13.6774 39.0518Z" fill="#F9AC00"/>
</svg>
