<svg width="50" height="48" viewBox="0 0 50 48" fill="none" xmlns="http://www.w3.org/2000/svg">
<path d="M32.2139 41.2815H42.6762C43.4852 41.2815 44.141 40.6256 44.141 39.8166C44.141 39.0076 43.4852 38.3518 42.6762 38.3518H32.2139C31.4049 38.3518 30.749 39.0076 30.749 39.8166C30.749 40.6256 31.4049 41.2815 32.2139 41.2815Z" fill="#CFDBFD"/>
<path d="M34.9678 12.3479C35.7768 12.3479 36.4326 11.692 36.4326 10.883V6.27618H42.6761C43.4851 6.27618 44.1409 5.62032 44.1409 4.81134C44.1409 4.00236 43.4851 3.3465 42.6761 3.3465H34.9678C34.1588 3.3465 33.5029 4.00236 33.5029 4.81134V10.883C33.5029 11.692 34.1588 12.3479 34.9678 12.3479Z" fill="#CFDBFD"/>
<path d="M41.1973 23.6918H48.5352C49.3441 23.6918 50 23.036 50 22.227C50 21.418 49.3441 20.7621 48.5352 20.7621H41.1973C40.3883 20.7621 39.7324 21.418 39.7324 22.227C39.7324 23.036 40.3883 23.6918 41.1973 23.6918Z" fill="#CFDBFD"/>
<path d="M39.041 30.6299H45.2042C46.0132 30.6299 46.669 29.974 46.669 29.165C46.669 28.3561 46.0132 27.7002 45.2042 27.7002H39.041C38.232 27.7002 37.5762 28.3561 37.5762 29.165C37.5762 29.974 38.232 30.6299 39.041 30.6299Z" fill="#CFDBFD"/>
<path d="M45.6057 7.47366C47.076 7.47366 48.268 6.2817 48.268 4.81135C48.268 3.341 47.076 2.14905 45.6057 2.14905C44.1353 2.14905 42.9434 3.341 42.9434 4.81135C42.9434 6.2817 44.1353 7.47366 45.6057 7.47366Z" fill="#FFE370"/>
<path d="M45.6057 42.4789C47.076 42.4789 48.268 41.287 48.268 39.8166C48.268 38.3463 47.076 37.1543 45.6057 37.1543C44.1353 37.1543 42.9434 38.3463 42.9434 39.8166C42.9434 41.287 44.1353 42.4789 45.6057 42.4789Z" fill="#FFE370"/>
<path d="M41.2109 4.81134C41.2109 2.3882 43.1823 0.416809 45.6055 0.416809C48.0286 0.416809 50 2.3882 50 4.81134C50 7.23448 48.0286 9.20587 45.6055 9.20587C43.1823 9.20587 41.2109 7.23458 41.2109 4.81134ZM44.1406 4.81134C44.1406 5.61906 44.7978 6.27618 45.6055 6.27618C46.4132 6.27618 47.0703 5.61906 47.0703 4.81134C47.0703 4.00363 46.4132 3.3465 45.6055 3.3465C44.7978 3.3465 44.1406 4.00363 44.1406 4.81134Z" fill="#FFB54C"/>
<path d="M41.2109 39.8166C41.2109 37.3935 43.1823 35.4221 45.6055 35.4221C48.0286 35.4221 50 37.3935 50 39.8166C50 42.2398 48.0286 44.2112 45.6055 44.2112C43.1823 44.2112 41.2109 42.2398 41.2109 39.8166ZM44.1406 39.8166C44.1406 40.6243 44.7978 41.2815 45.6055 41.2815C46.4132 41.2815 47.0703 40.6243 47.0703 39.8166C47.0703 39.0089 46.4132 38.3518 45.6055 38.3518C44.7978 38.3518 44.1406 39.0088 44.1406 39.8166Z" fill="#FFB54C"/>
<path d="M17.7865 41.2815H7.32422C6.51523 41.2815 5.85938 40.6256 5.85938 39.8166C5.85938 39.0076 6.51523 38.3518 7.32422 38.3518H17.7865C18.5955 38.3518 19.2514 39.0076 19.2514 39.8166C19.2514 40.6256 18.5955 41.2815 17.7865 41.2815Z" fill="#E8F1FD"/>
<path d="M15.0325 12.3479C14.2235 12.3479 13.5677 11.692 13.5677 10.883V6.27618H7.32422C6.51523 6.27618 5.85938 5.62032 5.85938 4.81134C5.85938 4.00236 6.51523 3.3465 7.32422 3.3465H15.0325C15.8415 3.3465 16.4974 4.00236 16.4974 4.81134V10.883C16.4974 11.692 15.8415 12.3479 15.0325 12.3479Z" fill="#E8F1FD"/>
<path d="M8.80273 23.6918H1.46484C0.655859 23.6918 0 23.036 0 22.227C0 21.418 0.655859 20.7621 1.46484 20.7621H8.80273C9.61172 20.7621 10.2676 21.418 10.2676 22.227C10.2676 23.036 9.61172 23.6918 8.80273 23.6918Z" fill="#E8F1FD"/>
<path d="M10.9591 30.6299H4.7959C3.98691 30.6299 3.33105 29.974 3.33105 29.165C3.33105 28.3561 3.98691 27.7002 4.7959 27.7002H10.9591C11.7681 27.7002 12.4239 28.3561 12.4239 29.165C12.4239 29.974 11.7681 30.6299 10.9591 30.6299Z" fill="#E8F1FD"/>
<path d="M4.39473 7.47366C5.86508 7.47366 7.05703 6.2817 7.05703 4.81135C7.05703 3.341 5.86508 2.14905 4.39473 2.14905C2.92438 2.14905 1.73242 3.341 1.73242 4.81135C1.73242 6.2817 2.92438 7.47366 4.39473 7.47366Z" fill="#FFEFB2"/>
<path d="M4.39473 42.4789C5.86508 42.4789 7.05703 41.287 7.05703 39.8166C7.05703 38.3463 5.86508 37.1543 4.39473 37.1543C2.92438 37.1543 1.73242 38.3463 1.73242 39.8166C1.73242 41.287 2.92438 42.4789 4.39473 42.4789Z" fill="#FFEFB2"/>
<path d="M4.39453 9.20587C1.97139 9.20587 0 7.23448 0 4.81134C0 2.3882 1.97139 0.416809 4.39453 0.416809C6.81768 0.416809 8.78906 2.3882 8.78906 4.81134C8.78906 7.23448 6.81768 9.20587 4.39453 9.20587ZM4.39453 3.3465C3.58682 3.3465 2.92969 4.00363 2.92969 4.81134C2.92969 5.61906 3.58682 6.27618 4.39453 6.27618C5.20225 6.27618 5.85938 5.61906 5.85938 4.81134C5.85938 4.00363 5.20225 3.3465 4.39453 3.3465Z" fill="#FFE370"/>
<path d="M4.39453 44.2112C1.97139 44.2112 0 42.2398 0 39.8166C0 37.3935 1.97139 35.4221 4.39453 35.4221C6.81768 35.4221 8.78906 37.3935 8.78906 39.8166C8.78906 42.2398 6.81768 44.2112 4.39453 44.2112ZM4.39453 38.3518C3.58682 38.3518 2.92969 39.0089 2.92969 39.8166C2.92969 40.6243 3.58682 41.2815 4.39453 41.2815C5.20225 41.2815 5.85938 40.6243 5.85938 39.8166C5.85938 39.0089 5.20225 38.3518 4.39453 38.3518Z" fill="#FFE370"/>
<path d="M40.6644 24.2189C38.9456 30.3547 34.8323 39.0822 25.0003 46.2873C17.1273 40.5285 11.8743 33.1564 9.37532 24.3557C7.93782 19.2922 7.86067 15.1291 7.92121 13.2814C18.0072 10.0676 22.9212 6.63495 25.0003 4.81171C27.0794 6.63495 31.9935 10.0685 42.0814 13.2814C42.1439 15.1057 42.0726 19.1896 40.6644 24.2189Z" fill="#94E671"/>
<path d="M40.6641 24.2189C38.9453 30.3547 34.832 39.0822 25 46.2873V4.81171C27.0791 6.63495 31.9932 10.0685 42.0811 13.2814C42.1436 15.1057 42.0723 19.1896 40.6641 24.2189Z" fill="#52CC7B"/>
<path d="M25.9059 45.4117L25 44.3185C17.875 39.1066 13.1202 32.4338 10.8584 24.4689C9.55766 19.8859 9.48832 16.1183 9.54301 14.4465C18.6709 11.5373 23.1182 8.43085 25 6.78046L25.9059 5.87997V4.58954L25 3.22284C24.5313 3.22284 24.1104 3.44745 23.835 3.82635C23.6817 4.0119 20.1416 8.14667 7.71489 11.9484C7.15825 12.1183 6.75492 12.6027 6.68852 13.1818C6.6641 13.3918 6.11821 18.4074 8.002 25.1349C9.10551 29.0744 10.8194 32.7951 13.0957 36.1945C15.9346 40.4348 19.6573 44.1779 24.1622 47.3195C24.4141 47.4953 24.7071 47.5832 25 47.5832L25.9059 46.4048V45.4117Z" fill="#52CC7B"/>
<path d="M25.8452 14.2638L25 13.0617C21.542 13.0617 18.7285 15.8752 18.7285 19.3332V21.6017C18.7285 22.4103 19.3848 23.0666 20.1934 23.0666C21.0029 23.0666 21.6582 22.4103 21.6582 21.6017V19.3332C21.6582 17.4904 23.1572 15.9914 25 15.9914L25.8452 15.0554V14.2638Z" fill="#404A80"/>
<path d="M41.998 25.1349C40.8945 29.0744 39.1807 32.7951 36.9043 36.1945C34.0654 40.4348 30.3428 44.1779 25.8379 47.3195C25.5859 47.4953 25.293 47.5832 25 47.5832V44.3185C33.8984 37.7971 37.6211 29.8986 39.1768 24.3449C40.4512 19.7932 40.5156 16.0969 40.459 14.4465C31.3291 11.5383 26.8818 8.43085 25 6.78046V3.22284C25.4687 3.22284 25.8896 3.44745 26.165 3.82635C26.3184 4.0119 29.8584 8.14667 42.2852 11.9484C42.8418 12.1183 43.2451 12.6027 43.3115 13.1818C43.3359 13.3918 43.8818 18.4074 41.998 25.1349Z" fill="#3D997A"/>
<path d="M31.2715 19.3332V21.6017C31.2715 22.4103 30.6152 23.0666 29.8066 23.0666C28.9971 23.0666 28.3418 22.4103 28.3418 21.6017V19.3332C28.3418 17.4904 26.8428 15.9914 25 15.9914V13.0617C28.458 13.0617 31.2715 15.8752 31.2715 19.3332Z" fill="#283366"/>
<path d="M26.3107 23.0662L25 20.1369H19.6094C18.1367 20.1369 16.9395 21.3342 16.9395 22.8068V31.1955C16.9395 32.6682 18.1367 33.8654 19.6094 33.8654H25L26.3107 30.3693V23.0662Z" fill="#FFE370"/>
<path d="M33.0605 22.8068V31.1955C33.0605 32.6682 31.8633 33.8654 30.3906 33.8654H25V20.1369H30.3906C31.8633 20.1369 33.0605 21.3342 33.0605 22.8068Z" fill="#FFB54C"/>
<path d="M26.4648 26.2892V27.7131C26.4648 28.5226 25.8086 29.1779 25 29.1779C24.1914 29.1779 23.5352 28.5226 23.5352 27.7131V26.2892C23.5352 25.4797 24.1914 24.8244 25 24.8244C25.8086 24.8244 26.4648 25.4796 26.4648 26.2892Z" fill="#404A80"/>
<path d="M26.4648 26.2892V27.7131C26.4648 28.5226 25.8086 29.1779 25 29.1779V24.8244C25.8086 24.8244 26.4648 25.4796 26.4648 26.2892Z" fill="#283366"/>
</svg>
