<svg width="50" height="52" viewBox="0 0 50 52" fill="none" xmlns="http://www.w3.org/2000/svg">
<path d="M37.0036 5.19868V36.3907C37.0077 37.4118 36.7059 38.4107 36.1372 39.2587C35.6646 39.9756 35.0213 40.5638 34.2651 40.9707C33.509 41.3775 32.6636 41.5901 31.8049 41.5894H14.476C13.7931 41.5901 13.1168 41.4561 12.4858 41.1951C11.8547 40.9341 11.2814 40.5512 10.7985 40.0683C10.3156 39.5854 9.93269 39.012 9.67168 38.381C9.41066 37.75 9.27666 37.0736 9.27735 36.3907V5.19868C9.27735 3.8199 9.82506 2.4976 10.8 1.52266C11.7749 0.547716 13.0972 0 14.476 0H31.8049C33.1837 0 34.506 0.547716 35.481 1.52266C36.4559 2.4976 37.0036 3.8199 37.0036 5.19868Z" fill="#5AAAE7"/>
<path d="M20.4541 34.4066C20.4541 34.8626 20.3346 35.3107 20.1075 35.7062L16.711 41.5894H14.9955L14.4756 40.723L18.3746 33.9733C18.6017 33.5778 18.7212 33.1297 18.7212 32.6737C18.7233 32.4181 18.6853 32.1637 18.6085 31.9199C18.8004 31.9724 18.984 32.0511 19.1544 32.1538C19.5509 32.3809 19.88 32.709 20.1083 33.1047C20.3367 33.5005 20.456 33.9497 20.4541 34.4066Z" fill="#3D9AE2"/>
<path d="M36.1372 30.3256V39.2587C35.6646 39.9755 35.0213 40.5638 34.2651 40.9706C33.509 41.3775 32.6636 41.5901 31.8049 41.5894H30.9385V30.3256C30.9385 29.6362 31.2123 28.9751 31.6998 28.4876C32.1873 28.0001 32.8484 27.7263 33.5378 27.7263C34.2272 27.7263 34.8884 28.0001 35.3758 28.4876C35.8633 28.9751 36.1372 29.6362 36.1372 30.3256Z" fill="#3D9AE2"/>
<path d="M20.3853 34.9958C20.3302 35.2455 20.2367 35.4852 20.1081 35.7062L19.6748 36.4514V36.3907C19.6736 36.1632 19.7183 35.9378 19.8061 35.7279C19.8939 35.518 20.0231 35.3279 20.186 35.169C20.2484 35.1067 20.315 35.0488 20.3853 34.9958Z" fill="#D8D7DA"/>
<path d="M18.7213 32.6737C18.7219 32.1009 18.5334 31.544 18.185 31.0895C17.8365 30.6349 17.3477 30.3081 16.7945 30.16C16.2413 30.0118 15.6546 30.0504 15.1256 30.27C14.5966 30.4895 14.1549 30.8776 13.8692 31.374L9.73626 38.5309C9.43253 37.8583 9.27597 37.1287 9.27704 36.3907V22.5449C8.98974 22.5847 8.71702 22.696 8.4839 22.8686C8.25077 23.0412 8.06469 23.2695 7.94271 23.5327L4.00905 32.0672C3.48265 33.2019 3.21059 34.438 3.21192 35.6889V51.1203L17.0751 51.1116V46.4848C17.0732 45.5414 16.8157 44.6162 16.3299 43.8075L14.9956 41.5894L14.4757 40.723L18.3747 33.9733C18.6018 33.5778 18.7213 33.1297 18.7213 32.6737Z" fill="#FFC477"/>
<path d="M24.8735 34.6578C25.3327 34.6592 25.7726 34.8422 26.0973 35.1669C26.422 35.4916 26.605 35.9316 26.6064 36.3907C26.603 36.8493 26.4193 37.2881 26.0951 37.6123C25.7708 37.9366 25.332 38.1202 24.8735 38.1236H21.4077C20.9485 38.1222 20.5086 37.9392 20.1839 37.6146C19.8592 37.2899 19.6762 36.8499 19.6748 36.3907C19.6782 35.9322 19.8619 35.4934 20.1861 35.1691C20.5104 34.8449 20.9492 34.6612 21.4077 34.6578H24.8735Z" fill="#E6E7E8"/>
<path d="M44.8018 40.723C44.8018 40.0336 45.0757 39.3724 45.5632 38.885C46.0506 38.3975 46.7118 38.1236 47.4012 38.1236C48.0905 38.1236 48.7517 38.3975 49.2392 38.885C49.7266 39.3724 50.0005 40.0336 50.0005 40.723V51.1203H26.7018L22.9674 44.6566C22.7392 44.2614 22.6191 43.813 22.6191 43.3565C22.6192 42.9001 22.7395 42.4518 22.9678 42.0566C23.1961 41.6614 23.5245 41.3333 23.9199 41.1052C24.3153 40.8772 24.7637 40.7573 25.2201 40.7576C25.677 40.7557 26.1262 40.875 26.522 41.1033C26.9177 41.3317 27.2458 41.6608 27.4729 42.0573L29.2058 45.0552V28.5927C29.2058 27.9033 29.4797 27.2422 29.9671 26.7547C30.4546 26.2672 31.1157 25.9934 31.8051 25.9934C32.4945 25.9934 33.1557 26.2672 33.6431 26.7547C34.1306 27.2422 34.4045 27.9033 34.4045 28.5927V38.9901C34.4045 38.3007 34.6783 37.6395 35.1658 37.1521C35.6533 36.6646 36.3144 36.3907 37.0038 36.3907C37.6932 36.3907 38.3543 36.6646 38.8418 37.1521C39.3293 37.6395 39.6031 38.3007 39.6031 38.9901V39.8565C39.6031 39.1671 39.877 38.506 40.3645 38.0185C40.8519 37.531 41.5131 37.2572 42.2025 37.2572C42.8919 37.2572 43.553 37.531 44.0405 38.0185C44.528 38.506 44.8018 39.1671 44.8018 39.8565V40.723Z" fill="#FFC477"/>
<path d="M24.8732 27.7263C29.1799 27.7263 32.6712 24.235 32.6712 19.9283C32.6712 15.6215 29.1799 12.1302 24.8732 12.1302C20.5665 12.1302 17.0752 15.6215 17.0752 19.9283C17.0752 24.235 20.5665 27.7263 24.8732 27.7263Z" fill="#3D9AE2"/>
<path d="M23.1398 25.9934C27.4465 25.9934 30.9378 22.5021 30.9378 18.1954C30.9378 13.8886 27.4465 10.3973 23.1398 10.3973C18.8331 10.3973 15.3418 13.8886 15.3418 18.1954C15.3418 22.5021 18.8331 25.9934 23.1398 25.9934Z" fill="#FFD422"/>
<path d="M16.209 2.59933H17.9419V4.33223H16.209V2.59933Z" fill="#3D9AE2"/>
<path d="M19.6748 2.59933H26.6064V4.33223H19.6748V2.59933Z" fill="#3D9AE2"/>
<path d="M2.59934 8.91833L0 11.5177L1.22515 12.7428L2.34547 11.6225V21.6611H4.07836V11.6225L5.19868 12.7428L6.42383 11.5177L3.82449 8.91833C3.66201 8.75589 3.44167 8.66464 3.21192 8.66464C2.98216 8.66464 2.76182 8.75589 2.59934 8.91833Z" fill="#FF9811"/>
<path d="M46.2803 11.5177L43.6809 8.91833C43.5185 8.75589 43.2981 8.66464 43.0684 8.66464C42.8386 8.66464 42.6183 8.75589 42.4558 8.91833L39.8564 11.5177L41.0816 12.7428L42.2019 11.6225V21.6611H43.9348V11.6225L45.0551 12.7428L46.2803 11.5177Z" fill="#FF9811"/>
<path d="M42.2021 23.394H43.935V25.1269H42.2021V23.394Z" fill="#FF9811"/>
<path d="M42.2021 26.8598H43.935V28.5927H42.2021V26.8598Z" fill="#FF9811"/>
<path d="M2.3457 23.394H4.0786V25.1269H2.3457V23.394Z" fill="#FF9811"/>
<path d="M17.9418 51.1117H16.209V46.4892C16.2091 45.7018 15.9946 44.9292 15.5886 44.2546L13.7335 41.1701C13.6537 41.0376 13.6108 40.8862 13.6093 40.7315C13.6078 40.5769 13.6477 40.4246 13.7249 40.2906L17.5649 33.6398C17.6891 33.4324 17.7708 33.2023 17.805 32.963C17.8393 32.7237 17.8256 32.4799 17.7646 32.246C17.7036 32.0121 17.5966 31.7926 17.4499 31.6005C17.3031 31.4084 17.1196 31.2475 16.9099 31.1271C16.5144 30.9259 16.0568 30.8841 15.6314 31.0103C15.2059 31.1366 14.8452 31.4212 14.6234 31.8055L9.85791 40.0593C9.80101 40.1583 9.72511 40.245 9.63457 40.3146C9.54403 40.3842 9.44063 40.4352 9.33032 40.4646C9.22001 40.4941 9.10496 40.5015 8.99179 40.4863C8.87862 40.4712 8.76956 40.4338 8.67088 40.3764C8.57223 40.3195 8.48576 40.2437 8.41642 40.1534C8.34709 40.063 8.29624 39.9599 8.26678 39.8499C8.23733 39.7399 8.22985 39.6252 8.24478 39.5123C8.2597 39.3994 8.29673 39.2905 8.35376 39.192L13.1192 30.9391C13.3783 30.492 13.7338 30.1084 14.1599 29.8162C14.5859 29.524 15.0718 29.3305 15.5822 29.2498C16.0925 29.1691 16.6144 29.2033 17.1098 29.3498C17.6053 29.4964 18.0618 29.7516 18.4461 30.0969C19.038 30.6447 19.4237 31.3793 19.5387 32.1775C19.6537 32.9758 19.491 33.7893 19.0778 34.482L15.4785 40.7152L17.0754 43.3613C17.6429 44.3056 17.9424 45.3866 17.9418 46.4883V51.1117Z" fill="#FFB655"/>
<path d="M35.27 38.9901C35.27 38.5115 34.8821 38.1236 34.4036 38.1236C33.925 38.1236 33.5371 38.5115 33.5371 38.9901V42.4559C33.5371 42.9344 33.925 43.3223 34.4036 43.3223C34.8821 43.3223 35.27 42.9344 35.27 42.4559V38.9901Z" fill="#FFB655"/>
<path d="M40.4692 38.9901C40.4692 38.5115 40.0813 38.1236 39.6028 38.1236C39.1242 38.1236 38.7363 38.5115 38.7363 38.9901V42.4559C38.7363 42.9344 39.1242 43.3223 39.6028 43.3223C40.0813 43.3223 40.4692 42.9344 40.4692 42.4559V38.9901Z" fill="#FFB655"/>
<path d="M45.6675 39.8565C45.6675 39.378 45.2795 38.9901 44.801 38.9901C44.3225 38.9901 43.9346 39.378 43.9346 39.8565V42.4559C43.9346 42.9344 44.3225 43.3223 44.801 43.3223C45.2795 43.3223 45.6675 42.9344 45.6675 42.4559V39.8565Z" fill="#FFB655"/>
</svg>
