<svg width="50" height="50" viewBox="0 0 50 50" fill="none" xmlns="http://www.w3.org/2000/svg">
<path d="M50 25C50 38.8073 38.8073 50 25 50C11.1927 50 0 38.8073 0 25C0 11.1927 11.1927 0 25 0C38.8073 0 50 11.1927 50 25Z" fill="#FFCE00"/>
<path d="M50.0001 25C50.0001 24.6143 49.9902 24.2309 49.9726 23.8495L44.6294 18.5058L43.9061 19.6205L33.0937 8.80774L8.11816 41.1922L14.7222 47.7962C17.8571 49.2119 21.3365 50 25.0001 50C38.8074 50 50.0001 38.8073 50.0001 25Z" fill="#FFA300"/>
<path d="M14.3617 8.80814L8.11816 15.0516V41.1922H33.0937V8.80814H14.3617Z" fill="white"/>
<path d="M20.4961 8.80774H33.0934V41.1918H20.4961V8.80774Z" fill="#E9EDF5"/>
<path d="M14.3617 15.0516V8.80774L8.11816 15.0516H14.3617Z" fill="#DCE1EB"/>
<path d="M20.6055 18.5059H44.6289V30.3223H20.6055V18.5059Z" fill="#08C175"/>
<path d="M32.5869 18.5059H44.6291V30.3223H32.5869V18.5059Z" fill="#0EAA67"/>
<path d="M35.5469 24.4141C35.5469 22.1218 34.235 20.2637 32.6172 20.2637C30.999 20.2637 29.6875 22.1218 29.6875 24.4141C29.6875 26.7063 30.999 28.5644 32.6172 28.5644C34.235 28.5644 35.5469 26.7063 35.5469 24.4141Z" fill="#09D687"/>
<path d="M32.6174 20.2637C32.6071 20.2637 32.5972 20.2648 32.5869 20.2648V28.5633C32.5968 28.5633 32.6071 28.5644 32.6174 28.5644C34.2352 28.5644 35.5471 26.7063 35.5471 24.4141C35.5471 22.1218 34.2352 20.2637 32.6174 20.2637Z" fill="#08C175"/>
<path d="M16.5039 25H40.5273V36.8164H16.5039V25Z" fill="#09D687"/>
<path d="M28.46 25H40.5274V36.8164H28.46V25Z" fill="#08C175"/>
<path d="M31.4453 30.9082C31.4453 28.616 30.1338 26.7578 28.5156 26.7578C26.8974 26.7578 25.5859 28.616 25.5859 30.9082C25.5859 33.2005 26.8974 35.0586 28.5156 35.0586C30.1338 35.0586 31.4453 33.2005 31.4453 30.9082Z" fill="#08C175"/>
<path d="M28.5157 26.7578C28.497 26.7578 28.4783 26.7593 28.46 26.7597V35.0567C28.4787 35.0571 28.497 35.0586 28.5157 35.0586C30.1338 35.0586 31.4453 33.2005 31.4453 30.9082C31.4453 28.616 30.1338 26.7578 28.5157 26.7578Z" fill="#0EAA67"/>
</svg>
