<svg width="50" height="50" viewBox="0 0 50 50" fill="none" xmlns="http://www.w3.org/2000/svg">
<path d="M17.8175 40.834H17.3496C17.4473 40.948 17.5507 41.0554 17.6515 41.1661L17.8175 40.834Z" fill="#FFBB00"/>
<path d="M35.0001 22.9888L39.512 27.5006L35.8335 31.1791L35.8139 31.1595L32.5001 34.252V40.8341H25.4476L23.9021 42.2762C23.8614 42.3145 23.8126 42.3332 23.767 42.3617C23.7442 42.3755 23.7303 42.4007 23.706 42.4129L20.7754 43.8778C23.4179 45.6381 26.5877 46.6676 30 46.6676C39.2043 46.6676 46.667 39.2057 46.667 30.0006C46.667 21.6484 40.5153 14.7505 32.5001 13.5411V25.4887L35.0001 22.9888ZM41.6669 37.5007H39.1669V40.0008H37.5002V37.5007H35.0001V35.834H37.5002V33.334H39.1669V35.834H41.6669V37.5007Z" fill="#FFBB00"/>
<path d="M15.9564 41.7846C15.6992 41.4785 15.4625 41.1563 15.2256 40.834H13.209C13.6615 41.534 14.1433 42.2175 14.6804 42.8572C15.115 43.374 15.5837 43.8631 16.0687 44.3351L16.854 42.7645C16.5456 42.4463 16.2404 42.1231 15.9564 41.7846Z" fill="#FFBB00"/>
<path d="M19.9985 47.3234C21.0043 47.9062 22.068 48.4025 23.1585 48.7997C24.2482 49.1969 25.3811 49.4996 26.5278 49.6998C27.6672 49.8999 28.8357 50.0009 30.0003 50.0009C31.1649 50.0009 32.3335 49.8999 33.4737 49.6997C34.6196 49.4995 35.7524 49.1968 36.8421 48.7996C37.9327 48.4024 38.9963 47.906 40.0022 47.3233L39.1672 45.8813C38.2451 46.4152 37.271 46.8693 36.2724 47.2339C35.2739 47.5968 34.2354 47.8743 33.1864 48.0591C31.0949 48.4237 28.9049 48.4237 26.8151 48.0591C25.7653 47.8744 24.7268 47.5968 23.7282 47.233C22.7297 46.8693 21.7555 46.4151 20.8335 45.8812C20.2313 45.532 19.655 45.1358 19.0936 44.7191L17.4375 45.5476C18.2464 46.2011 19.1017 46.8043 19.9985 47.3234Z" fill="#FFBB00"/>
<path d="M49.6992 26.5271C49.499 25.3829 49.1954 24.2492 48.7983 23.1574C48.4011 22.0677 47.9039 21.0049 47.322 19.9982C46.741 18.9948 46.068 18.0344 45.32 17.1438C44.5721 16.2543 43.7428 15.425 42.855 14.6796C41.9663 13.9329 41.006 13.259 40.001 12.6776C38.9951 12.0949 37.9315 11.5985 36.8409 11.2017C35.7512 10.8045 34.6184 10.5014 33.4717 10.3009C32.4503 10.1222 31.4071 10.036 30.3613 10.0172L32.1525 11.8084C32.4976 11.8483 32.8435 11.8829 33.1844 11.9422C34.2342 12.1266 35.2727 12.4041 36.2712 12.7679C37.2698 13.1312 38.244 13.5861 39.166 14.12C40.0881 14.653 40.9678 15.2707 41.7832 15.956C42.5978 16.6396 43.3579 17.4001 44.044 18.2159C44.7292 19.0322 45.3469 19.9131 45.8799 20.8327C46.413 21.7551 46.8679 22.7297 47.2325 23.7283C47.5962 24.7277 47.8737 25.7661 48.0569 26.8151C48.24 27.8586 48.3328 28.9295 48.3328 30.0005C48.3328 31.0714 48.24 32.1425 48.057 33.1858C47.8738 34.2347 47.5963 35.2732 47.2326 36.2717C46.868 37.2727 46.4131 38.246 45.88 39.1681L47.3221 40.0023C47.904 38.9973 48.4005 37.9344 48.7984 36.8431C49.1956 35.7517 49.4992 34.6182 49.6993 33.4739C49.8986 32.3362 49.9995 31.1675 49.9995 30.0005C49.9995 28.8335 49.8986 27.6648 49.6992 26.5271Z" fill="#FFBB00"/>
<path d="M34.167 7.50016H35.8337V5.00011H38.3338V3.33342H35.8337V0.833374H34.167V3.33342H31.667V5.00011H34.167V7.50016Z" fill="#FFBB00"/>
<path d="M39.1667 33.3339H37.5V35.834H35V37.5007H37.5V40.0007H39.1667V37.5007H41.6668V35.834H39.1667V33.3339Z" fill="white"/>
<path d="M6.6661 30.0005H4.16606V28.3338H6.6661V26.6671H4.16606V25.0004H6.6661V23.3337H4.16606V21.667H6.6661V20.0003H4.16606V18.3336H6.6661V15.8335H4.16606V4.16667H21.6664V6.66672H24.1664V1.66663H1.66602V32.5005H6.6661V30.0005Z" fill="white"/>
<path d="M4.16602 4.16669V15.8336H6.66606V6.66673H21.6663V4.16669H4.16602Z" fill="#E85D3A"/>
<path d="M6.66606 18.3337H4.16602V20.0004H6.66606V18.3337Z" fill="#43C2E8"/>
<path d="M6.66606 21.6671H4.16602V23.3338H6.66606V21.6671Z" fill="#43C2E8"/>
<path d="M6.66606 25.0004H4.16602V26.6671H6.66606V25.0004Z" fill="#43C2E8"/>
<path d="M6.66606 28.3339H4.16602V30.0006H6.66606V28.3339Z" fill="#43C2E8"/>
<path d="M30.8337 35.808L27.2334 39.1674H30.8337V35.808Z" fill="white"/>
<path d="M18.6524 39.1674L19.2554 37.9614C19.2676 37.9362 19.2937 37.9223 19.3083 37.8987C19.3466 37.8376 19.3792 37.7742 19.4321 37.7253L20.5648 36.6674H10.834V35.0007H22.3512L24.1368 33.334H10.834V31.6673H25.9222L27.7078 30.0006H21.6676H10.834V28.3339H21.6676H28.3343V29.4163L30.8344 27.0823V14.167H28.3343V22.5005H10.834V10.8336H25.8343V8.33356H8.33398V39.1674H18.6524ZM28.3343 25.0005V26.6672H21.6676H10.834V25.0005H21.6676H28.3343Z" fill="white"/>
<path d="M27.501 9.5119V12.5002H30.4894L27.501 9.5119Z" fill="white"/>
<path d="M27.0123 6.66679H25.8338V0H0V34.1673H6.66679V40.8341H13.2083H15.2249H17.3505H17.8184L17.6524 41.1661L16.8532 42.7645L16.0679 44.3352L15.9214 44.6282C15.7611 44.9488 15.8237 45.3362 16.0777 45.5901C16.2381 45.7496 16.4513 45.8342 16.667 45.8342C16.7939 45.8342 16.9209 45.8049 17.0397 45.7462L17.4376 45.5477L19.0937 44.7192L20.7758 43.8778L23.7064 42.4128C23.7307 42.4007 23.7446 42.3754 23.7674 42.3616C23.813 42.3332 23.8618 42.3144 23.9025 42.2762L25.4481 40.8341H32.5006V34.2519L35.8145 31.1593L35.8341 31.1789L39.5125 27.5005L35.0006 22.9887L32.5006 25.4888V13.5411V12.1551L32.1539 11.8084L30.3627 10.0173L27.0123 6.66679ZM35.0006 25.3456L37.1557 27.5005L35.834 28.8222L33.679 26.6671L35.0006 25.3456ZM30.8339 35.8079V39.1674H27.2335L30.8339 35.8079ZM23.3541 40.5085L21.1999 38.3552L32.4802 27.826L34.6344 29.9794L23.3541 40.5085ZM20.229 39.7403L21.9266 41.4396L18.5305 43.1372L20.229 39.7403ZM8.33348 39.1674V8.33348H25.8338V10.8335V14.1669H28.3338H30.8339V27.0822L28.3338 29.4162L27.7072 30.0005L25.9216 31.6672L24.1361 33.3339L22.3505 35.0006L20.5642 36.6673L19.4314 37.7253C19.3785 37.7741 19.346 37.8376 19.3076 37.8986C19.293 37.9222 19.2669 37.936 19.2547 37.9613L18.6519 39.1674H8.33348ZM1.6667 1.6667H24.1671V6.66679H21.6671H6.66679V15.8336V18.3337V20.0004V21.6671V23.3337V25.0004V26.6671V28.3338V30.0005V32.5006H1.6667V1.6667ZM27.5005 12.5002V9.51184L30.4889 12.5002H27.5005Z" fill="black"/>
<path d="M10.835 10.8336V22.5004H28.3353V14.1669H25.8352V10.8336H10.835Z" fill="#FFBB00"/>
<path d="M10.835 25.0004V26.6671H21.6685H28.3353V25.0004H21.6685H10.835Z" fill="#43C2E8"/>
<path d="M21.6685 28.3339H10.835V30.0006H21.6685H27.7086L28.3353 29.4163V28.3339H21.6685Z" fill="#43C2E8"/>
<path d="M10.835 31.6673V33.334H24.1376L25.9231 31.6673H10.835Z" fill="#43C2E8"/>
<path d="M10.835 35.0006V36.6673H20.5658L22.3521 35.0006H10.835Z" fill="#43C2E8"/>
<path d="M34.6346 29.9794L32.4805 27.826L21.2002 38.3552L23.3543 40.5086L34.6346 29.9794Z" fill="#E85D3A"/>
<path d="M37.155 27.5002L35 25.3452L33.6784 26.6668L35.8334 28.8218L37.155 27.5002Z" fill="white"/>
<path d="M21.9272 41.4396L20.2296 39.7403L18.5312 43.1371L21.9272 41.4396Z" fill="white"/>
</svg>
