<svg width="50" height="50" viewBox="0 0 50 50" fill="none" xmlns="http://www.w3.org/2000/svg">
<g clip-path="url(#clip0_1233_1860)">
<path d="M49.833 17.2978L26.8579 40.2729C26.6354 40.4954 26.2745 40.4954 26.052 40.2729L13.1894 27.4103C12.9668 27.1877 12.9668 26.8269 13.1894 26.6043L36.1644 3.6292C36.3869 3.40664 36.7478 3.40664 36.9703 3.6292L49.8329 16.4918C50.0556 16.7144 50.0556 17.0752 49.833 17.2978Z" fill="#5CC45C"/>
<path d="M49.8328 16.4918L46.368 13.0269L22.5869 36.808L26.0518 40.2728C26.2743 40.4954 26.6352 40.4954 26.8577 40.2728L49.8328 17.2977C50.0554 17.0752 50.0554 16.7144 49.8328 16.4918Z" fill="#4EAD4E"/>
<path d="M18.1264 28.499C18.6277 27.5716 18.6277 26.4431 18.1264 25.5155C18.0591 25.391 18.0786 25.2378 18.1787 25.1377L34.6977 8.61865C34.7978 8.51856 34.951 8.49912 35.0756 8.56651C36.0028 9.06778 37.1314 9.06778 38.059 8.56641C38.1836 8.49912 38.3368 8.51856 38.4369 8.61856L44.8434 15.0251C44.9435 15.1252 44.963 15.2784 44.8956 15.4029C44.3942 16.3305 44.3942 17.4589 44.8956 18.3864C44.9629 18.5109 44.9434 18.6642 44.8434 18.7643L28.3243 35.2834C28.2242 35.3835 28.071 35.4029 27.9465 35.3356C27.0189 34.8344 25.8904 34.8344 24.9631 35.3356C24.8385 35.4029 24.6853 35.3835 24.5852 35.2834L18.1787 28.8769C18.0786 28.7768 18.0591 28.6234 18.1264 28.499Z" fill="#A0E557"/>
<path d="M44.8958 18.3864C44.3944 17.4589 44.3944 16.3305 44.8958 15.4029C44.9631 15.2784 44.9437 15.1252 44.8437 15.0251L41.1548 11.3362C40.4921 12.3654 40.4921 13.6999 41.1548 14.7291L24.2893 31.5945C23.2601 30.9319 21.9255 30.932 20.8965 31.5945L24.5854 35.2834C24.6854 35.3835 24.8387 35.4028 24.9632 35.3356C25.8905 34.8344 27.019 34.8343 27.9466 35.3357C28.0711 35.4029 28.2243 35.3835 28.3244 35.2834L44.8436 18.7643C44.9437 18.6643 44.9631 18.5109 44.8958 18.3864Z" fill="#93CC4A"/>
<path d="M34.8242 25.2639C36.654 23.4341 36.654 20.4674 34.8242 18.6376C32.9944 16.8078 30.0277 16.8078 28.1979 18.6376C26.3681 20.4674 26.3681 23.4341 28.1979 25.2639C30.0277 27.0937 32.9944 27.0937 34.8242 25.2639Z" fill="#F3E8D7"/>
<path d="M25.955 33.0773L33.0242 26.0081C33.8389 25.1935 34.1853 24.219 33.3706 23.4044C32.0866 21.81 27.3996 23.0886 25.1763 25.3119C24.0983 26.3898 22.8741 27.6143 22.1994 28.2895C21.8692 28.6197 21.4218 28.8053 20.949 28.8053H20.9247C20.1447 28.8053 19.2312 28.05 19.03 27.2964L19.0295 20.7642L20.196 19.5977L21.4776 18.316L26.5679 13.2258C24.4737 12.9911 22.3913 12.8642 21.5835 12.7674C20.6854 12.6598 19.9194 13.0622 19.2225 13.6388L12.706 18.7798C11.7863 19.5406 11.1233 20.5658 10.8058 21.7164C10.0943 24.2934 8.5958 28.8517 7.64473 30.6644L2.89355 35.4155L11.1191 43.6411L13.4068 41.3534C13.8368 40.9234 14.3685 40.6092 14.9524 40.4398L19.7303 38.8311C21.2312 38.3161 22.5524 37.3806 23.5367 36.1358L25.955 33.0773Z" fill="#FCD7C3"/>
<path d="M23.5364 36.1358L25.9547 33.0774L33.0239 26.0082C33.8386 25.1936 34.185 24.2191 33.3703 23.4045C32.8983 22.8184 31.9665 22.6206 30.8662 22.7152C29.2547 22.8538 27.7529 23.5905 26.6092 24.7343L22.1104 29.2331L19.6921 32.2915C18.7079 33.5362 17.3866 34.4718 15.8856 34.9867L11.1078 36.5955C10.5238 36.7648 9.99209 37.0791 9.56211 37.5091L7.27441 39.7968L11.1188 43.6411L13.4064 41.3534C13.8364 40.9234 14.3681 40.6092 14.9521 40.4398L19.7299 38.8311C21.231 38.316 22.5522 37.3805 23.5364 36.1358Z" fill="#FFCDAC"/>
<path d="M9.78494 46.2732L0.264624 36.7527C-0.088208 36.3999 -0.088208 35.8279 0.264624 35.4751L1.94001 33.7997C2.29285 33.4469 2.86482 33.4469 3.21765 33.7997L12.7381 43.3201C13.0909 43.673 13.0909 44.2449 12.7381 44.5978L11.0627 46.2731C10.7098 46.626 10.1378 46.626 9.78494 46.2732Z" fill="#464C50"/>
<path d="M12.7377 43.3201L9.50869 40.0911L6.55566 43.0442L9.78467 46.2732C10.1375 46.626 10.7095 46.626 11.0623 46.2732L12.7376 44.5979C13.0905 44.245 13.0905 43.673 12.7377 43.3201Z" fill="#33393A"/>
<path d="M32.7452 25.788C31.807 24.8498 30.2858 24.8498 29.3476 25.788L28.2802 26.8554C27.7972 27.3384 27.7972 28.1214 28.2802 28.6044L29.3542 29.6784L32.9949 26.0378L32.7452 25.788Z" fill="#EFEFEF"/>
</g>
<defs>
<clipPath id="clip0_1233_1860">
<rect width="50" height="50" fill="white"/>
</clipPath>
</defs>
</svg>
