<svg width="49" height="48" viewBox="0 0 49 48" fill="none" xmlns="http://www.w3.org/2000/svg">
<path d="M13.4484 42.1948L12.1984 39.5864C12.1411 39.4668 12.0513 39.366 11.9391 39.2954L11.9232 39.2853C11.7067 39.1488 11.433 39.1409 11.2087 39.2646C10.2445 39.7965 9.54319 40.3069 9.07633 40.692L6.66527 36.0867C6.5727 35.9099 6.40933 35.7807 6.21586 35.7313C6.02267 35.6821 5.81719 35.7174 5.65128 35.8284L0.312029 39.4018C0.10805 39.5385 -0.0100224 39.7715 0.00066887 40.0167C0.0113601 40.262 0.149127 40.4839 0.364359 40.6023L4.29809 42.7659V47.1113C4.29809 47.3637 4.43342 47.5968 4.65259 47.722C4.76072 47.7837 4.88095 47.8145 5.00127 47.8145C5.12488 47.8145 5.24858 47.7819 5.35878 47.7168L13.1718 43.1043C13.4859 42.9187 13.6061 42.5239 13.4484 42.1948Z" fill="#B32425"/>
<path d="M47.7046 39.4016L42.3653 35.8282C42.1994 35.7171 41.994 35.6819 41.8007 35.7312C41.6072 35.7804 41.4438 35.9095 41.3513 36.0865L38.9402 40.6918C38.4734 40.3067 37.772 39.7963 36.8078 39.2644C36.5837 39.1407 36.31 39.1486 36.0933 39.2852L36.0774 39.2952C35.9653 39.3659 35.8755 39.4667 35.8181 39.5862L34.5682 42.1946C34.4105 42.5236 34.5307 42.9185 34.8448 43.104L42.6578 47.7165C42.768 47.7816 42.8915 47.8143 43.0153 47.8143C43.1355 47.8143 43.2559 47.7834 43.364 47.7217C43.5832 47.5965 43.7185 47.3635 43.7185 47.1111V42.7656L47.6522 40.6021C47.8674 40.4837 48.0052 40.2618 48.0159 40.0165C48.0266 39.7712 47.9086 39.5382 47.7046 39.4016Z" fill="#B32425"/>
<path d="M13.4486 42.1947L12.1986 39.5863C12.0859 39.3512 11.8489 39.1976 11.5882 39.1874C11.5882 39.1874 11.5672 39.1866 11.5314 39.1866C11.4122 39.1866 11.2953 39.2169 11.191 39.2746C9.25605 40.345 8.38593 41.3263 8.34973 41.3676C8.18214 41.5592 8.13113 41.8265 8.21647 42.0665C8.30181 42.3064 8.5102 42.4814 8.76125 42.5239L12.6967 43.1919C12.736 43.1985 12.7754 43.2018 12.8145 43.2018C13.0328 43.2018 13.2417 43.0999 13.3758 42.922C13.5342 42.7121 13.5621 42.4317 13.4486 42.1947Z" fill="#8C1E23"/>
<path d="M39.6679 41.3676C39.6317 41.3263 38.7615 40.3451 36.8266 39.2746C36.7224 39.2169 36.6054 39.1866 36.4862 39.1866C36.4506 39.1866 36.4295 39.1874 36.4295 39.1874C36.1689 39.1974 35.9317 39.351 35.819 39.5863L34.5691 42.1947C34.4555 42.4316 34.4835 42.7121 34.6417 42.9219C34.776 43.0998 34.9847 43.2017 35.203 43.2017C35.2421 43.2017 35.2815 43.1984 35.3208 43.1918L39.2562 42.5238C39.5072 42.4812 39.7155 42.3062 39.8009 42.0664C39.8865 41.8265 39.8355 41.5591 39.6679 41.3676Z" fill="#8C1E23"/>
<path d="M10.3588 30.8947C10.1906 30.5473 9.77353 30.4004 9.42456 30.5658C6.00842 32.1858 4.52646 33.8954 4.46513 33.9672C4.27878 34.1857 4.24399 34.4954 4.37697 34.7498L8.25462 42.1566C8.36181 42.3612 8.56354 42.4991 8.79274 42.5273C8.82125 42.5308 8.84958 42.5325 8.8779 42.5325C9.07766 42.5325 9.27057 42.4466 9.40496 42.2956C9.40899 42.2911 9.81676 41.837 10.6968 41.2291C11.5101 40.6672 12.9045 39.8554 14.929 39.1782C15.1568 39.102 15.3298 38.9149 15.388 38.682C15.4463 38.449 15.3817 38.2025 15.2166 38.0281C13.3087 36.0117 11.6741 33.6118 10.3588 30.8947Z" fill="#E93234"/>
<path d="M43.5495 33.9673C43.4882 33.8952 42.0061 32.1859 38.5901 30.5658C38.2411 30.4004 37.8243 30.5472 37.656 30.8947C36.3404 33.612 34.7058 36.012 32.7979 38.028C32.6329 38.2023 32.5682 38.449 32.6265 38.6819C32.6848 38.9149 32.8578 39.1021 33.0856 39.1781C35.11 39.8554 36.5044 40.6672 37.3177 41.229C38.1979 41.837 38.6055 42.291 38.6077 42.2932C38.7421 42.4469 38.9355 42.5336 39.137 42.5336C39.1646 42.5336 39.1922 42.532 39.2199 42.5287C39.4503 42.5013 39.6525 42.3622 39.7601 42.1566L43.6377 34.7498C43.7706 34.4955 43.7358 34.1858 43.5495 33.9673Z" fill="#E93234"/>
<path d="M43.5495 33.9673C43.4882 33.8952 42.0061 32.1859 38.5901 30.5658C38.2411 30.4004 37.8243 30.5472 37.656 30.8947C36.3404 33.612 34.7058 36.012 32.7979 38.028C32.6329 38.2023 32.5682 38.449 32.6265 38.6819C32.6848 38.9149 32.8578 39.1021 33.0856 39.1781C35.11 39.8554 36.5044 40.6672 37.3177 41.229C38.1979 41.837 38.6055 42.291 38.6077 42.2932C38.7421 42.4469 38.9355 42.5336 39.137 42.5336C39.1646 42.5336 39.1922 42.532 39.2199 42.5287C39.4503 42.5013 39.6525 42.3622 39.7601 42.1566L43.6377 34.7498C43.7706 34.4955 43.7358 34.1858 43.5495 33.9673Z" fill="#E93234"/>
<path d="M32.6275 38.6819C32.5692 38.4489 32.6338 38.2024 32.7989 38.028C34.707 36.0117 36.3416 33.6118 37.6568 30.8947C37.825 30.5473 38.2421 30.4004 38.591 30.5658C39.4985 30.9962 40.2682 31.4326 40.9123 31.8432C40.2023 33.2689 39.4113 34.6082 38.5382 35.8525C37.485 37.3536 36.3139 38.7186 35.0295 39.9442C34.4617 39.6834 33.8156 39.422 33.0865 39.1782C32.8589 39.1021 32.6858 38.9148 32.6275 38.6819Z" fill="#B32425"/>
<path d="M15.3893 38.6819C15.4475 38.4489 15.3829 38.2024 15.2179 38.028C13.3098 36.0117 11.6752 33.6118 10.36 30.8947C10.1917 30.5473 9.77468 30.4004 9.42572 30.5658C8.51827 30.9962 7.74859 31.4326 7.10449 31.8432C7.81452 33.2689 8.60549 34.6082 9.47861 35.8525C10.5318 37.3536 11.703 38.7186 12.9873 39.9442C13.5552 39.6834 14.2012 39.422 14.9303 39.1782C15.1579 39.1021 15.331 38.9148 15.3893 38.6819Z" fill="#B32425"/>
<path d="M42.9744 7.77926C42.9403 7.44792 42.6784 7.18599 42.3471 7.15185C36.7505 6.57452 32.189 4.70805 29.348 3.2441C26.2597 1.65269 24.4768 0.177953 24.4596 0.163605C24.1985 -0.0545348 23.8186 -0.0545348 23.5575 0.163605C23.4874 0.222313 16.4145 6.04352 5.67003 7.15194C5.33869 7.18617 5.07685 7.44801 5.04271 7.77935C5.01233 8.07495 4.31936 15.1139 6.2407 23.3116C7.37406 28.147 9.18895 32.3664 11.635 35.8526C14.7078 40.2321 18.7835 43.4542 23.7486 45.4293C23.8321 45.4625 23.9202 45.4791 24.0085 45.4791C24.0967 45.4791 24.1849 45.4625 24.2683 45.4293C29.2334 43.4542 33.3091 40.2321 36.3819 35.8526C38.8281 32.3664 40.6428 28.1471 41.7762 23.3116C43.6977 15.1138 43.0047 8.07486 42.9744 7.77926Z" fill="#F5BA3D"/>
<path d="M42.9733 7.77925C42.9392 7.44791 42.6773 7.18598 42.346 7.15184C41.7684 7.09229 41.2025 7.0182 40.6477 6.93304C40.7763 9.40057 40.8485 15.205 39.3218 21.7191C38.1517 26.7109 36.2781 31.0669 33.7529 34.6658C30.6399 39.1026 26.5293 42.3877 21.5332 44.4359C22.2504 44.7959 22.9884 45.1273 23.7475 45.4293C23.8311 45.4625 23.9191 45.4791 24.0074 45.4791C24.0956 45.4791 24.1838 45.4625 24.2673 45.4293C29.2323 43.4542 33.308 40.2321 36.3808 35.8525C38.827 32.3663 40.6418 28.1471 41.7751 23.3116C43.6967 15.1138 43.0036 8.07485 42.9733 7.77925Z" fill="#F2A325"/>
<path d="M38.6231 11.3259C38.5889 10.9946 38.3271 10.7326 37.9958 10.6985C29.8838 9.86169 24.5125 5.45698 24.4597 5.41299C24.1986 5.19485 23.8188 5.19485 23.5577 5.41299C23.5047 5.45735 18.1561 9.85934 10.0216 10.6985C9.69026 10.7327 9.42842 10.9946 9.39428 11.3259C9.37102 11.5522 8.8404 16.9416 10.3104 23.2135C11.1787 26.9179 12.5701 30.1516 14.4456 32.825C16.8056 36.1884 19.9357 38.663 23.7487 40.1799C23.8323 40.2131 23.9203 40.2297 24.0086 40.2297C24.0968 40.2297 24.185 40.2131 24.2685 40.1799C28.0817 38.663 31.2117 36.1885 33.5715 32.825C35.4473 30.1516 36.8386 26.9179 37.7067 23.2135C39.177 16.9415 38.6463 11.5522 38.6231 11.3259Z" fill="#FFDB57"/>
<path d="M21.9745 28.7715C21.4727 28.7715 20.9914 28.5722 20.6366 28.2174L16.3334 23.9142C15.5946 23.1754 15.5946 21.9774 16.3334 21.2385C17.0722 20.4996 18.2701 20.4996 19.009 21.2385L21.9745 24.2039L29.243 16.9353C29.9818 16.1965 31.1797 16.1964 31.9187 16.9352C32.6575 17.6741 32.6575 18.872 31.9187 19.611L23.3123 28.2172C22.9576 28.5721 22.4762 28.7715 21.9745 28.7715Z" fill="#00B76C"/>
</svg>
