<svg width="50" height="50" viewBox="0 0 50 50" fill="none" xmlns="http://www.w3.org/2000/svg">
<path d="M32.9919 7.59357V5.00519L30.4431 4.12628L27.8936 5.00519V7.59357L30.4431 8.7423L32.9919 7.59357Z" fill="#FFBA57"/>
<path d="M32.9919 7.59357C32.1568 7.48917 31.3062 7.43488 30.4428 7.43488C29.5794 7.43488 28.7287 7.48917 27.8936 7.59357V9.6212L30.4431 11.379L32.9919 9.6212V7.59357Z" fill="#FFAC3E"/>
<path d="M42.1971 12.6833L44.899 13.469L45.8864 12.2403C46.4493 11.5398 46.3378 10.5156 45.6373 9.95285L44.1996 8.79758C43.4991 8.23469 42.4751 8.34631 41.9122 9.0467L40.8887 10.3204L42.1971 12.6833Z" fill="#FF4755"/>
<path d="M40.8897 10.3203L39.6182 11.9026V15.0463H43.6325L44.9001 13.4689C43.7037 12.2599 42.3568 11.2004 40.8897 10.3203Z" fill="#FC2B3A"/>
<path d="M34.1041 4.12627H26.7817C25.041 4.12627 25.041 1.74082 25.041 1.74082C25.041 1.6918 25.0431 1.64326 25.047 1.59521C25.121 0.701953 25.8694 0 26.7818 0H34.1042C35.0166 0 35.765 0.701953 35.839 1.59521C35.843 1.64316 35.8449 1.6918 35.8449 1.74082C35.8449 1.74072 35.8449 4.12627 34.1041 4.12627Z" fill="#FFE27A"/>
<path d="M34.1041 3.19063H26.7817C25.8694 3.19063 25.1224 2.48848 25.0483 1.59531C25.0443 1.64336 25.041 1.6917 25.041 1.74082V3.26445C25.041 4.22588 25.8204 5.00518 26.7817 5.00518H34.1041C35.0655 5.00518 35.8449 4.22578 35.8449 3.26445V1.74072C35.8449 1.6916 35.8416 1.64336 35.8376 1.59521C35.7635 2.48848 35.0164 3.19063 34.1041 3.19063Z" fill="#F9CF58"/>
<path d="M26.1234 15.8057L23.9635 15.481C23.7008 14.0804 23.1502 12.7813 22.3751 11.6479L23.4007 8.6874L22.4801 7.7668C22.2097 7.49639 21.7821 7.46445 21.4745 7.6916L19.717 8.98975C18.5834 8.21465 17.2845 7.66406 15.8839 7.40137L15.5592 5.24141C15.5023 4.86318 15.1774 4.5835 14.7949 4.5835H13.2139C12.8314 4.5835 12.5065 4.86318 12.4497 5.24141L12.125 7.40137C10.7244 7.66406 9.42539 8.21465 8.29189 8.98975L6.53438 7.6917C6.22676 7.46445 5.79922 7.49639 5.52881 7.76689L4.41084 8.88477C4.14043 9.15518 4.1085 9.58271 4.33564 9.89033L5.63379 11.6478C4.85869 12.7813 4.30811 14.0803 4.04541 15.4809L1.88545 15.8056C1.50723 15.8624 1.22754 16.1873 1.22754 16.5698V18.1509C1.22754 18.5333 1.50723 18.8582 1.88545 18.9151L4.04541 19.2398C4.30811 20.6404 4.85869 21.9395 5.63379 23.0729L4.33564 24.8304C4.1084 25.138 4.14033 25.5655 4.41084 25.8359L5.52881 26.9539C5.79922 27.2243 6.22676 27.2563 6.53438 27.0291L8.2918 25.731C8.86484 26.1228 9.48018 26.4572 10.1295 26.7261L11.1688 26.2123L12.125 27.3193L12.4497 29.4793C12.5065 29.8575 12.8314 30.1372 13.2139 30.1372H14.7949C15.1773 30.1372 15.5022 29.8575 15.5592 29.4793L15.8839 27.3193C17.2845 27.0566 18.5835 26.5061 19.717 25.731L21.4744 27.0291C21.782 27.2563 22.2096 27.2243 22.48 26.9539L23.5979 25.8359C23.8684 25.5655 23.9003 25.138 23.6731 24.8304L22.375 23.0729C23.1501 21.9394 23.7007 20.6404 23.9634 19.2398L26.1233 18.9151C26.5016 18.8583 26.7813 18.5334 26.7813 18.1509V16.5698C26.7813 16.1875 26.5016 15.8625 26.1234 15.8057ZM14.0044 22.3C13.6522 22.3 13.3086 22.2632 12.9772 22.1931L12.0557 22.7797L11.13 21.378C9.87959 20.4818 9.06484 19.0163 9.06484 17.3605C9.06484 14.6325 11.2764 12.421 14.0044 12.421C14.8791 12.421 15.7007 12.6483 16.4134 13.0472L17.9047 13.0373L17.9374 14.3717C18.5689 15.2015 18.9439 16.2372 18.9439 17.3604C18.9439 20.0885 16.7325 22.3 14.0044 22.3Z" fill="#8BCAFF"/>
<path d="M18.9442 17.3604C18.9442 20.0885 16.7327 22.3 14.0047 22.3C12.9324 22.3 11.9408 21.9572 11.1311 21.3769C10.5697 23.0722 10.2243 24.8659 10.1299 26.726C10.765 26.989 11.4326 27.1896 12.1253 27.3194L12.45 29.4794C12.5068 29.8576 12.8317 30.1373 13.2142 30.1373H14.7952C15.1776 30.1373 15.5025 29.8576 15.5595 29.4794L15.8842 27.3194C17.2848 27.0567 18.5838 26.5062 19.7173 25.7311L21.4747 27.0292C21.7823 27.2564 22.2099 27.2244 22.4803 26.954L23.5982 25.836C23.8687 25.5656 23.9006 25.1381 23.6734 24.8305L22.3753 23.073C23.1504 21.9395 23.701 20.6405 23.9637 19.2399L26.1236 18.9152C26.5019 18.8584 26.7815 18.5335 26.7815 18.151V16.5699C26.7815 16.1875 26.5019 15.8626 26.1236 15.8057L23.9637 15.481C23.701 14.0804 23.1504 12.7813 22.3753 11.6479L23.6734 9.89043C23.9007 9.58281 23.8688 9.15527 23.5982 8.88486L23.4009 8.6875C20.7738 9.65703 18.4017 11.153 16.4131 13.0481C17.923 13.8932 18.9442 15.5071 18.9442 17.3604Z" fill="#60B8FF"/>
<path d="M48.7512 26.867C48.2783 17.1649 40.2622 9.44397 30.4429 9.44397C20.6236 9.44397 12.6075 17.165 12.1346 26.867C12.12 27.1676 12.1125 45.2258 30.4429 45.2258C48.7733 45.2258 48.7658 27.1676 48.7512 26.867Z" fill="#FFE27A"/>
<path d="M30.4427 44.29C20.6233 44.29 12.6077 36.569 12.1348 26.8669C12.1201 27.1675 12.1123 27.4699 12.1123 27.7741C12.1123 37.8977 20.3191 46.1045 30.4427 46.1045C40.5662 46.1045 48.773 37.8976 48.773 27.7741C48.773 27.4698 48.7652 27.1675 48.7506 26.8669C48.2776 36.569 40.262 44.29 30.4427 44.29Z" fill="#F9CF58"/>
<path d="M44.6301 26.8669C44.4225 23.5703 43.0913 20.5787 41.0151 18.2706L39.9465 18.2838L39.946 17.2015C37.6027 15.0937 34.555 13.7539 31.1989 13.5779L30.4426 14.437L29.6869 13.5778C26.3305 13.7536 23.2824 15.0935 20.939 17.2015L20.9457 18.287L19.8699 18.2707C17.8881 20.4741 16.5851 23.3004 16.2902 26.4201C16.2481 26.8658 16.2266 27.3175 16.2266 27.7741C16.2266 35.6254 22.5913 41.1112 30.4426 41.1112C43.9449 41.1113 44.649 27.1669 44.6301 26.8669Z" fill="#FFF5F5"/>
<path d="M44.4251 28.5303C43.2152 35.1543 37.416 40.1757 30.4426 40.1757C22.8962 40.1757 16.7242 34.2953 16.2562 26.867C16.2372 27.1671 16.2266 27.4694 16.2266 27.7742C16.2266 35.372 22.1869 41.5776 29.6869 41.9705L30.4426 41.1113L31.1989 41.9704C34.555 41.7944 37.6027 40.4546 39.946 38.3468L39.9491 37.2776L41.015 37.2777C43.1228 34.9344 44.4626 31.8864 44.6386 28.5303H44.4251Z" fill="#EFE2DD"/>
<path d="M31.1986 13.5774V16.2761C31.1986 16.6934 30.86 17.0321 30.4426 17.0321C30.0242 17.0321 29.6865 16.6934 29.6865 16.2761V13.5774C29.9365 13.5653 30.1886 13.5583 30.4426 13.5583C30.6956 13.5583 30.9477 13.5653 31.1986 13.5774Z" fill="#CAC0C9"/>
<path d="M31.1986 39.2723V41.971C30.9477 41.9831 30.6956 41.9901 30.4426 41.9901C30.1886 41.9901 29.9365 41.9831 29.6865 41.971V39.2723C29.6865 38.8551 30.0242 38.5163 30.4426 38.5163C30.86 38.5163 31.1986 38.8551 31.1986 39.2723Z" fill="#CAC0C9"/>
<path d="M44.6393 28.5302H41.9406C41.5232 28.5302 41.1846 28.1916 41.1846 27.7742C41.1846 27.3568 41.5232 27.0181 41.9406 27.0181H44.6393V28.5302Z" fill="#CAC0C9"/>
<path d="M16.2461 27.0181H18.9438C19.3621 27.0181 19.6998 27.3568 19.6998 27.7742C19.6998 28.1916 19.3621 28.5302 18.9438 28.5302H16.2461V27.0181Z" fill="#CAC0C9"/>
<path d="M41.0148 37.2773C40.6792 37.6523 40.3222 38.0092 39.9463 38.3469L38.0389 36.4395C37.7435 36.1441 37.7435 35.6653 38.0389 35.37C38.3343 35.0746 38.8132 35.0746 39.1075 35.37L41.0148 37.2773Z" fill="#CAC0C9"/>
<path d="M22.846 20.1783C22.5517 20.4736 22.0728 20.4736 21.7774 20.1783L19.8701 18.271C20.2068 17.896 20.5637 17.5392 20.9387 17.2015L22.846 19.1088C23.1414 19.4042 23.1414 19.883 22.846 20.1783Z" fill="#CAC0C9"/>
<path d="M39.9462 17.2015L38.0389 19.1088C37.7435 19.4042 37.7435 19.883 38.0389 20.1783C38.3343 20.4737 38.8132 20.4737 39.1075 20.1783L41.0148 18.271L39.9462 17.2015Z" fill="#CAC0C9"/>
<path d="M30.4426 26.5899C30.025 26.5899 29.6865 26.2514 29.6865 25.8338V20.1619C29.6865 19.7444 30.025 19.4059 30.4426 19.4059C30.8602 19.4059 31.1986 19.7444 31.1986 20.1619V25.8338C31.1986 26.2515 30.8602 26.5899 30.4426 26.5899Z" fill="#7B7179"/>
<path d="M32.8408 26.5054C32.3855 25.6467 31.4825 25.0617 30.4429 25.0617C29.4032 25.0617 28.5002 25.6467 28.0449 26.5054C27.8441 26.884 28.1016 29.6077 30.4429 29.6077C32.8645 29.6078 33.0416 26.884 32.8408 26.5054Z" fill="#FF4755"/>
<path d="M30.443 27.9501C29.4033 27.9501 28.5014 27.3647 28.046 26.506C27.8452 26.8846 27.7305 27.3158 27.7305 27.7742C27.7305 29.2723 28.9449 30.4866 30.4429 30.4866C31.9409 30.4866 33.1553 29.2723 33.1553 27.7742C33.1553 27.3158 33.0405 26.8846 32.8397 26.506C32.3846 27.3647 31.4826 27.9501 30.443 27.9501Z" fill="#FC2B3A"/>
<path d="M27.3324 36.8663L25.353 36.5687C25.1123 35.2852 24.6077 34.0948 23.8974 33.056L25.087 31.4455C25.2952 31.1636 25.2659 30.7718 25.0182 30.5239L23.9937 29.4994C23.7458 29.2516 23.354 29.2223 23.0721 29.4306L21.4615 30.6202C20.4228 29.9099 19.2323 29.4054 17.9488 29.1645L17.6513 27.1851C17.5992 26.8386 17.3015 26.5822 16.951 26.5822H15.5021C15.1516 26.5822 14.8538 26.8386 14.8018 27.1851L14.5042 29.1645C13.2206 29.4053 12.0303 29.9099 10.9915 30.6202L9.38096 29.4306C9.09902 29.2224 8.70723 29.2516 8.45947 29.4994L7.43477 30.5239C7.18691 30.7718 7.15762 31.1636 7.36592 31.4455L8.55557 33.056C7.84522 34.0948 7.34072 35.2852 7.0999 36.5687L5.12051 36.8663C4.77393 36.9184 4.51758 37.2161 4.51758 37.5666V39.0155C4.51758 39.366 4.77393 39.6638 5.12051 39.7158L7.0999 40.0134C7.34062 41.2969 7.84522 42.4873 8.55557 43.5261L7.36592 45.1367C7.15772 45.4186 7.18701 45.8104 7.43477 46.0583L8.45928 47.0828C8.70713 47.3307 9.09893 47.3599 9.38076 47.1516L10.9913 45.962C12.0301 46.6724 13.2205 47.1768 14.504 47.4177L14.8016 49.3971C14.8536 49.7436 15.1515 50 15.5019 50H16.9508C17.3013 50 17.599 49.7436 17.6511 49.3971L17.9486 47.4177C19.2321 47.1769 20.4226 46.6724 21.4613 45.962L23.0719 47.1516C23.3538 47.3599 23.7456 47.3306 23.9935 47.0828L25.018 46.0583C25.2658 45.8104 25.2951 45.4186 25.0868 45.1367L23.8972 43.5262C24.6074 42.4874 25.112 41.297 25.3528 40.0135L27.3322 39.7159C27.6788 39.6639 27.9352 39.3661 27.9352 39.0156V37.5667C27.9354 37.2162 27.679 36.9184 27.3324 36.8663ZM16.2265 42.6342C12.7623 42.6342 12.8824 39.1986 12.8824 39.1986C12.8041 38.9094 12.7623 38.6052 12.7623 38.2911C12.7623 36.3779 14.3133 34.8269 16.2265 34.8269C18.1396 34.8269 19.6906 36.3779 19.6906 38.2911C19.6906 38.6051 19.6488 38.9094 19.5705 39.1986C19.5705 39.1986 19.6906 42.6342 16.2265 42.6342Z" fill="#FF4755"/>
<path d="M19.691 40.1057C19.691 39.7916 19.6484 39.4877 19.5701 39.1984C19.1713 40.6714 17.826 41.7553 16.2269 41.7553C14.6277 41.7553 13.2824 40.6714 12.8836 39.1984C12.8053 39.4877 12.7627 39.7917 12.7627 40.1057C12.7627 42.0188 14.3137 43.5698 16.2269 43.5698C18.14 43.5698 19.691 42.0188 19.691 40.1057Z" fill="#FC2B3A"/>
</svg>
