<svg width="18" height="14" viewBox="0 0 18 14" fill="none" xmlns="http://www.w3.org/2000/svg">
<path d="M16.02 5.13C16.02 5.13 14.43 1.02 13.86 0.69C12.99 0.15 10.17 0 9.00003 0C7.83003 0 5.01003 0.15 4.14003 0.69C3.57003 1.02 1.98003 5.13 1.98003 5.13H16.02Z" fill="#428BC1"/>
<path d="M1.14001 10.29V13.2C1.14001 13.53 1.38001 13.8 1.71001 13.8H2.85001C3.15001 13.8 3.42001 13.53 3.42001 13.2V10.26H1.14001V10.29ZM14.64 10.29V13.2C14.64 13.53 14.88 13.8 15.21 13.8H16.35C16.65 13.8 16.92 13.53 16.92 13.2V10.26H14.64V10.29Z" fill="#3E4347"/>
<path d="M17.55 10.35C17.4 10.65 16.98 10.89 16.62 10.89H1.38003C1.02003 10.89 0.630035 10.65 0.450035 10.35L0.390035 10.2C0.240035 9.90002 0.240035 9.54002 0.420035 9.39002C0.600035 9.24002 1.02003 9.09002 1.38003 9.09002H16.62C16.98 9.09002 17.4 9.21002 17.58 9.39002C17.76 9.54002 17.76 9.93002 17.61 10.2L17.55 10.35Z" fill="#428BC1"/>
<path d="M16.26 9.69001C16.41 9.84001 16.29 9.99001 15.99 9.99001H2.00999C1.70999 9.99001 1.58999 9.87001 1.73999 9.69001C1.88999 9.54001 2.24999 9.39001 2.54999 9.39001H15.45C15.75 9.39001 16.11 9.54001 16.26 9.69001Z" fill="#42ADE2"/>
<path d="M17.25 5.49C16.59 5.16 15.75 4.8 15.75 4.8H2.25C2.25 4.8 1.38 5.16 0.75 5.49C0.27 5.73 0 5.88 0 6.33L0.33 8.49C0.42 9 1.08 9.39 1.8 9.39H16.2C16.92 9.39 17.58 8.97 17.67 8.49L18 6.33C18 5.88 17.73 5.73 17.25 5.49Z" fill="#428BC1"/>
<path d="M14.88 4.32C14.88 4.32 13.92 1.5 13.41 1.2C12.63 0.749998 10.05 0.599998 9.00003 0.599998C7.95003 0.599998 5.37003 0.749998 4.59003 1.2C4.08003 1.5 3.12003 4.32 3.12003 4.32C3.00003 4.53 3.21003 4.71 3.57003 4.71H14.43C14.79 4.71 15 4.53 14.88 4.32Z" fill="#3E4347"/>
<path d="M12.03 4.64999C11.46 4.10999 10.8 4.10999 10.47 4.10999H7.53001C7.20001 4.10999 6.48001 4.10999 5.97001 4.64999L5.34001 5.27998H12.66L12.03 4.64999Z" fill="#42ADE2"/>
<path d="M11.58 5.03998C11.4 4.85998 11.31 4.70998 10.5 4.70998H7.25998C6.68998 4.70998 6.65998 4.85998 6.44998 5.03998C6.38998 5.09998 6.20998 5.30998 6.20998 5.30998H11.85L11.58 5.03998Z" fill="#3E4347"/>
<path d="M1.68003 10.86C1.68003 10.86 1.74003 11.34 1.80003 11.52C1.89003 11.82 2.31003 12.06 2.64003 12.06H15.36C15.69 12.06 16.11 11.85 16.2 11.52C16.26 11.37 16.32 10.86 16.32 10.86H1.68003Z" fill="#42ADE2"/>
<path d="M12.66 12.3C11.1 12.75 6.89997 12.75 5.33997 12.3C5.21997 12.27 5.06997 12.03 5.06997 12.03H12.93C12.93 12.03 12.78 12.27 12.66 12.3Z" fill="#3E4347"/>
<path d="M17.1 7.65003C16.98 8.28003 16.38 8.79003 15.75 8.79003H2.24997C1.61997 8.79003 1.01997 8.28003 0.899969 7.65003L0.779969 7.02003C0.659969 6.39003 1.07997 5.88003 1.67997 5.88003H16.32C16.95 5.88003 17.34 6.39003 17.22 7.02003L17.1 7.65003Z" fill="#42ADE2"/>
<path d="M7.17003 7.85997C6.90003 8.03997 6.45003 8.21997 6.12003 8.21997H1.98003C1.65003 8.21997 1.38003 7.94997 1.38003 7.61997V7.01997C1.38003 6.68997 1.65003 6.41997 1.98003 6.41997H6.09003C6.42003 6.41997 6.90003 6.56997 7.14003 6.77997L7.38003 6.95997C7.65003 7.13997 7.65003 7.46997 7.38003 7.64997L7.17003 7.85997Z" fill="#3E4347"/>
<path d="M2.82003 8.22003C3.28395 8.22003 3.66003 7.83052 3.66003 7.35003C3.66003 6.86954 3.28395 6.48003 2.82003 6.48003C2.35611 6.48003 1.98003 6.86954 1.98003 7.35003C1.98003 7.83052 2.35611 8.22003 2.82003 8.22003Z" fill="#F9F3D9"/>
<path d="M5.34001 8.22008C5.80393 8.22008 6.18002 7.83057 6.18002 7.35008C6.18002 6.86959 5.80393 6.48008 5.34001 6.48008C4.8761 6.48008 4.50002 6.86959 4.50002 7.35008C4.50002 7.83057 4.8761 8.22008 5.34001 8.22008Z" fill="#F9F3D9"/>
<path d="M10.83 7.85997C11.1 8.03997 11.55 8.21997 11.88 8.21997H15.99C16.32 8.21997 16.59 7.94997 16.59 7.61997V7.01997C16.59 6.68997 16.32 6.41997 15.99 6.41997H11.88C11.55 6.41997 11.07 6.56997 10.83 6.77997L10.59 6.95997C10.32 7.13997 10.32 7.46997 10.59 7.64997L10.83 7.85997Z" fill="#3E4347"/>
<path d="M15.18 8.22008C15.6439 8.22008 16.02 7.83057 16.02 7.35008C16.02 6.86959 15.6439 6.48008 15.18 6.48008C14.716 6.48008 14.34 6.86959 14.34 7.35008C14.34 7.83057 14.716 8.22008 15.18 8.22008Z" fill="#F9F3D9"/>
<path d="M12.66 8.22003C13.1239 8.22003 13.5 7.83052 13.5 7.35003C13.5 6.86954 13.1239 6.48003 12.66 6.48003C12.196 6.48003 11.82 6.86954 11.82 7.35003C11.82 7.83052 12.196 8.22003 12.66 8.22003Z" fill="#F9F3D9"/>
<path d="M2.25002 4.70999C2.28002 4.85999 2.19002 5.00999 2.01002 5.00999H1.05002C0.900016 5.00999 0.720016 4.88999 0.690016 4.70999L0.570016 4.10999C0.540016 3.95999 0.630016 3.80999 0.810016 3.80999H1.74002C1.92002 3.80999 2.07002 3.92999 2.10002 4.10999L2.25002 4.70999ZM15.75 4.70999C15.72 4.85999 15.81 5.00999 15.99 5.00999H16.92C17.07 5.00999 17.25 4.88999 17.28 4.70999L17.4 4.10999C17.43 3.95999 17.34 3.80999 17.16 3.80999H16.23C16.08 3.80999 15.9 3.92999 15.87 4.10999L15.75 4.70999Z" fill="#428BC1"/>
<path d="M10.98 5.88003H7.01997L7.58997 5.28003H10.41L10.98 5.88003ZM7.01997 10.86H10.95V12.03H7.01997V10.86Z" fill="#B4D7EE"/>
<path d="M8.64001 5.28003H9.21002V5.88003H8.64001V5.28003ZM8.64001 10.86H9.21002V12.03H8.64001V10.86Z" fill="#428BC1"/>
</svg>
