<svg width="18" height="17" viewBox="0 0 18 17" fill="none" xmlns="http://www.w3.org/2000/svg">
<path d="M8.17023 5.08159C7.68252 4.90126 7.2603 4.56718 6.96174 4.1254C6.66319 3.68361 6.50302 3.15586 6.50329 2.61488C6.50329 1.92137 6.76672 1.25627 7.23564 0.765881C7.70456 0.275496 8.34055 0 9.00371 0C9.66686 0 10.3028 0.275496 10.7718 0.765881C11.2407 1.25627 11.5041 1.92137 11.5041 2.61488C11.5041 3.75671 10.804 4.72422 9.83718 5.08159V7.53086C9.2923 7.36901 8.71511 7.36901 8.17023 7.53086V5.08159ZM14.2546 16.6481C13.8052 16.3804 13.4466 15.9731 13.2286 15.4827C13.0105 14.9923 12.9438 14.443 13.0377 13.9112L11.004 12.6822C11.4041 12.2812 11.7042 11.767 11.8375 11.1743L13.8712 12.4033C14.6546 11.6972 15.8048 11.5578 16.7467 12.1243C17.9469 12.8478 18.3553 14.4429 17.6635 15.6893C17.5005 15.987 17.2828 16.2481 17.023 16.4575C16.7632 16.667 16.4664 16.8207 16.1496 16.9098C15.8328 16.9989 15.5023 17.0216 15.1771 16.9767C14.8519 16.9318 14.5384 16.8201 14.2546 16.6481ZM1.25241 12.1156C2.19424 11.5491 3.34443 11.6972 4.12789 12.3945L6.1699 11.1655C6.30325 11.767 6.59497 12.2725 7.00337 12.6735L4.96136 13.9025C5.15306 14.9658 4.69465 16.0815 3.75283 16.6481C2.55263 17.3715 1.02737 16.9444 0.335592 15.6893C0.171118 15.3918 0.0643595 15.0632 0.0214249 14.7225C-0.0215096 14.3818 0.000222878 14.0356 0.0853788 13.7036C0.170535 13.3717 0.317442 13.0606 0.517696 12.7881C0.717949 12.5156 0.967616 12.2871 1.25241 12.1156ZM10.6706 10.4595C10.6706 10.9219 10.495 11.3653 10.1824 11.6922C9.8698 12.0191 9.44581 12.2028 9.00371 12.2028C8.5616 12.2028 8.13761 12.0191 7.825 11.6922C7.51238 11.3653 7.33676 10.9219 7.33676 10.4595C7.33676 9.99719 7.51238 9.55378 7.825 9.22686C8.13761 8.89993 8.5616 8.71627 9.00371 8.71627C9.44581 8.71627 9.8698 8.89993 10.1824 9.22686C10.495 9.55378 10.6706 9.99719 10.6706 10.4595ZM13.1711 10.4595L13.1461 10.9564L11.9209 10.2068C11.8375 9.27411 11.3624 8.4635 10.6706 7.94924V6.45876C12.1459 7.13863 13.1711 8.67269 13.1711 10.4595ZM11.4791 13.9722C10.7873 14.5039 9.92886 14.8177 9.00371 14.8177C8.07855 14.8177 7.22007 14.5039 6.52829 13.946L7.7535 13.2226C8.13689 13.4056 8.56196 13.5102 9.00371 13.5102C9.44545 13.5102 9.86218 13.4056 10.2539 13.2226L11.4791 13.9722ZM4.86135 10.9476L4.83634 10.4595C4.83634 8.67269 5.86151 7.13863 7.33676 6.46747V7.95796C6.64498 8.4635 6.1699 9.27411 6.08655 10.198L4.86135 10.9476Z" fill="#8B8B8C"/>
</svg>
