<svg width="21" height="21" viewBox="0 0 21 21" fill="none" xmlns="http://www.w3.org/2000/svg">
<path d="M6.60704 13.6777C6.80739 13.878 7.04333 13.9782 7.31486 13.9782C7.58545 13.9782 7.82091 13.878 8.02126 13.6777L10.1426 11.5563L12.2816 13.6953C12.4819 13.8957 12.7148 13.9928 12.9802 13.9867C13.2451 13.981 13.4778 13.878 13.6781 13.6777C13.8785 13.4773 13.9786 13.2414 13.9786 12.9699C13.9786 12.6993 13.8785 12.4638 13.6781 12.2635L11.5568 10.1421L13.6958 8.00314C13.8961 7.80279 13.9935 7.57015 13.9878 7.30522C13.9817 7.03982 13.8785 6.80695 13.6781 6.6066C13.4778 6.40625 13.2423 6.30608 12.9717 6.30608C12.7002 6.30608 12.4642 6.40625 12.2639 6.6066L10.1426 8.72792L8.00358 6.58892C7.80323 6.38858 7.5706 6.29123 7.30567 6.29689C7.04026 6.30302 6.80739 6.40625 6.60704 6.6066C6.4067 6.80695 6.30652 7.04241 6.30652 7.313C6.30652 7.58453 6.4067 7.82047 6.60704 8.02082L8.72836 10.1421L6.58937 12.2811C6.38902 12.4815 6.29191 12.7144 6.29804 12.9798C6.3037 13.2447 6.4067 13.4773 6.60704 13.6777ZM3.07151 17.2132C2.09335 16.235 1.35984 15.1301 0.870995 13.8983C0.381676 12.667 0.137017 11.4149 0.137017 10.1421C0.137017 8.86934 0.381676 7.61729 0.870995 6.38598C1.35984 5.1542 2.09335 4.04923 3.07151 3.07107C4.04967 2.0929 5.15465 1.3594 6.38643 0.870552C7.61774 0.381234 8.86979 0.136575 10.1426 0.136575C11.4154 0.136575 12.6677 0.380998 13.8994 0.869845C15.1307 1.35916 16.2355 2.0929 17.2136 3.07107C18.1918 4.04923 18.9256 5.15397 19.4149 6.38528C19.9037 7.61706 20.1481 8.86934 20.1481 10.1421C20.1481 11.4149 19.9035 12.667 19.4142 13.8983C18.9253 15.1301 18.1918 16.235 17.2136 17.2132C16.2355 18.1914 15.1305 18.9249 13.8987 19.4137C12.6674 19.903 11.4154 20.1477 10.1426 20.1477C8.86979 20.1477 7.61774 19.903 6.38643 19.4137C5.15465 18.9249 4.04967 18.1914 3.07151 17.2132Z" fill="#F00020"/>
</svg>
