<svg width="27" height="25" viewBox="0 0 27 25" fill="none" xmlns="http://www.w3.org/2000/svg">
<path d="M1.224 22H15.7857C16.4552 22 17 21.4712 17 20.8214V5.89286C17 5.87479 16.9919 5.85907 16.9895 5.84179C16.9872 5.82532 16.9837 5.80903 16.979 5.79307C16.9631 5.7261 16.929 5.6645 16.8802 5.61471L11.2143 0.1155C11.1501 0.0566335 11.0681 0.0194346 10.9804 0.00942857C10.9634 0.00785714 10.9472 0 10.9286 0H1.21914C0.547238 0 0 0.528786 0 1.17857V20.8214C0 21.4712 0.548857 22 1.224 22ZM11.3333 1.34121L15.6181 5.5H11.7381C11.6307 5.5 11.5278 5.45861 11.4519 5.38493C11.376 5.31126 11.3333 5.21133 11.3333 5.10714V1.34121ZM0.809524 1.17857C0.809524 0.961714 0.993286 0.785714 1.21914 0.785714H10.5238V5.10714C10.5238 5.75693 11.0686 6.28571 11.7381 6.28571H16.1905V20.8214C16.1905 20.9256 16.1478 21.0255 16.0719 21.0992C15.996 21.1729 15.8931 21.2143 15.7857 21.2143H1.224C1.17021 21.2149 1.11681 21.2052 1.06687 21.1858C1.01693 21.1664 0.971413 21.1377 0.932925 21.1012C0.894436 21.0647 0.863729 21.0212 0.842555 20.9732C0.821382 20.9252 0.810158 20.8736 0.809524 20.8214V1.17857Z" fill="#4C5EFE"/>
<path d="M3.42308 9.11765H13.5769C13.6891 9.11765 13.7967 9.07427 13.8761 8.99704C13.9554 8.91982 14 8.81509 14 8.70588C14 8.59668 13.9554 8.49194 13.8761 8.41472C13.7967 8.3375 13.6891 8.29412 13.5769 8.29412H3.42308C3.31087 8.29412 3.20326 8.3375 3.12392 8.41472C3.04457 8.49194 3 8.59668 3 8.70588C3 8.81509 3.04457 8.91982 3.12392 8.99704C3.20326 9.07427 3.31087 9.11765 3.42308 9.11765ZM3.42308 12.4118H13.5769C13.6891 12.4118 13.7967 12.3684 13.8761 12.2912C13.9554 12.2139 14 12.1092 14 12C14 11.8908 13.9554 11.7861 13.8761 11.7088C13.7967 11.6316 13.6891 11.5882 13.5769 11.5882H3.42308C3.31087 11.5882 3.20326 11.6316 3.12392 11.7088C3.04457 11.7861 3 11.8908 3 12C3 12.1092 3.04457 12.2139 3.12392 12.2912C3.20326 12.3684 3.31087 12.4118 3.42308 12.4118ZM3.42308 5.82353H7.65385C7.76605 5.82353 7.87366 5.78015 7.95301 5.70293C8.03235 5.62571 8.07692 5.52097 8.07692 5.41176C8.07692 5.30256 8.03235 5.19782 7.95301 5.1206C7.87366 5.04338 7.76605 5 7.65385 5H3.42308C3.31087 5 3.20326 5.04338 3.12392 5.1206C3.04457 5.19782 3 5.30256 3 5.41176C3 5.52097 3.04457 5.62571 3.12392 5.70293C3.20326 5.78015 3.31087 5.82353 3.42308 5.82353ZM3.42308 15.7059H13.5769C13.6891 15.7059 13.7967 15.6625 13.8761 15.5853C13.9554 15.5081 14 15.4033 14 15.2941C14 15.1849 13.9554 15.0802 13.8761 15.003C13.7967 14.9257 13.6891 14.8824 13.5769 14.8824H3.42308C3.31087 14.8824 3.20326 14.9257 3.12392 15.003C3.04457 15.0802 3 15.1849 3 15.2941C3 15.4033 3.04457 15.5081 3.12392 15.5853C3.20326 15.6625 3.31087 15.7059 3.42308 15.7059ZM3.42308 19H13.5769C13.6891 19 13.7967 18.9566 13.8761 18.8794C13.9554 18.8022 14 18.6974 14 18.5882C14 18.479 13.9554 18.3743 13.8761 18.2971C13.7967 18.2199 13.6891 18.1765 13.5769 18.1765H3.42308C3.31087 18.1765 3.20326 18.2199 3.12392 18.2971C3.04457 18.3743 3 18.479 3 18.5882C3 18.6974 3.04457 18.8022 3.12392 18.8794C3.20326 18.9566 3.31087 19 3.42308 19Z" fill="#4C5EFE"/>
<path d="M16.881 3.78571H20.5238V8.10714C20.5238 8.75693 21.0686 9.28571 21.7381 9.28571H26.1905V23.8214C26.1905 23.9256 26.1478 24.0255 26.0719 24.0992C25.996 24.1729 25.8931 24.2143 25.7857 24.2143H11.224C11.1702 24.2149 11.1168 24.2052 11.0669 24.1858C11.0169 24.1664 10.9714 24.1377 10.9329 24.1012C10.8944 24.0647 10.8637 24.0212 10.8426 23.9732C10.8214 23.9252 10.8102 23.8736 10.8095 23.8214V23.0357C10.8095 22.9315 10.7669 22.8316 10.691 22.7579C10.6151 22.6842 10.5121 22.6429 10.4048 22.6429C10.2974 22.6429 10.1945 22.6842 10.1186 22.7579C10.0426 22.8316 10 22.9315 10 23.0357V23.8214C10 24.4712 10.5489 25 11.224 25H25.7857C26.4552 25 27 24.4712 27 23.8214V8.89286C27 8.87479 26.9919 8.85907 26.9895 8.84179C26.9872 8.82532 26.9837 8.80903 26.979 8.79307C26.9631 8.7261 26.929 8.6645 26.8802 8.61471L21.2143 3.1155C21.1506 3.05614 21.0683 3.0191 20.9804 3.01021C20.9634 3.00786 20.9472 3 20.9286 3H16.881C16.7736 3 16.6707 3.04139 16.5947 3.11507C16.5188 3.18874 16.4762 3.28866 16.4762 3.39286C16.4762 3.49705 16.5188 3.59697 16.5947 3.67065C16.6707 3.74432 16.7736 3.78571 16.881 3.78571ZM21.7381 8.5C21.6307 8.5 21.5278 8.45861 21.4519 8.38493C21.376 8.31126 21.3333 8.21133 21.3333 8.10714V4.34121L25.6181 8.5H21.7381Z" fill="#4C5EFE"/>
<path d="M18.4286 11.8462H23.5714C23.6851 11.8462 23.7941 11.8016 23.8745 11.7222C23.9548 11.6429 24 11.5353 24 11.4231C24 11.3109 23.9548 11.2033 23.8745 11.1239C23.7941 11.0446 23.6851 11 23.5714 11H18.4286C18.3149 11 18.2059 11.0446 18.1255 11.1239C18.0452 11.2033 18 11.3109 18 11.4231C18 11.5353 18.0452 11.6429 18.1255 11.7222C18.2059 11.8016 18.3149 11.8462 18.4286 11.8462ZM18.4286 15.2308H23.5714C23.6851 15.2308 23.7941 15.1862 23.8745 15.1069C23.9548 15.0275 24 14.9199 24 14.8077C24 14.6955 23.9548 14.5879 23.8745 14.5085C23.7941 14.4292 23.6851 14.3846 23.5714 14.3846H18.4286C18.3149 14.3846 18.2059 14.4292 18.1255 14.5085C18.0452 14.5879 18 14.6955 18 14.8077C18 14.9199 18.0452 15.0275 18.1255 15.1069C18.2059 15.1862 18.3149 15.2308 18.4286 15.2308ZM18.4286 18.6154H23.5714C23.6851 18.6154 23.7941 18.5708 23.8745 18.4915C23.9548 18.4121 24 18.3045 24 18.1923C24 18.0801 23.9548 17.9725 23.8745 17.8931C23.7941 17.8138 23.6851 17.7692 23.5714 17.7692H18.4286C18.3149 17.7692 18.2059 17.8138 18.1255 17.8931C18.0452 17.9725 18 18.0801 18 18.1923C18 18.3045 18.0452 18.4121 18.1255 18.4915C18.2059 18.5708 18.3149 18.6154 18.4286 18.6154ZM18.4286 22H23.5714C23.6851 22 23.7941 21.9554 23.8745 21.8761C23.9548 21.7967 24 21.6891 24 21.5769C24 21.4647 23.9548 21.3571 23.8745 21.2778C23.7941 21.1984 23.6851 21.1538 23.5714 21.1538H18.4286C18.3149 21.1538 18.2059 21.1984 18.1255 21.2778C18.0452 21.3571 18 21.4647 18 21.5769C18 21.6891 18.0452 21.7967 18.1255 21.8761C18.2059 21.9554 18.3149 22 18.4286 22Z" fill="#4C5EFE"/>
</svg>
