<svg width="20" height="12" viewBox="0 0 20 12" fill="none" xmlns="http://www.w3.org/2000/svg">
<path d="M0 10V11.498C0 11.775 0.225 12 0.502 12H1.499C1.63197 11.9997 1.75939 11.9467 1.85332 11.8526C1.94725 11.7585 2 11.631 2 11.498V10C2 9.041 2.801 7.727 4 7.221V5.116C1.684 5.652 0 7.97 0 10ZM12.065 0.701L9.535 2.599C9.188 2.859 8.766 3 8.332 3H6.005C5.45 3 5 3.45 5 4.005V7.996C5 8.55 5.45 9 6.005 9H8.332C8.766 9 9.188 9.141 9.535 9.401L12.066 11.299C12.6723 11.754 13.4099 12 14.168 12H16V0H14.168C13.41 0 12.672 0.246 12.065 0.701ZM17 2V4H20V2H17ZM17 10H20V8H17V10Z" fill="#FF9800"/>
</svg>
