<svg width="50" height="42" viewBox="0 0 50 42" fill="none" xmlns="http://www.w3.org/2000/svg">
<path fill-rule="evenodd" clip-rule="evenodd" d="M34.6963 35.5992C35.017 35.9199 35.017 36.4399 34.6963 36.7605C34.3756 37.0812 33.8556 37.0812 33.535 36.7605L22.431 25.6566C22.1103 25.3359 22.1103 24.8159 22.431 24.4953C22.7517 24.1746 23.2717 24.1746 23.5923 24.4953L34.6963 35.5992ZM33.5269 4.56331C33.8476 4.2426 34.3676 4.2426 34.6882 4.56331C35.0088 4.88402 35.0089 5.40399 34.6882 5.7246L23.5843 16.8287C23.2636 17.1494 22.7436 17.1494 22.423 16.8287C22.1023 16.508 22.1023 15.988 22.423 15.6674L33.5269 4.56331ZM2.49102 5.73281C2.17031 5.4121 2.17031 4.89213 2.49102 4.57152C2.81173 4.25082 3.3317 4.25082 3.65231 4.57152L14.7563 15.6754C15.077 15.9961 15.077 16.5161 14.7563 16.8367C14.4356 17.1574 13.9156 17.1574 13.595 16.8367L2.49102 5.73281ZM3.66042 36.7687C3.33971 37.0894 2.81974 37.0894 2.49913 36.7687C2.17842 36.448 2.17842 35.928 2.49913 35.6074L13.603 24.5034C13.9237 24.1827 14.4437 24.1827 14.7643 24.5034C15.085 24.8241 15.085 25.3441 14.7643 25.6647L3.66042 36.7687Z" fill="#9FACBA"/>
<path d="M35.7722 6.81592C36.6942 5.89396 36.6942 4.39917 35.7722 3.47722C34.8503 2.55526 33.3555 2.55526 32.4335 3.47722C31.5116 4.39917 31.5116 5.89396 32.4335 6.81592C33.3555 7.73787 34.8503 7.73787 35.7722 6.81592Z" fill="#8AC9FE"/>
<path fill-rule="evenodd" clip-rule="evenodd" d="M34.1078 2.78279C35.4118 2.78279 36.4689 3.83987 36.4689 5.14396C36.4689 6.44805 35.4118 7.50514 34.1078 7.50514C33.9681 7.50514 33.8313 7.49292 33.6982 7.46962C34.8071 7.27579 35.65 6.30833 35.65 5.14396C35.65 3.97959 34.8072 3.01213 33.6982 2.81821C33.8313 2.795 33.968 2.78279 34.1078 2.78279Z" fill="#60B7FF"/>
<path d="M3.07162 7.51334C4.37566 7.51334 5.4328 6.45621 5.4328 5.15217C5.4328 3.84813 4.37566 2.791 3.07162 2.791C1.76758 2.791 0.710449 3.84813 0.710449 5.15217C0.710449 6.45621 1.76758 7.51334 3.07162 7.51334Z" fill="#8AC9FE"/>
<path fill-rule="evenodd" clip-rule="evenodd" d="M3.07162 2.791C4.37571 2.791 5.43279 3.84808 5.43279 5.15217C5.43279 6.45626 4.37571 7.51334 3.07162 7.51334C2.932 7.51334 2.79516 7.50113 2.66211 7.47782C3.77094 7.284 4.61388 6.31654 4.61388 5.15217C4.61388 3.9878 3.77104 3.02034 2.66211 2.82641C2.79516 2.80321 2.932 2.791 3.07162 2.791Z" fill="#60B7FF"/>
<path d="M5.26778 37.1051C5.76723 35.9002 5.19532 34.5185 3.99038 34.019C2.78545 33.5196 1.40378 34.0915 0.90433 35.2964C0.404882 36.5014 0.976791 37.883 2.18172 38.3825C3.38666 38.8819 4.76833 38.31 5.26778 37.1051Z" fill="#8AC9FE"/>
<path fill-rule="evenodd" clip-rule="evenodd" d="M3.07992 33.8269C4.38401 33.8269 5.44109 34.884 5.44109 36.1881C5.44109 37.4922 4.38401 38.5492 3.07992 38.5492C2.9403 38.5492 2.80346 38.537 2.67041 38.5138C3.77924 38.32 4.62218 37.3525 4.62218 36.1881C4.62218 35.0236 3.77934 34.0562 2.67041 33.8623C2.80346 33.8391 2.9402 33.8269 3.07992 33.8269Z" fill="#60B7FF"/>
<path d="M34.1156 38.5411C35.4196 38.5411 36.4767 37.484 36.4767 36.1799C36.4767 34.8759 35.4196 33.8188 34.1156 33.8188C32.8115 33.8188 31.7544 34.8759 31.7544 36.1799C31.7544 37.484 32.8115 38.5411 34.1156 38.5411Z" fill="#8AC9FE"/>
<path fill-rule="evenodd" clip-rule="evenodd" d="M34.1156 33.8187C35.4196 33.8187 36.4767 34.8758 36.4767 36.1798C36.4767 37.4839 35.4195 38.541 34.1156 38.541C33.9759 38.541 33.8391 38.5288 33.7061 38.5055C34.8149 38.3117 35.6578 37.3442 35.6578 36.1797C35.6578 35.0154 34.815 34.0479 33.7061 33.8541C33.8391 33.8309 33.9759 33.8187 34.1156 33.8187Z" fill="#60B7FF"/>
<path fill-rule="evenodd" clip-rule="evenodd" d="M21.7072 7.62064C23.0878 7.94915 24.4064 8.49653 25.6149 9.24061L28.154 8.11289L31.1468 11.1056L30.0194 13.6441C30.7638 14.8527 31.311 16.1718 31.6397 17.5528L34.2303 18.5499V22.7822L31.639 23.7797C31.3104 25.1604 30.763 26.4789 30.0191 27.6873L31.1468 30.2265L28.154 33.2193L25.6157 32.0917C24.4071 32.8361 23.0879 33.3835 21.707 33.712L20.7099 36.3026H16.4775L15.4801 33.7114C14.0994 33.3829 12.781 32.8355 11.5724 32.0914L9.03326 33.2192L6.04052 30.2265L7.16793 27.688C6.42354 26.4794 5.87626 25.1603 5.54765 23.7794L2.95703 22.7822V18.5499L5.54796 17.5526C5.87657 16.1719 6.42395 14.853 7.16813 13.6446L6.04052 11.1056L9.03326 8.11289L11.5724 9.24061C12.7808 8.49653 14.0995 7.94915 15.4801 7.62064L16.4775 5.0294H20.7098L21.7072 7.62064Z" fill="#FDC202"/>
<path fill-rule="evenodd" clip-rule="evenodd" d="M11.5724 32.0915L9.03322 33.2192L8.64219 32.8282L11.0229 31.7709C11.2037 31.8821 11.3869 31.989 11.5724 32.0915ZM21.7071 7.62065C23.0877 7.94916 24.4063 8.49655 25.6147 9.24062L24.8929 9.56113C23.6845 8.81705 21.8163 7.94916 20.4357 7.62065L19.4384 5.02942H20.7096L21.7071 7.62065ZM25.6155 32.0918C24.4069 32.8361 23.0878 33.3835 21.7069 33.712L20.7097 36.3027H19.4384L20.4355 33.712C21.8165 33.3835 23.685 32.5155 24.8936 31.7712L25.6155 32.0918ZM8.64209 8.50383L9.03312 8.11291L11.5723 9.24062C11.3868 9.34298 11.2036 9.44984 11.0228 9.56113L8.64209 8.50383ZM27.2736 8.50383L28.1539 8.11291L31.1466 11.1056L30.0192 13.6441C30.7636 14.8527 31.3109 16.1718 31.6395 17.5528L34.2301 18.5499V22.7823L31.6389 23.7797C31.3103 25.1604 30.7629 26.4789 30.0189 27.6873L31.1466 30.2265L28.1539 33.2193L27.2736 32.8283L29.8753 30.2265L28.7475 27.6873C29.4916 26.4789 30.0389 25.1604 30.3675 23.7797L32.9587 22.7823V18.5499L30.3681 17.5528C30.0395 16.1718 29.4921 14.8526 28.7478 13.6441L29.8752 11.1056L27.2736 8.50383Z" fill="#F0A70A"/>
<path d="M20.0453 27.9197C24.044 27.1208 26.638 23.2314 25.839 19.2326C25.0401 15.2338 21.1508 12.6398 17.152 13.4387C13.1533 14.2377 10.5593 18.127 11.3582 22.1258C12.1572 26.1246 16.0465 28.7186 20.0453 27.9197Z" fill="#ECEFF1"/>
<path fill-rule="evenodd" clip-rule="evenodd" d="M18.5935 13.2853C14.517 13.2853 11.2129 16.5894 11.2129 20.666C11.2129 24.7426 14.517 28.0467 18.5935 28.0467C18.7911 28.0467 18.9869 28.0387 19.1806 28.0235C15.3786 27.7243 12.387 24.5449 12.387 20.666C12.387 16.787 15.3786 13.6077 19.1806 13.3085C18.9869 13.2933 18.7911 13.2853 18.5935 13.2853Z" fill="#D1D1D6"/>
<path fill-rule="evenodd" clip-rule="evenodd" d="M18.5937 18.6676C17.4898 18.6676 16.5952 19.5622 16.5952 20.6661C16.5952 21.7699 17.4899 22.6646 18.5937 22.6646C19.6976 22.6646 20.5922 21.7699 20.5922 20.6661C20.5923 19.5622 19.6976 18.6676 18.5937 18.6676Z" fill="#FDC202"/>
<path fill-rule="evenodd" clip-rule="evenodd" d="M18.5937 18.6676C17.4899 18.6676 16.5952 19.5622 16.5952 20.666C16.5952 21.7699 17.4899 22.6646 18.5937 22.6646C18.7404 22.6646 18.8833 22.6487 19.021 22.6187C18.1225 22.4231 17.4498 21.6232 17.4498 20.666C17.4498 19.7089 18.1225 18.9091 19.021 18.7134C18.8834 18.6835 18.7404 18.6676 18.5937 18.6676Z" fill="#F0A70A"/>
<path fill-rule="evenodd" clip-rule="evenodd" d="M46.5104 32.3733V10.3321C48.5605 9.47067 50.0002 7.44396 50.0001 5.08094C50.0002 2.86174 48.7305 0.939439 46.878 0L46.8781 5.72441L44.3067 7.20897L41.7354 5.72431V0C39.8829 0.939337 38.6133 2.86174 38.6133 5.08084C38.6132 7.44386 40.053 9.47067 42.1031 10.332V32.3732C40.4792 33.1834 39.3636 34.8607 39.3636 36.7988C39.3636 39.5288 41.5767 41.742 44.3067 41.742C47.0367 41.742 49.2499 39.5288 49.2499 36.7988C49.2498 34.8608 48.1342 33.1835 46.5104 32.3733Z" fill="#9FACBA"/>
<path fill-rule="evenodd" clip-rule="evenodd" d="M44.3065 7.20908L41.7352 5.72441V0.000102997C41.3809 0.179758 41.0481 0.395445 40.7412 0.642239V5.72451L43.8095 7.49611L44.3065 7.20908Z" fill="#8D9CA8"/>
<path fill-rule="evenodd" clip-rule="evenodd" d="M46.5102 32.3733V10.3321C48.5604 9.47067 50.0001 7.44396 50 5.08094C50.0001 2.86174 48.7304 0.939439 46.8779 0V0.642137C48.1755 1.68567 49.0061 3.28614 49.006 5.08094C49.0061 7.44396 47.5664 9.47067 45.5163 10.3321V32.3733C47.1402 33.1835 48.2558 34.8608 48.2558 36.7988C48.2558 39.3611 46.3062 41.4679 43.8096 41.7171C43.973 41.7334 44.1388 41.7419 44.3065 41.7419C47.0366 41.7419 49.2497 39.5287 49.2497 36.7987C49.2496 34.8608 48.134 33.1835 46.5102 32.3733Z" fill="#8D9CA8"/>
<path fill-rule="evenodd" clip-rule="evenodd" d="M44.3066 39.4455L46.5987 38.1222V35.4756L44.3066 34.1523L42.0146 35.4756V38.1222L44.3066 39.4455Z" fill="#ECEFF1"/>
<path fill-rule="evenodd" clip-rule="evenodd" d="M46.5987 35.4756L44.3066 34.1523L42.0146 35.4756V38.1222L42.6515 38.4899V35.8433L44.9436 34.5201L46.5987 35.4756Z" fill="#D1D1D6"/>
</svg>
