<svg width="50" height="50" viewBox="0 0 50 50" fill="none" xmlns="http://www.w3.org/2000/svg">
<path d="M45.5858 20.3913L49.5477 14.5562C48.9795 12.0216 47.8956 9.68242 46.4118 7.65371L28.5009 7.27148L16.522 7.33252C14.1209 10.472 12.6934 14.3957 12.6934 18.6534C12.6934 28.9554 21.0448 37.3068 31.3468 37.3068C35.4787 37.3068 39.2962 35.9624 42.3876 33.6885L45.5858 20.3913Z" fill="#B7EFFF"/>
<path d="M43.2599 30.0618C40.12 34.1178 35.3454 36.8442 29.9238 37.2532C30.3936 37.2887 30.8681 37.3068 31.3468 37.3068C35.4787 37.3068 39.2962 35.9624 42.3876 33.6885L43.2599 30.0618Z" fill="#99E6FC"/>
<path d="M49.5476 14.5562C48.9794 12.0216 47.8955 9.68242 46.4117 7.65371L43.522 7.59209C45.7018 10.5473 47.0295 14.1688 47.145 18.0947L49.5476 14.5562Z" fill="#99E6FC"/>
<path d="M45.487 8.81816C45.8422 8.43193 46.1486 8.04336 46.4118 7.65371C43.0186 3.01426 37.5352 0 31.3468 0C25.3024 0 19.9307 2.87568 16.522 7.33252C17.0444 9.55371 18.122 12.1877 20.2938 12.1741C24.0458 12.1506 26.143 9.32305 30.211 10.7079C34.2791 12.0928 38.4476 16.4728 45.487 8.81816Z" fill="#5DE1C4"/>
<path d="M44.7848 9.55088C45.0157 9.31953 45.2495 9.07627 45.4869 8.81816C45.8421 8.43193 46.1485 8.04336 46.4117 7.65371C43.0185 3.01426 37.5351 0 31.3467 0C30.8724 0 30.4028 0.0197266 29.9375 0.0544922C36.3257 0.541113 41.8131 4.24609 44.7848 9.55088Z" fill="#0ED2B3"/>
<path d="M49.5475 14.5562C47.4583 14.4728 44.8654 14.805 43.4363 16.637C40.7827 20.0391 43.0281 21.0597 40.5446 24.0535C39.3672 25.4729 38.8794 30.6329 42.3874 33.6884C47.0036 30.2929 50 24.8234 50 18.6534C50 17.2457 49.8431 15.8747 49.5475 14.5562Z" fill="#5DE1C4"/>
<path d="M49.5475 14.5562C48.6616 14.5208 47.6853 14.5608 46.7454 14.7576C47.0124 16.0143 47.1541 17.3172 47.1541 18.6534C47.1541 24.0632 44.8503 28.9342 41.1714 32.3413C41.5087 32.8193 41.9109 33.2734 42.3874 33.6884C47.0036 30.2929 50 24.8234 50 18.6534C50 17.2457 49.8431 15.8747 49.5475 14.5562Z" fill="#0ED2B3"/>
<path d="M45.2831 23.89C44.8999 23.89 44.5719 23.5994 44.5332 23.2102C43.8197 16.0412 40.6393 11.9145 38.0968 9.71504C35.3608 7.34815 32.8026 6.65752 32.777 6.65078C32.374 6.54492 32.1329 6.13252 32.2388 5.72939C32.3447 5.32627 32.757 5.08535 33.1602 5.19121C33.2782 5.22217 36.0859 5.97988 39.0842 8.57383C41.8341 10.9527 45.2722 15.3972 46.0349 23.0606C46.0762 23.4753 45.7735 23.8449 45.3588 23.8862C45.3333 23.8888 45.308 23.89 45.2831 23.89Z" fill="#FF6470"/>
<path d="M30.5868 6.42627C30.484 6.42627 30.3794 6.40517 30.2794 6.36045C29.8989 6.19053 29.7283 5.74424 29.8984 5.36377L30.4253 4.18437C30.5953 3.8039 31.0414 3.6332 31.422 3.80332C31.8025 3.97324 31.9731 4.41953 31.803 4.8L31.2761 5.97939C31.1508 6.25986 30.8754 6.42627 30.5868 6.42627Z" fill="#574D56"/>
<path d="M46.3114 26.1013H44.86C44.4432 26.1013 44.1055 25.7635 44.1055 25.3468C44.1055 24.93 44.4433 24.5923 44.86 24.5923H46.3114C46.7282 24.5923 47.0659 24.9301 47.0659 25.3468C47.0659 25.7635 46.7282 26.1013 46.3114 26.1013Z" fill="#574D56"/>
<path d="M21.3937 17.1566C22.2338 15.4517 24.1656 14.572 25.9748 15.1546C26.7462 15.403 27.5674 15.7972 28.382 16.4081C31.5717 18.8005 33.1002 21.5915 32.5021 23.5852C31.904 25.5788 21.8695 28.1684 19.2778 23.2187C17.1528 19.1602 20.1369 19.7072 21.3937 17.1566Z" fill="#5DE1C4"/>
<path d="M28.3822 16.4081C27.5678 15.7973 26.7465 15.403 25.9751 15.1546C24.8739 14.8 23.7277 14.9879 22.8096 15.573C23.2017 15.5682 23.6004 15.6255 23.9933 15.752C24.7646 16.0005 25.5858 16.3946 26.4004 17.0056C29.5901 19.3979 31.1187 22.189 30.5205 24.1826C30.3638 24.7052 29.5579 25.2686 28.4083 25.7266C30.5527 25.2549 32.2658 24.3736 32.5023 23.5852C33.1004 21.5915 31.572 18.8004 28.3822 16.4081Z" fill="#0ED2B3"/>
<path d="M18.2073 50H0.312305C0.139844 50 0 49.8602 0 49.6877V31.7927H18.2073V50Z" fill="#FDB441"/>
<path d="M16.1509 31.7927H18.2072V50H16.1509V31.7927Z" fill="#FEA713"/>
<path d="M10.9347 35.7996C10.9347 36.1024 10.5939 36.2802 10.3456 36.1067L9.31826 35.3896C9.18945 35.2996 9.01816 35.2996 8.88936 35.3896L7.86201 36.1067C7.61367 36.2801 7.27295 36.1024 7.27295 35.7996V31.7927H10.9347V35.7996Z" fill="#FFD15B"/>
<path d="M10.9347 50H7.27295V48.0072C7.27295 47.7727 7.46318 47.5824 7.69775 47.5824H10.5098C10.7444 47.5824 10.9346 47.7727 10.9346 48.0072L10.9347 50Z" fill="#FFD15B"/>
<path d="M2.55674 47.263C2.13994 47.263 1.80225 46.9252 1.80225 46.5085V46.1717C1.80225 45.7549 2.14004 45.4172 2.55674 45.4172C2.97344 45.4172 3.31123 45.755 3.31123 46.1717V46.5085C3.31123 46.9252 2.97344 47.263 2.55674 47.263Z" fill="#574D56"/>
<path d="M5.26719 47.263C4.85039 47.263 4.5127 46.9252 4.5127 46.5085V46.1717C4.5127 45.7549 4.85049 45.4172 5.26719 45.4172C5.68389 45.4172 6.02168 45.755 6.02168 46.1717V46.5085C6.02178 46.9252 5.68398 47.263 5.26719 47.263Z" fill="#574D56"/>
<path d="M19.7626 31.7927H0V21.3664C0 21.1939 0.139844 21.0541 0.312305 21.0541H19.4503C19.6228 21.0541 19.7626 21.1939 19.7626 21.3664V31.7927Z" fill="#FFE177"/>
<path d="M18.0952 21.0541V31.7926H19.7625V21.3664C19.7625 21.1939 19.6227 21.0541 19.4502 21.0541H18.0952Z" fill="#FFD15B"/>
<path d="M10.8884 25.1066L10.0554 24.4329C9.95088 24.3484 9.81211 24.3484 9.70762 24.4329L8.87461 25.1066C8.67324 25.2695 8.39697 25.1026 8.39697 24.8181V21.0541H11.3659V24.8181C11.3659 25.1025 11.0896 25.2694 10.8884 25.1066Z" fill="#FDB441"/>
<path d="M11.3658 31.7927H8.39697V29.7156C8.39697 29.5023 8.56982 29.3295 8.78311 29.3295H10.9798C11.1931 29.3295 11.3659 29.5023 11.3659 29.7156L11.3658 31.7927Z" fill="#FDB441"/>
<path d="M2.76621 29.7162C2.34941 29.7162 2.01172 29.3784 2.01172 28.9617V28.6887C2.01172 28.2719 2.34951 27.9342 2.76621 27.9342C3.18291 27.9342 3.5207 28.272 3.5207 28.6887V28.9617C3.5207 29.3784 3.18291 29.7162 2.76621 29.7162Z" fill="#574D56"/>
<path d="M5.22275 29.7162C4.80596 29.7162 4.46826 29.3784 4.46826 28.9617V28.6887C4.46826 28.2719 4.80605 27.9342 5.22275 27.9342C5.63945 27.9342 5.97725 28.272 5.97725 28.6887V28.9617C5.97725 29.3784 5.63945 29.7162 5.22275 29.7162Z" fill="#574D56"/>
<path d="M36.4149 50H18.2075V31.7927H36.1026C36.2751 31.7927 36.4149 31.9325 36.4149 32.105V50Z" fill="#FDB441"/>
<path d="M34.3584 31.7927V50H36.4147V32.1049C36.4147 31.9324 36.2749 31.7926 36.1024 31.7926H34.3584V31.7927Z" fill="#FEA713"/>
<path d="M29.1417 35.7996C29.1417 36.1024 28.801 36.2802 28.5526 36.1067L27.5253 35.3896C27.3965 35.2996 27.2252 35.2996 27.0964 35.3896L26.069 36.1067C25.8207 36.2801 25.48 36.1024 25.48 35.7996V31.7927H29.1417V35.7996Z" fill="#FFD15B"/>
<path d="M29.1417 50H25.48V48.0072C25.48 47.7727 25.6702 47.5824 25.9048 47.5824H28.7168C28.9515 47.5824 29.1416 47.7727 29.1416 48.0072V50H29.1417Z" fill="#FFD15B"/>
<path d="M20.7643 47.263C20.3475 47.263 20.0098 46.9252 20.0098 46.5085V46.1717C20.0098 45.7549 20.3476 45.4172 20.7643 45.4172C21.181 45.4172 21.5188 45.755 21.5188 46.1717V46.5085C21.5188 46.9252 21.1811 47.263 20.7643 47.263Z" fill="#574D56"/>
<path d="M23.4747 47.263C23.0579 47.263 22.7202 46.9252 22.7202 46.5085V46.1717C22.7202 45.7549 23.058 45.4172 23.4747 45.4172C23.8914 45.4172 24.2292 45.755 24.2292 46.1717V46.5085C24.2292 46.9252 23.8915 47.263 23.4747 47.263Z" fill="#574D56"/>
<path d="M49.9998 49.6877C49.9998 49.8602 49.86 50 49.6875 50H36.4146V39.4328H49.6876C49.8601 39.4328 49.9999 39.5727 49.9999 39.7451L49.9998 49.6877Z" fill="#FDB441"/>
<path d="M48.2075 39.4328V50H49.6879C49.8604 50 50.0002 49.8602 50.0002 49.6877V39.7451C50.0002 39.5727 49.8604 39.4328 49.6879 39.4328H48.2075Z" fill="#FEA713"/>
<path d="M44.5734 42.4226C44.5734 42.6485 44.3192 42.7812 44.1339 42.6518L43.3674 42.1166C43.2713 42.0495 43.1435 42.0495 43.0474 42.1166L42.2809 42.6518C42.0956 42.7812 41.8413 42.6485 41.8413 42.4226V39.4328H44.5734V42.4226Z" fill="#FFD15B"/>
<path d="M44.5734 50H41.8413V47.6579C41.8413 47.4425 42.0159 47.2678 42.2314 47.2678H44.1834C44.3988 47.2678 44.5735 47.4424 44.5735 47.6579V50H44.5734Z" fill="#FFD15B"/>
<path d="M39.2027 48.1494C38.7859 48.1494 38.4482 47.8116 38.4482 47.3949V47.1436C38.4482 46.7269 38.786 46.3892 39.2027 46.3892C39.6194 46.3892 39.9572 46.727 39.9572 47.1436V47.3949C39.9573 47.8116 39.6195 48.1494 39.2027 48.1494Z" fill="#574D56"/>
</svg>
