<svg width="23" height="30" viewBox="0 0 23 30" fill="none" xmlns="http://www.w3.org/2000/svg">
<path d="M17.9269 13.9795C18.0707 13.8306 18.1503 13.6312 18.1485 13.4242C18.1467 13.2172 18.0637 13.0192 17.9173 12.8728C17.7709 12.7265 17.5729 12.6434 17.3659 12.6416C17.1589 12.6398 16.9595 12.7194 16.8106 12.8632L11.053 18.6208L8.45323 16.0211C8.30433 15.8773 8.10491 15.7977 7.89791 15.7995C7.69091 15.8013 7.4929 15.8844 7.34653 16.0307C7.20015 16.1771 7.11712 16.3751 7.11533 16.5821C7.11353 16.7891 7.1931 16.9885 7.33691 17.1374L11.053 20.8535L17.9269 13.9795Z" fill="white"/>
<path fill-rule="evenodd" clip-rule="evenodd" d="M22.1053 7.89474V24.4737C22.1053 25.1018 21.8557 25.7042 21.4116 26.1484C20.9674 26.5926 20.365 26.8421 19.7368 26.8421H5.52632C4.89817 26.8421 4.29576 26.5926 3.85159 26.1484C3.40743 25.7042 3.1579 25.1018 3.1579 24.4737V2.36842C3.1579 1.74028 3.40743 1.13786 3.85159 0.693695C4.29576 0.249529 4.89817 0 5.52632 0H14.2105L22.1053 7.89474ZM14.2105 8.68421C14.0011 8.68421 13.8003 8.60103 13.6523 8.45298C13.5042 8.30492 13.4211 8.10412 13.4211 7.89474V1.57895H5.52632C5.31694 1.57895 5.11613 1.66212 4.96808 1.81018C4.82002 1.95823 4.73685 2.15904 4.73685 2.36842V24.4737C4.73685 24.6831 4.82002 24.8839 4.96808 25.0319C5.11613 25.18 5.31694 25.2632 5.52632 25.2632H19.7368C19.9462 25.2632 20.147 25.18 20.2951 25.0319C20.4431 24.8839 20.5263 24.6831 20.5263 24.4737V8.68421H14.2105ZM15 3.02211L19.0832 7.10526H15V3.02211Z" fill="white"/>
<path d="M1.57895 4.73685V26.0526C1.57895 26.6808 1.82848 27.2832 2.27264 27.7274C2.71681 28.1715 3.31922 28.4211 3.94737 28.4211H18.9474V30H3.94737C2.90046 30 1.89643 29.5841 1.15616 28.8438C0.415882 28.1036 0 27.0995 0 26.0526V4.73685H1.57895Z" fill="white"/>
</svg>
