<svg width="22" height="17" viewBox="0 0 22 17" fill="none" xmlns="http://www.w3.org/2000/svg">
<path d="M19.7221 6.53846L13.0301 13.3323L16.2526 6.53846H19.7221ZM11 14.4255L7.25122 6.53846H14.7488L11 14.4255ZM16.2204 5.23077L14.0291 1.30769H16.8434L19.9369 5.23077H16.2204ZM8.96986 13.3323L2.27791 6.53846H5.74741L8.96986 13.3323ZM14.6628 5.23077H7.33715L9.52842 1.30769H12.4716L14.6628 5.23077ZM5.77964 5.23077H2.06308L5.15663 1.30769H7.9709L5.77964 5.23077ZM4.26509 0.265625L0.140356 5.49639C0.040102 5.61899 -0.00644493 5.76032 0.000717163 5.92037C0.00787735 6.08043 0.0687466 6.21835 0.183321 6.33413L10.4952 16.7957C10.624 16.9319 10.7923 17 11 17C11.2077 17 11.376 16.9319 11.5049 16.7957L21.8167 6.33413C21.9313 6.21835 21.9921 6.08043 21.9993 5.92037C22.0064 5.76032 21.9599 5.61899 21.8596 5.49639L17.7349 0.265625C17.606 0.0885417 17.4234 0 17.1871 0H4.8129C4.57659 0 4.39399 0.0885417 4.26509 0.265625Z" fill="url(#paint0_radial_0_371)"/>
<defs>
<radialGradient id="paint0_radial_0_371" cx="0" cy="0" r="1" gradientUnits="userSpaceOnUse" gradientTransform="translate(11) rotate(90) scale(17 22)">
<stop stop-color="#848484"/>
<stop offset="0.50868" stop-color="#B5C0BB"/>
<stop offset="1" stop-color="#909091" stop-opacity="0"/>
</radialGradient>
</defs>
</svg>
