<svg width="24" height="24" viewBox="0 0 24 24" fill="none" xmlns="http://www.w3.org/2000/svg">
<g clip-path="url(#clip0_1_454)">
<path d="M11.6403 23C11.3012 22.8576 10.9287 22.761 10.6287 22.5642C9.83497 22.0441 9.50673 21.0839 9.76766 20.2081C10.0254 19.3432 10.8389 18.6892 11.7442 18.619C12.752 18.5407 13.6502 19.012 14.0612 19.8579C14.1432 20.0265 14.2285 20.0828 14.424 20.0809C15.6473 20.0706 16.8705 20.0797 18.0944 20.0742C19.1278 20.0693 19.9786 19.5027 20.312 18.6116C20.319 18.5921 20.3216 18.5707 20.3318 18.5248C20.1921 18.545 20.0645 18.5676 19.9356 18.5805C18.6143 18.7143 17.4481 17.7951 17.402 16.5274C17.3622 15.4554 17.3661 14.3797 17.4039 13.3077C17.443 12.1928 18.4406 11.2999 19.6125 11.2742C20.0703 11.2644 20.5293 11.2913 20.9858 11.2644C21.4717 11.2357 21.8141 11.3958 22 11.8316V18.2315C21.9885 18.2571 21.9686 18.2822 21.966 18.3085C21.7891 19.9691 20.2472 21.5833 17.9777 21.5411C16.7795 21.5191 15.5799 21.5393 14.3811 21.5344C14.2298 21.5344 14.1458 21.5649 14.0791 21.7122C13.8611 22.1963 13.4899 22.5545 12.9911 22.7781C12.777 22.8741 12.5424 22.9267 12.3167 22.9988H11.641L11.6403 23ZM20.4671 12.7331C20.2152 12.7331 19.9908 12.7313 19.767 12.7331C19.2355 12.7374 18.9317 13.0259 18.9304 13.535C18.9278 14.4512 18.9284 15.3674 18.9304 16.283C18.931 16.7383 19.2561 17.0696 19.6952 17.0677C20.1325 17.0659 20.462 16.731 20.4633 16.2799C20.4658 15.5 20.4658 14.7195 20.4665 13.9396C20.4665 13.5473 20.4665 13.1543 20.4665 12.7325L20.4671 12.7331ZM11.2332 20.7912C11.2287 21.1988 11.5705 21.5325 11.9961 21.5368C12.4097 21.5411 12.7603 21.2165 12.7687 20.8223C12.7777 20.4079 12.4468 20.0773 12.0173 20.0718C11.582 20.0657 11.2384 20.381 11.2332 20.7912V20.7912Z" fill="url(#paint0_linear_1_454)"/>
<path d="M2.08527 9.03723C2.25772 8.45415 2.38082 7.85273 2.61033 7.29104C3.99064 3.91051 6.55699 1.82389 10.2927 1.1583C15.6703 0.199943 20.8595 3.69537 21.8218 8.85203C21.8513 9.01033 21.8711 9.18391 21.8346 9.33671C21.7525 9.68387 21.4185 9.89168 21.0409 9.86784C20.6748 9.84462 20.4011 9.59219 20.335 9.2267C19.9613 7.15597 18.9124 5.46112 17.1789 4.16844C12.2827 0.518376 5.00231 3.06279 3.72522 8.86242C3.69124 9.01583 3.67137 9.17475 3.61751 9.32204C3.4957 9.65515 3.10847 9.85745 2.75138 9.79144C2.3853 9.7236 2.12758 9.41311 2.08463 9.03662L2.08527 9.03723Z" fill="url(#paint1_linear_1_454)"/>
<path d="M2.00387 14.2379C2.00387 13.5289 2.00323 12.8206 2.00387 12.1116C2.00451 11.5523 2.30198 11.2663 2.89372 11.2724C3.50855 11.2785 4.13042 11.2443 4.73563 11.3225C5.76268 11.4558 6.56599 12.3163 6.59676 13.301C6.63138 14.3809 6.63587 15.4634 6.59805 16.5427C6.55701 17.7077 5.50624 18.6184 4.29519 18.6025C3.06105 18.586 2.04554 17.6606 2.01092 16.4926C1.98848 15.7415 2.00643 14.9897 2.00643 14.2379H2.00387V14.2379ZM3.53804 12.7423C3.53804 13.972 3.53163 15.173 3.54188 16.374C3.54509 16.7603 3.91309 17.0726 4.31314 17.0684C4.71127 17.0647 5.06452 16.7597 5.06772 16.3844C5.07606 15.3974 5.07541 14.4103 5.06644 13.4238C5.06323 13.0803 4.79012 12.7833 4.43238 12.7478C4.14517 12.7191 3.85218 12.7423 3.53804 12.7423V12.7423Z" fill="url(#paint2_linear_1_454)"/>
<path d="M11.993 4.6794C11.0627 4.68429 10.1786 4.87498 9.33748 5.25392C9.21631 5.30832 9.09066 5.36638 8.96115 5.38839C8.59701 5.45073 8.24888 5.24292 8.13028 4.91043C8.00526 4.56022 8.154 4.1935 8.51046 4.01931C9.18875 3.68865 9.90807 3.46251 10.6582 3.34333C12.3353 3.07746 13.9438 3.29382 15.4722 4.01197C15.8287 4.17944 16.0069 4.4881 15.9454 4.80836C15.8486 5.31199 15.3203 5.57297 14.8273 5.34316C14.1548 5.029 13.456 4.80592 12.7097 4.72707C12.4712 4.70201 12.2308 4.69468 11.9917 4.67879L11.993 4.6794Z" fill="url(#paint3_linear_1_454)"/>
</g>
<defs>
<linearGradient id="paint0_linear_1_454" x1="12.0922" y1="9.27924" x2="16.8916" y2="26.1718" gradientUnits="userSpaceOnUse">
<stop stop-color="#355ADA"/>
<stop offset="0.421875" stop-color="#496EEF"/>
<stop offset="1" stop-color="#00ECAE"/>
</linearGradient>
<linearGradient id="paint1_linear_1_454" x1="5.95597" y1="-0.497577" x2="7.76896" y2="13.054" gradientUnits="userSpaceOnUse">
<stop stop-color="#355ADA"/>
<stop offset="0.421875" stop-color="#496EEF"/>
<stop offset="1" stop-color="#00ECAE"/>
</linearGradient>
<linearGradient id="paint2_linear_1_454" x1="2.9053" y1="10.032" x2="7.3117" y2="19.3525" gradientUnits="userSpaceOnUse">
<stop stop-color="#355ADA"/>
<stop offset="0.421875" stop-color="#496EEF"/>
<stop offset="1" stop-color="#00ECAE"/>
</linearGradient>
<linearGradient id="paint3_linear_1_454" x1="9.6279" y1="2.86344" x2="9.90946" y2="6.25148" gradientUnits="userSpaceOnUse">
<stop stop-color="#355ADA"/>
<stop offset="0.421875" stop-color="#496EEF"/>
<stop offset="1" stop-color="#00ECAE"/>
</linearGradient>
<clipPath id="clip0_1_454">
<rect width="20" height="22" fill="white" transform="translate(2 1)"/>
</clipPath>
</defs>
</svg>
