<svg xmlns="http://www.w3.org/2000/svg" xmlns:xlink="http://www.w3.org/1999/xlink" id="Layer_1" data-name="Layer 1" viewBox="276.67 605 1440.44 290"><defs><style>.cls-1{fill:url(#linear-gradient);}.cls-2{fill:url(#linear-gradient-2);}.cls-3{fill:url(#linear-gradient-3);}.cls-4{fill:url(#linear-gradient-4);}.cls-5{fill:url(#linear-gradient-5);}.cls-6{fill:url(#linear-gradient-6);}.cls-7{fill:url(#linear-gradient-7);}.cls-8{fill:#e72086;}.cls-9{fill:#fc414d;}.cls-10{fill:url(#linear-gradient-8);}.cls-11{fill:url(#linear-gradient-9);}.cls-12{fill:url(#linear-gradient-10);}.cls-13{fill:#000072;}</style><linearGradient id="linear-gradient" x1="504.82" y1="749.08" x2="1813.05" y2="774.61" gradientUnits="userSpaceOnUse"><stop offset="0" stop-color="#fc00f9"/><stop offset="1" stop-color="#a000c8"/></linearGradient><linearGradient id="linear-gradient-2" x1="4928.81" y1="-991.19" x2="5022.48" y2="-991.19" gradientTransform="translate(1404.95 5815.81) rotate(-90)" gradientUnits="userSpaceOnUse"><stop offset="0" stop-color="#6abe18"/><stop offset="1" stop-color="#0b6a49"/></linearGradient><linearGradient id="linear-gradient-3" x1="5102.48" y1="-991.19" x2="5202.81" y2="-991.19" gradientTransform="translate(1404.95 5815.81) rotate(-90)" xlink:href="#linear-gradient"/><linearGradient id="linear-gradient-4" x1="-191.38" y1="1418.22" x2="-54" y2="1418.22" gradientTransform="translate(536.25 -759.75)" xlink:href="#linear-gradient"/><linearGradient id="linear-gradient-5" x1="-191.38" y1="1599.78" x2="-54" y2="1599.78" gradientTransform="translate(536.25 -759.75)" xlink:href="#linear-gradient-2"/><linearGradient id="linear-gradient-6" x1="7639.42" y1="1607.88" x2="7776.81" y2="1607.88" gradientTransform="matrix(-1, 0, 0, 1, 8121.81, -759.75)" xlink:href="#linear-gradient-2"/><linearGradient id="linear-gradient-7" x1="7639.44" y1="1416.36" x2="7776.82" y2="1416.36" gradientTransform="matrix(-1, 0, 0, 1, 8121.81, -759.75)" xlink:href="#linear-gradient"/><linearGradient id="linear-gradient-8" x1="4997.02" y1="-991.29" x2="5134.4" y2="-991.29" gradientTransform="translate(1404.95 5815.81) rotate(-90)" gradientUnits="userSpaceOnUse"><stop offset="0" stop-color="#fcff43"/><stop offset="0.22" stop-color="#fc4243"/><stop offset="0.51" stop-color="#eb0090"/><stop offset="0.76" stop-color="#a000c8"/><stop offset="1" stop-color="#0071e9"/></linearGradient><linearGradient id="linear-gradient-9" x1="2451.03" y1="-991.29" x2="2588.41" y2="-991.29" gradientTransform="matrix(0, 1, 1, 0, 1404.95, -1769.75)" xlink:href="#linear-gradient-8"/><linearGradient id="linear-gradient-10" x1="513.91" y1="778.81" x2="1699.99" y2="801.95" gradientTransform="matrix(1, 0, 0, 1, 0, 0)" xlink:href="#linear-gradient-8"/></defs><title>logo vector file</title><path class="cls-1" d="M533.78,730.57l63.49,0V770H534.16a38.52,38.52,0,0,0-.38-39.43Z"/><path class="cls-2" d="M477.34,793.62c-5,9.45-17.68,11.31-26.94,7.79-.48-.18-.95-.38-1.42-.59a39.42,39.42,0,1,1-73.19,7.12c-6.62,2.33-14.12,2.68-20.93,2.64-3,0-6.07-.16-9.11-.34a70.33,70.33,0,0,0-.49,8.26,68.5,68.5,0,1,0,132.22-25.17C477.43,793.42,477.39,793.52,477.34,793.62Z"/><path class="cls-3" d="M345.26,681.5A68.54,68.54,0,0,0,349,703.75c10.65-3.21,21.82-2.77,32.47.27a39.41,39.41,0,1,1,71.75-22.52,40,40,0,0,1-11.54,27.87,7.11,7.11,0,0,0-1.85,4c11.09-10.55,25.39-17,40.94-17.34A68.5,68.5,0,1,0,345.26,681.5Z"/><path class="cls-4" d="M349.16,657a68.57,68.57,0,0,0-.34,46.76c10.61-3.23,21.74-2.83,32.36.17-16.37-19.24-22-42.25-13-61.19,10.85-22.84,30.17-29.36,46-29.77C386.24,613,358.82,630.08,349.16,657Z"/><path class="cls-5" d="M477.34,793.62c-4.76,9-16.61,11.13-25.73,8.21,12.93,16.93,17.6,34.74,11,53.06-7.89,21.82-26.84,30.88-45,32,26.48-1.48,50.93-18.1,60.14-43.8,6.39-17.81,5.72-35-.18-49.88Z"/><path class="cls-6" d="M354.86,810.58c-3.15,0-6.28-.17-9.42-.36a72.47,72.47,0,0,0,4.09,32.86c9.21,25.7,33.66,42.32,60.14,43.8-18.16-1.11-37.11-10.17-45-32-5.64-15.62-3.08-30.86,5.81-45.5A77.52,77.52,0,0,1,354.86,810.58Z"/><path class="cls-7" d="M459.11,642.77c7.84,16.51,4.54,36.13-7.29,53.63,9.16-1.87,19,.61,27.76,3.83A68.75,68.75,0,0,0,478.1,657c-9.66-26.95-37.08-44-65-44C428.94,613.41,448.26,619.93,459.11,642.77Z"/><path class="cls-8" d="M482.16,681.4a68.3,68.3,0,0,0-48.44,20.07c-4.26,4.27,15.7,25.44,20.57,20.56a39.42,39.42,0,1,1,0,55.74c-7.13-7.13-33,8.14-20.6,20.53a68.5,68.5,0,1,0,48.47-116.9Z"/><path class="cls-9" d="M393.6,701.47a68.49,68.49,0,1,0,0,96.83c4.36-4.36-15.77-25.36-20.61-20.53a39.41,39.41,0,1,1-27.87-67.28A40,40,0,0,1,373,722C380.82,729.59,406,713.86,393.6,701.47Z"/><path class="cls-10" d="M518.56,701.07c-22.42-8.1-44.07.7-64.27,20.84-16.72,16.67-39.59,55.51-60.23,76.09-.66.67-1.33,1.28-2,1.86-18.07,16.67-44.21,24.38-71.38,14.64-26.95-9.66-44-37.08-44-65,.41,15.85,6.93,35.17,29.77,46,20.75,9.86,46.4,2.13,66.6-18h0c18.32-18.21,40.33-55.79,60.68-76.09,18.11-18,44.85-25.57,73-15.47,26.94,9.66,43.92,36.06,43.92,64C550.66,730.66,541.93,709.52,518.56,701.07Z"/><path class="cls-11" d="M518.56,799c-22.42,8.1-44.07-.69-64.27-20.84-16.72-16.67-39.59-55.51-60.23-76.09-.66-.66-1.33-1.28-2-1.85-18.07-16.68-44.21-24.39-71.38-14.65-26.95,9.66-44,37.08-44,65,.41-15.85,6.93-35.18,29.77-46,20.75-9.85,46.4-2.13,66.6,18h0c18.32,18.21,40.33,55.79,60.68,76.09,18.11,18.05,44.85,25.57,73,15.48,26.94-9.66,43.92-36.07,43.92-64C550.66,769.4,541.93,790.54,518.56,799Z"/><path class="cls-12" d="M1673.37,707.21,1636.73,788l-8.93-18.37L1608.54,730h0l-43.45,0h-12.32l-24.57,0a81.71,81.71,0,0,1,5.26,8.68,92.69,92.69,0,0,1,9.47,30.92l40.72,0h0L1621.29,841l-25.78,54H1636l81.11-187.78Z"/><path class="cls-13" d="M642.63,628.25a25,25,0,0,0-17.78,7,24.35,24.35,0,0,0,0,35.13,26.16,26.16,0,0,0,35.76,0,24.73,24.73,0,0,0,0-35.07A24.85,24.85,0,0,0,642.63,628.25Z"/><path class="cls-13" d="M818.86,716.22h0a76.65,76.65,0,0,0-37.81-9.71,64.7,64.7,0,0,0-27.12,5.67,60.71,60.71,0,0,0-21.28,16.28V605H691V866.4h41.7V847.72A60.71,60.71,0,0,0,753.93,864a64.7,64.7,0,0,0,27.12,5.67A76.65,76.65,0,0,0,818.86,860a73.44,73.44,0,0,0,28-28.14c7-12.2,10.55-26.91,10.55-43.73,0-17-3.55-31.81-10.55-43.91A73.93,73.93,0,0,0,818.86,716.22Zm-4.14,71.87c0,9.45-2,17.59-5.81,24.19a40.81,40.81,0,0,1-15.26,15.27,42.32,42.32,0,0,1-21.11,5.34,37.47,37.47,0,0,1-14.1-2.89,39.91,39.91,0,0,1-13-8.54,41.85,41.85,0,0,1-9.31-14.06,54.58,54.58,0,0,1,0-38.62,42,42,0,0,1,9.31-14.06,39.91,39.91,0,0,1,13-8.54,37.55,37.55,0,0,1,14.1-2.89,42.45,42.45,0,0,1,21.11,5.34,41,41,0,0,1,15.26,15.27C812.76,770.5,814.72,778.64,814.72,788.09Z"/><path class="cls-13" d="M982,712h0c-9.81-3.83-21.25-5.77-34-5.77-14.26,0-27,2.05-38,6.08a166.18,166.18,0,0,0-27,12.35l-2.55,1.51L898,756.41l2.68-1.88a76.42,76.42,0,0,1,9.58-5.32,94.21,94.21,0,0,1,15.39-5.71,69.88,69.88,0,0,1,19.15-2.5,56.42,56.42,0,0,1,12.12,1.23,27.55,27.55,0,0,1,9.3,3.83,15.91,15.91,0,0,1,5.67,6.5,23.88,23.88,0,0,1,2,10.32v13.44a92.2,92.2,0,0,0-13.66-5.18c-7.57-2.26-16.62-3.4-26.89-3.4-12.81,0-23.91,2.07-33,6.15S883.89,784,878.9,791.51s-7.54,16.65-7.54,27c0,10.82,2.6,20.19,7.71,27.86a48.74,48.74,0,0,0,20.56,17.43,65.2,65.2,0,0,0,27.45,5.84,75.78,75.78,0,0,0,26.76-4.94,54.51,54.51,0,0,0,20-12.9V866.4h40.7V756c0-10.68-3-19.84-8.83-27.24S992,715.85,982,712Zm-66.21,94.17c1.83-2.73,4.83-4.94,8.92-6.56,4.33-1.71,10.07-2.58,17.07-2.58a85.67,85.67,0,0,1,23.41,3.16,65.82,65.82,0,0,1,8.63,3.15v.52c0,7-1.61,13.08-4.77,18a31,31,0,0,1-12.85,11.35,41.15,41.15,0,0,1-18,4,33.32,33.32,0,0,1-13.37-2.53,20,20,0,0,1-8.72-7,18.92,18.92,0,0,1-3.07-11.06A18.55,18.55,0,0,1,915.82,806.12Z"/><path class="cls-13" d="M1163.89,714h0c-8.19-5-18.35-7.47-30.2-7.47-10.74,0-20.27,2.34-28.34,6.94a48.53,48.53,0,0,0-14.17,12.44V709.78h-41.36V866.4h41.36V771.72a32.56,32.56,0,0,1,3.87-16.21,27.38,27.38,0,0,1,10.79-10.63,32.74,32.74,0,0,1,16.06-3.88c5.73,0,10.48,1.16,14.12,3.46a20,20,0,0,1,8,9.87c1.81,4.54,2.73,10.39,2.73,17.39V866.4h42.35V767.79c0-12.6-2.14-23.55-6.34-32.54A48.37,48.37,0,0,0,1163.89,714Z"/><polygon class="cls-13" points="1370.66 709.78 1318.78 709.78 1267.65 758.84 1267.65 605.01 1226.94 605.01 1226.94 866.4 1267.65 866.4 1267.65 795.16 1325.43 866.4 1376.03 866.4 1302.44 775.25 1370.66 709.78"/><rect class="cls-13" x="622.27" y="709.78" width="40.71" height="156.62"/><path class="cls-13" d="M1485.84,812.1c-4.5,7.56-10.17,13.25-16.86,16.9s-14.72,5.53-23.78,5.53c-8.55,0-15.82-1.88-21.63-5.59a35,35,0,0,1-13.27-16,54.74,54.74,0,0,1-3.76-13.64h116.64v-3c0-.83,0-2.14.16-3.92.11-1.93.17-3.91.17-5.91,0-16.56-3.14-31-9.35-42.81a65.59,65.59,0,0,0-26.91-27.59h0c-11.54-6.33-25.68-9.54-42-9.54a92.71,92.71,0,0,0-33.49,5.77,71.68,71.68,0,0,0-42.32,42.49,92.89,92.89,0,0,0-5.77,33.32c0,16.15,3.32,30.51,9.85,42.67a71,71,0,0,0,28,28.7c12,6.78,26.12,10.21,42.08,10.21,17.88,0,33.51-3.59,46.46-10.68s23.67-17.79,31.77-31.74l1.75-3-36.4-14.33Zm-57.64-69.71a42.66,42.66,0,0,1,16.68-3,34.91,34.91,0,0,1,18,4.5,31.82,31.82,0,0,1,12,12.58,37.18,37.18,0,0,1,3.88,12.28h-71c.25-1,.5-1.94.78-2.81a42.2,42.2,0,0,1,7.77-14.68A32,32,0,0,1,1428.2,742.39Z"/></svg>