<svg width="112" height="34" viewBox="0 0 112 34" fill="none" xmlns="http://www.w3.org/2000/svg">
<path d="M13.263 26.4557C14.6027 27.2292 14.6027 29.1629 13.263 29.9364L6.69605 33.7278C5.35635 34.5013 3.68173 33.5344 3.68173 31.9875L3.68173 24.4046C3.68173 22.8577 5.35635 21.8909 6.69605 22.6643L13.263 26.4557Z" fill="#290088"/>
<path d="M12.8899 4.06365C14.2296 4.83712 14.2295 6.77081 12.8899 7.54429L6.32294 11.3357C4.98324 12.1092 3.30862 11.1423 3.30862 9.59538L3.30862 2.01256C3.30862 0.465606 4.98324 -0.501236 6.32294 0.272239L12.8899 4.06365Z" fill="#DCA726"/>
<path d="M1.00477 20.9795C-0.334928 20.2061 -0.334925 18.2724 1.00477 17.4989L12.6099 10.7987C13.9496 10.0252 15.6242 10.992 15.6242 12.539L15.6242 25.9394C15.6242 27.4864 13.9496 28.4532 12.6099 27.6798L1.00477 20.9795Z" fill="#4C5EFE"/>
<path d="M29.3794 27.3613C29.2733 26.9186 29.0347 26.6795 28.6635 26.6441H27.2581V12.1411H29.3794V11.4239H21.8754V12.1411H23.9967V26.6441H21.8754V27.3613H29.3794Z" fill="url(#paint0_linear_0_382)"/>
<path d="M38.4213 27.6269C40.0829 27.6269 41.4352 26.9983 42.4782 25.741C43.4328 24.59 43.91 23.1379 43.91 21.3848C43.91 19.1889 43.256 17.5686 41.9479 16.5239C41.1878 15.9218 40.3127 15.6207 39.3228 15.6207C37.449 15.6207 36.079 16.5239 35.2129 18.3301C35.1952 18.3655 35.1775 18.4009 35.1598 18.4363V10.0958H30.5726V10.7864H32.2166V25.2098C32.2166 25.9889 31.9514 26.4493 31.4211 26.591C31.1913 26.6441 30.9085 26.6707 30.5726 26.6707V27.3613H34.3909L34.6295 25.5285C35.4957 26.9097 36.7596 27.6092 38.4213 27.6269ZM38.1826 16.8426C39.7736 16.8426 40.6221 18.2593 40.7281 21.0926C40.7281 21.2874 40.7281 21.4822 40.7281 21.677C40.7281 24.6165 40.0476 26.3254 38.6864 26.8035C38.4389 26.892 38.1915 26.9363 37.944 26.9363C36.7243 26.9363 35.8934 26.1837 35.4515 24.6785C35.2394 23.9702 35.1333 23.1379 35.1333 22.1816C35.1333 19.8973 35.6459 18.3124 36.6712 17.427C37.1308 17.0374 37.6346 16.8426 38.1826 16.8426Z" fill="url(#paint1_linear_0_382)"/>
<path d="M55.0732 27.6269C56.3283 27.6269 57.1061 27.1311 57.4066 26.1394C57.495 25.7853 57.5568 25.3603 57.5922 24.8644L56.9028 24.8379C56.7967 26.0775 56.4785 26.7061 55.9482 26.7238C55.5416 26.6884 55.3384 26.2457 55.3384 25.3957V19.8176C55.3384 17.5332 54.26 16.1785 52.1034 15.7535C51.6615 15.665 51.193 15.6207 50.6981 15.6207C48.4708 15.6207 47.0301 16.1166 46.376 17.1082C46.1816 17.3916 46.0843 17.6926 46.0843 18.0113C46.0843 18.6134 46.3672 19.003 46.9328 19.1801C47.0919 19.2332 47.251 19.2598 47.4101 19.2598C48.0465 19.2598 48.4884 18.9322 48.7359 18.277C48.7713 18.1884 48.8243 18.0379 48.895 17.8254C49.1071 17.0994 49.3811 16.6478 49.717 16.4707C49.9468 16.3645 50.2031 16.3114 50.486 16.3114C51.5466 16.3114 52.1653 16.94 52.3421 18.1973C52.3774 18.4806 52.3951 18.7905 52.3951 19.127V20.827C47.7637 20.8978 45.4391 22.1108 45.4214 24.466C45.4214 25.9889 46.0843 26.9717 47.4101 27.4144C47.8344 27.5561 48.294 27.6269 48.7889 27.6269C50.1854 27.6269 51.2726 27.1311 52.0504 26.1394C52.2625 25.8384 52.4305 25.5285 52.5542 25.2098C52.837 26.8035 53.6767 27.6092 55.0732 27.6269ZM50.0087 26.5113C49.0188 26.5113 48.4884 25.803 48.4177 24.3863C48.4177 24.2978 48.4177 24.2092 48.4177 24.1207C48.4177 22.9165 49.0188 22.1551 50.2208 21.8363C50.7865 21.677 51.5112 21.5884 52.3951 21.5707V23.9879C52.0946 25.192 51.5289 25.9801 50.6981 26.3519C50.4506 26.4582 50.2208 26.5113 50.0087 26.5113Z" fill="url(#paint2_linear_0_382)"/>
<path d="M63.7704 26.6707H62.9484L62.9749 20.1098C63.0986 18.6931 63.629 17.7192 64.5658 17.1879C64.9017 17.0108 65.2376 16.9223 65.5734 16.9223C66.5634 16.9223 67.1909 17.4447 67.4561 18.4895C67.5445 18.8082 67.5887 19.1624 67.5887 19.552V25.2363C67.5887 25.9801 67.3854 26.4228 66.9788 26.5644C66.7843 26.6353 66.5015 26.6707 66.1303 26.6707V27.3613H72.2024C72.2024 26.9717 72.0875 26.7504 71.8577 26.6972C71.7516 26.6795 71.6456 26.6707 71.5395 26.6707H70.5054V19.9504C70.5054 17.8608 69.7806 16.515 68.3311 15.9129C67.8715 15.7181 67.3765 15.6207 66.8462 15.6207C65.5734 15.6207 64.4951 16.1254 63.6113 17.1348C63.3284 17.4712 63.0986 17.8254 62.9219 18.1973L62.7893 15.9926H58.3346V16.6567H60.0316V25.2363C60.0316 26.0155 59.74 26.467 59.1566 26.591C58.9268 26.6441 58.6528 26.6707 58.3346 26.6707V27.3613H64.4333C64.4333 26.9717 64.3184 26.7504 64.0886 26.6972C63.9825 26.6795 63.8764 26.6707 63.7704 26.6707Z" fill="url(#paint3_linear_0_382)"/>
<path d="M79.4677 26.6707H78.1419V22.6332L79.1761 21.6504L82.5701 27.3879L86.68 27.3613C86.68 26.954 86.5651 26.7327 86.3353 26.6972C86.2469 26.6795 86.1497 26.6707 86.0436 26.6707H85.4603L81.2178 19.7113L83.339 17.6926C83.9401 17.1082 84.3997 16.7806 84.7179 16.7098C84.8593 16.6744 85.0184 16.6567 85.1951 16.6567C85.6017 16.6567 85.8227 16.5239 85.858 16.2582C85.8757 16.1697 85.8846 16.0811 85.8846 15.9926H81.3769V16.6567H83.339L78.1419 21.5707V10.0958H73.21V10.7864H75.2252V25.2363C75.2252 26.0332 74.8275 26.4936 74.032 26.6176C73.8022 26.653 73.5282 26.6707 73.21 26.6707V27.3613H80.1041C80.1041 26.954 79.9715 26.7327 79.7064 26.6972C79.6357 26.6795 79.5561 26.6707 79.4677 26.6707Z" fill="url(#paint4_linear_0_382)"/>
<path d="M93.0968 16.3114C94.1928 16.3114 94.8469 16.9577 95.059 18.2504C95.1121 18.5337 95.1386 18.8259 95.1386 19.127C95.1386 19.9593 94.8381 20.4816 94.237 20.6941C93.8481 20.8004 93.2825 20.8447 92.54 20.827L90.4983 20.7473C90.569 18.2327 91.2319 16.7806 92.487 16.391C92.6991 16.3379 92.9024 16.3114 93.0968 16.3114ZM97.9492 24.6785L97.3129 24.466C96.8002 25.5816 95.9871 26.3165 94.8734 26.6707C94.5022 26.7946 94.1221 26.8566 93.7332 26.8566C91.665 26.8566 90.5867 25.0947 90.4983 21.5707C90.4983 21.553 90.4983 21.5353 90.4983 21.5176L93.1764 21.5707C95.828 21.6238 97.4189 21.2431 97.9492 20.4285C98.126 20.1452 98.2144 19.8087 98.2144 19.4192C98.2144 18.0202 97.5073 16.9666 96.0931 16.2582C95.2093 15.8332 94.2105 15.6207 93.0968 15.6207C91.064 15.6207 89.5084 16.3556 88.4301 17.8254C87.6699 18.8702 87.2899 20.1363 87.2899 21.6238C87.2899 24.0499 88.1826 25.7853 89.968 26.8301C90.9226 27.3613 91.992 27.6269 93.1764 27.6269C95.1916 27.6269 96.65 26.9097 97.5515 25.4754C97.7106 25.2098 97.8432 24.9441 97.9492 24.6785Z" fill="url(#paint5_linear_0_382)"/>
<path d="M102.139 31.6113C101.838 31.6113 101.6 31.3811 101.423 30.9207C101.193 30.3186 100.981 29.9467 100.786 29.805C100.592 29.6634 100.353 29.5925 100.071 29.5925C99.4695 29.5925 99.0894 29.8493 98.9303 30.3629C98.895 30.4868 98.8773 30.6019 98.8773 30.7082C98.8773 31.328 99.2485 31.8149 99.991 32.1691C100.451 32.3816 100.954 32.4878 101.502 32.4878C102.952 32.4878 104.18 31.629 105.188 29.9113C105.577 29.2738 105.948 28.5035 106.302 27.6004L110.253 17.4801C110.447 17.002 110.668 16.7364 110.915 16.6832C110.986 16.6655 111.066 16.6567 111.154 16.6567C111.525 16.6567 111.737 16.5416 111.79 16.3114C111.808 16.2228 111.817 16.1166 111.817 15.9926H107.734V16.6567H109.722L106.646 24.4129L103.332 16.6567H105.002V15.9926H99.0894V16.6567H100.283L105.321 27.7332C104.419 29.929 103.553 31.1863 102.722 31.505C102.528 31.5759 102.333 31.6113 102.139 31.6113Z" fill="url(#paint6_linear_0_382)"/>
<defs>
<linearGradient id="paint0_linear_0_382" x1="66.8462" y1="10.0958" x2="66.8462" y2="30.6218" gradientUnits="userSpaceOnUse">
<stop offset="0.246583" stop-color="#0094E8"/>
<stop offset="0.543705" stop-color="#4C5EFE"/>
<stop offset="1" stop-color="#290088"/>
</linearGradient>
<linearGradient id="paint1_linear_0_382" x1="66.8462" y1="10.0958" x2="66.8462" y2="30.6218" gradientUnits="userSpaceOnUse">
<stop offset="0.246583" stop-color="#0094E8"/>
<stop offset="0.543705" stop-color="#4C5EFE"/>
<stop offset="1" stop-color="#290088"/>
</linearGradient>
<linearGradient id="paint2_linear_0_382" x1="66.8462" y1="10.0958" x2="66.8462" y2="30.6218" gradientUnits="userSpaceOnUse">
<stop offset="0.246583" stop-color="#0094E8"/>
<stop offset="0.543705" stop-color="#4C5EFE"/>
<stop offset="1" stop-color="#290088"/>
</linearGradient>
<linearGradient id="paint3_linear_0_382" x1="66.8462" y1="10.0958" x2="66.8462" y2="30.6218" gradientUnits="userSpaceOnUse">
<stop offset="0.246583" stop-color="#0094E8"/>
<stop offset="0.543705" stop-color="#4C5EFE"/>
<stop offset="1" stop-color="#290088"/>
</linearGradient>
<linearGradient id="paint4_linear_0_382" x1="66.8462" y1="10.0958" x2="66.8462" y2="30.6218" gradientUnits="userSpaceOnUse">
<stop offset="0.246583" stop-color="#0094E8"/>
<stop offset="0.543705" stop-color="#4C5EFE"/>
<stop offset="1" stop-color="#290088"/>
</linearGradient>
<linearGradient id="paint5_linear_0_382" x1="66.8462" y1="10.0958" x2="66.8462" y2="30.6218" gradientUnits="userSpaceOnUse">
<stop offset="0.246583" stop-color="#0094E8"/>
<stop offset="0.543705" stop-color="#4C5EFE"/>
<stop offset="1" stop-color="#290088"/>
</linearGradient>
<linearGradient id="paint6_linear_0_382" x1="66.8462" y1="10.0958" x2="66.8462" y2="30.6218" gradientUnits="userSpaceOnUse">
<stop offset="0.246583" stop-color="#0094E8"/>
<stop offset="0.543705" stop-color="#4C5EFE"/>
<stop offset="1" stop-color="#290088"/>
</linearGradient>
</defs>
</svg>
