<svg width="50" height="48" viewBox="0 0 50 48" fill="none" xmlns="http://www.w3.org/2000/svg">
<path d="M47.3753 11.5313L44.0993 16.1354L40.8232 11.5313H42.5628V3.02604H45.641V11.5313H47.3753Z" fill="#FE4A4E"/>
<path d="M34.641 4.32812L31.3649 8.92708L28.0889 4.32812H29.8285V0.421875H32.9066V4.32812H34.641Z" fill="#FE4A4E"/>
<path d="M21.9115 4.32812L18.6354 8.92708L15.3594 4.32812H17.099V0.421875H20.1771V4.32812H21.9115Z" fill="#FE4A4E"/>
<path d="M9.17708 11.5313L5.90104 16.1354L2.625 11.5313H4.36458V3.02604H7.44271V11.5313H9.17708Z" fill="#FE4A4E"/>
<path d="M37.099 13.1667H25.6302C25.2822 13.1667 25 13.4488 25 13.7969V25.2656C25 25.6137 25.2822 25.8958 25.6302 25.8958H37.099C37.447 25.8958 37.7292 25.6137 37.7292 25.2656V13.7969C37.7292 13.4488 37.447 13.1667 37.099 13.1667Z" fill="#FFCA87"/>
<path d="M36.4584 14.1042V23.1771C36.4793 23.3938 36.4156 23.6101 36.2807 23.7809C36.1458 23.9518 35.9501 24.0638 35.7344 24.0938H27.0157C26.7986 24.0663 26.6008 23.9551 26.4645 23.7838C26.3283 23.6126 26.2644 23.3948 26.2865 23.1771V14.1042C26.2644 13.8864 26.3283 13.6687 26.4645 13.4974C26.6008 13.3261 26.7986 13.2149 27.0157 13.1875H35.7188C35.9373 13.2137 36.1369 13.3242 36.275 13.4954C36.4132 13.6667 36.479 13.8851 36.4584 14.1042Z" fill="#FFE8AA"/>
<path d="M29.1772 13.1667H33.5575V18.2448H29.1772V13.1667Z" fill="#FFA769"/>
<path d="M36.4584 14.4635V14.1042C36.4793 13.8875 36.4156 13.6711 36.2807 13.5003C36.1458 13.3295 35.9501 13.2174 35.7344 13.1875H27.0157C26.7986 13.2149 26.6008 13.3261 26.4645 13.4974C26.3283 13.6687 26.2644 13.8864 26.2865 14.1042V14.4844L36.4584 14.4635Z" fill="#FFFACD"/>
<path d="M29.146 13.1667H33.5262V14.4635H29.146V13.1667Z" fill="#FFC582"/>
<path d="M24.4116 13.1667H12.8595C12.5345 13.1667 12.271 13.4302 12.271 13.7552V25.3073C12.271 25.6323 12.5345 25.8958 12.8595 25.8958H24.4116C24.7367 25.8958 25.0002 25.6323 25.0002 25.3073V13.7552C25.0002 13.4302 24.7367 13.1667 24.4116 13.1667Z" fill="#FFC050"/>
<path d="M23.8541 14.0208V23.8229C23.8735 24.0252 23.8138 24.2271 23.6876 24.3863C23.5613 24.5455 23.3784 24.6497 23.1771 24.6771H14C13.7981 24.651 13.6143 24.5471 13.4879 24.3876C13.3614 24.228 13.3022 24.0254 13.3229 23.8229V14.0208C13.3022 13.8183 13.3614 13.6157 13.4879 13.4562C13.6143 13.2966 13.7981 13.1928 14 13.1667H23.1771C23.3784 13.194 23.5613 13.2982 23.6876 13.4574C23.8138 13.6167 23.8735 13.8186 23.8541 14.0208Z" fill="#FFD469"/>
<path d="M16.4429 13.1667H20.8231V18.2448H16.4429V13.1667Z" fill="#FF9350"/>
<path d="M23.8541 14.375V14.0208C23.8735 13.8186 23.8138 13.6167 23.6876 13.4574C23.5613 13.2982 23.3784 13.194 23.1771 13.1667H14C13.7981 13.1928 13.6143 13.2966 13.4879 13.4562C13.3614 13.6157 13.3022 13.8183 13.3229 14.0208V14.375H23.8541Z" fill="#FFFACD"/>
<path d="M16.4688 13.1667H20.8229V14.375H16.4688V13.1667Z" fill="#FFC050"/>
<path d="M19.5316 19.401H17.7607C17.5277 19.401 17.3389 19.5899 17.3389 19.8229V19.9531C17.3389 20.1861 17.5277 20.375 17.7607 20.375H19.5316C19.7646 20.375 19.9535 20.1861 19.9535 19.9531V19.8229C19.9535 19.5899 19.7646 19.401 19.5316 19.401Z" fill="white"/>
<path d="M30.7764 25.901H19.2243C18.8992 25.901 18.6357 26.1645 18.6357 26.4896V38.0417C18.6357 38.3667 18.8992 38.6302 19.2243 38.6302H30.7764C31.1014 38.6302 31.3649 38.3667 31.3649 38.0417V26.4896C31.3649 26.1645 31.1014 25.901 30.7764 25.901Z" fill="#FFC050"/>
<path d="M31.3649 27.0208V26.6042C31.3649 26.4246 31.2936 26.2524 31.1666 26.1254C31.0396 25.9984 30.8674 25.9271 30.6878 25.9271H19.3128C19.1333 25.9271 18.961 25.9984 18.8341 26.1254C18.7071 26.2524 18.6357 26.4246 18.6357 26.6042V27.0469L31.3649 27.0208Z" fill="#FF9350"/>
<path d="M28.9063 27.9687H21.099C20.8803 27.9687 20.7031 28.146 20.7031 28.3646V36.1719C20.7031 36.3905 20.8803 36.5677 21.099 36.5677H28.9063C29.1249 36.5677 29.3021 36.3905 29.3021 36.1719V28.3646C29.3021 28.146 29.1249 27.9687 28.9063 27.9687Z" fill="#FFD469"/>
<path d="M22.8125 25.901H27.1927V30.9792H22.8125V25.901Z" fill="#FF9350"/>
<path d="M22.8125 27.9687H27.1927V30.9792H22.8125V27.9687Z" fill="#FFC050"/>
<path d="M22.8125 25.901H27.1927V27.0156H22.8125V25.901Z" fill="#CD523C"/>
<path d="M18.042 25.901H6.48991C6.16487 25.901 5.90137 26.1645 5.90137 26.4896V38.0417C5.90137 38.3667 6.16487 38.6302 6.48991 38.6302H18.042C18.367 38.6302 18.6305 38.3667 18.6305 38.0417V26.4896C18.6305 26.1645 18.367 25.901 18.042 25.901Z" fill="#FF9D50"/>
<path d="M18.6357 27.0208V26.6042C18.6357 26.4246 18.5644 26.2524 18.4374 26.1254C18.3105 25.9984 18.1382 25.9271 17.9587 25.9271H6.57845C6.39888 25.9271 6.22666 25.9984 6.09968 26.1254C5.9727 26.2524 5.90137 26.4246 5.90137 26.6042V27.0469L18.6357 27.0208Z" fill="#F06B41"/>
<path d="M16.1719 27.9687H8.36458C8.14597 27.9687 7.96875 28.146 7.96875 28.3646V36.1719C7.96875 36.3905 8.14597 36.5677 8.36458 36.5677H16.1719C16.3905 36.5677 16.5677 36.3905 16.5677 36.1719V28.3646C16.5677 28.146 16.3905 27.9687 16.1719 27.9687Z" fill="#FFB15F"/>
<path d="M10.0781 25.901H14.4583V30.9792H10.0781V25.901Z" fill="#FF703C"/>
<path d="M10.0781 25.901H14.4583V27.0156H10.0781V25.901Z" fill="#CD523C"/>
<path d="M10.0781 27.9687H14.4583V30.9792H10.0781V27.9687Z" fill="#FF8941"/>
<path d="M43.5054 25.901H31.9533C31.6282 25.901 31.3647 26.1645 31.3647 26.4896V38.0417C31.3647 38.3667 31.6282 38.6302 31.9533 38.6302H43.5054C43.8304 38.6302 44.0939 38.3667 44.0939 38.0417V26.4896C44.0939 26.1645 43.8304 25.901 43.5054 25.901Z" fill="#FF9D50"/>
<path d="M44.0991 27.0208V26.6042C44.0991 26.4246 44.0278 26.2524 43.9008 26.1254C43.7738 25.9984 43.6016 25.9271 43.422 25.9271H32.0418C31.8623 25.9271 31.69 25.9984 31.5631 26.1254C31.4361 26.2524 31.3647 26.4246 31.3647 26.6042V27.0469L44.0991 27.0208Z" fill="#F06B41"/>
<path d="M41.6357 27.9687H33.8284C33.6098 27.9687 33.4326 28.146 33.4326 28.3646V36.1719C33.4326 36.3905 33.6098 36.5677 33.8284 36.5677H41.6357C41.8544 36.5677 42.0316 36.3905 42.0316 36.1719V28.3646C42.0316 28.146 41.8544 27.9687 41.6357 27.9687Z" fill="#FFB15F"/>
<path d="M35.542 25.901H39.9222V30.9792H35.542V25.901Z" fill="#FF703C"/>
<path d="M35.542 25.901H39.9222V27.0156H35.542V25.901Z" fill="#CD523C"/>
<path d="M35.542 27.9687H39.9222V30.9792H35.542V27.9687Z" fill="#FF8941"/>
<path d="M13.5889 35.1406H10.9378C10.7997 35.1406 10.6672 35.0858 10.5695 34.9881C10.4719 34.8904 10.417 34.7579 10.417 34.6198C10.417 34.4817 10.4719 34.3492 10.5695 34.2515C10.6672 34.1538 10.7997 34.099 10.9378 34.099H13.5732C13.7114 34.099 13.8439 34.1538 13.9415 34.2515C14.0392 34.3492 14.0941 34.4817 14.0941 34.6198C14.0941 34.7579 14.0392 34.8904 13.9415 34.9881C13.8439 35.0858 13.7114 35.1406 13.5732 35.1406H13.5889Z" fill="#4C5472"/>
<path d="M26.3179 35.1406H23.6825C23.5443 35.1406 23.4118 35.0858 23.3142 34.9881C23.2165 34.8904 23.1616 34.7579 23.1616 34.6198C23.1616 34.4817 23.2165 34.3492 23.3142 34.2515C23.4118 34.1538 23.5443 34.099 23.6825 34.099H26.3179C26.456 34.099 26.5885 34.1538 26.6862 34.2515C26.7838 34.3492 26.8387 34.4817 26.8387 34.6198C26.8387 34.7579 26.7838 34.8904 26.6862 34.9881C26.5885 35.0858 26.456 35.1406 26.3179 35.1406Z" fill="#4C5472"/>
<path d="M39.063 35.1406H36.4119C36.2738 35.1406 36.1413 35.0858 36.0437 34.9881C35.946 34.8904 35.8911 34.7579 35.8911 34.6198C35.8911 34.4817 35.946 34.3492 36.0437 34.2515C36.1413 34.1538 36.2738 34.099 36.4119 34.099H39.063C39.2011 34.099 39.3336 34.1538 39.4313 34.2515C39.5289 34.3492 39.5838 34.4817 39.5838 34.6198C39.5838 34.7579 39.5289 34.8904 39.4313 34.9881C39.3336 35.0858 39.2011 35.1406 39.063 35.1406Z" fill="#4C5472"/>
<path d="M19.9536 22.4375H17.3182C17.1801 22.4375 17.0476 22.3826 16.9499 22.285C16.8522 22.1873 16.7974 22.0548 16.7974 21.9167C16.7974 21.7785 16.8522 21.6461 16.9499 21.5484C17.0476 21.4507 17.1801 21.3958 17.3182 21.3958H19.9536C20.0917 21.3958 20.2242 21.4507 20.3219 21.5484C20.4196 21.6461 20.4744 21.7785 20.4744 21.9167C20.4744 22.0548 20.4196 22.1873 20.3219 22.285C20.2242 22.3826 20.0917 22.4375 19.9536 22.4375Z" fill="#4C5472"/>
<path d="M32.6826 22.4375H30.0472C29.9091 22.4375 29.7766 22.3826 29.6789 22.285C29.5812 22.1873 29.5264 22.0548 29.5264 21.9167C29.5264 21.7785 29.5812 21.6461 29.6789 21.5484C29.7766 21.4507 29.9091 21.3958 30.0472 21.3958H32.6826C32.8208 21.3958 32.9532 21.4507 33.0509 21.5484C33.1486 21.6461 33.2035 21.7785 33.2035 21.9167C33.2035 22.0548 33.1486 22.1873 33.0509 22.285C32.9532 22.3826 32.8208 22.4375 32.6826 22.4375Z" fill="#4C5472"/>
<path d="M3.16699 38.6302H46.8285V41.526H3.16699V38.6302Z" fill="#AA6650"/>
<path d="M5.90137 38.6302H44.0993V39.8854C44.0993 40.0691 44.0263 40.2453 43.8964 40.3752C43.7665 40.5051 43.5903 40.5781 43.4066 40.5781H6.59928C6.41557 40.5781 6.23937 40.5051 6.10947 40.3752C5.97956 40.2453 5.90658 40.0691 5.90658 39.8854V38.6302H5.90137Z" fill="#C37F50"/>
<path d="M0.520996 44H49.4793V47.5781H0.520996V44Z" fill="#AA6650"/>
<path d="M3.16699 44H46.8337V45.4844C46.8337 45.5986 46.8112 45.7117 46.7674 45.8172C46.7237 45.9228 46.6597 46.0186 46.5789 46.0994C46.4981 46.1802 46.4022 46.2442 46.2967 46.288C46.1912 46.3317 46.0781 46.3542 45.9639 46.3542H4.03678C3.8061 46.3542 3.58487 46.2625 3.42175 46.0994C3.25863 45.9363 3.16699 45.7151 3.16699 45.4844V44Z" fill="#C37F50"/>
<path d="M5.90137 41.526H8.7972V44H5.90137V41.526Z" fill="#965750"/>
<path d="M23.5522 41.526H26.4481V44H23.5522V41.526Z" fill="#965750"/>
<path d="M41.2031 41.526H44.099V44H41.2031V41.526Z" fill="#965750"/>
<path d="M5.90137 41.526H8.7972V42.7604H5.90137V41.526Z" fill="#7D4850"/>
<path d="M23.5522 41.526H26.4481V42.7604H23.5522V41.526Z" fill="#7D4850"/>
<path d="M41.2031 41.526H44.099V42.7604H41.2031V41.526Z" fill="#7D4850"/>
<path d="M32.2865 19.401H30.5156C30.2826 19.401 30.0938 19.5899 30.0938 19.8229V19.9531C30.0938 20.1861 30.2826 20.375 30.5156 20.375H32.2865C32.5195 20.375 32.7083 20.1861 32.7083 19.9531V19.8229C32.7083 19.5899 32.5195 19.401 32.2865 19.401Z" fill="white"/>
</svg>
