<svg width="42" height="38" viewBox="0 0 42 38" fill="none" xmlns="http://www.w3.org/2000/svg">
<path d="M38.4779 7.35902C32.7613 4.98317 27.046 2.60667 21.3288 0.231466C21.2163 0.184112 21.1034 0.137424 20.9903 0.0914051C20.8315 0.0239586 20.6595 -0.00684769 20.4871 0.00127324C20.3156 -0.00639042 20.1446 0.0244054 19.9866 0.0914051L2.83814 7.21766L2.49836 7.35902C1.56333 7.74678 2.06651 9.03392 3.00155 9.03392H37.974C38.9097 9.03327 39.4097 7.74614 38.4779 7.35902Z" fill="#909091"/>
<path d="M11.6621 7.35902L11.9992 7.21766C16.3561 5.40724 20.7129 3.59682 25.0651 1.78576L21.325 0.231466C21.2124 0.184111 21.0996 0.137424 20.9865 0.0914051C20.8277 0.0239585 20.6557 -0.00684769 20.4833 0.00127324C20.3118 -0.00639042 20.1408 0.0244054 19.9827 0.0914051L2.83497 7.21766L2.49519 7.35902C1.56015 7.74678 2.06333 9.03392 2.99837 9.03392H12.1607C11.2283 9.03327 10.7251 7.74613 11.6601 7.35902M37.3432 11.6406C37.3432 12.492 37.087 13.1806 36.7693 13.1806H4.53515C4.21937 13.1806 3.96389 12.492 3.96389 11.6406C3.96389 10.7899 4.21937 10.0986 4.53515 10.0986H36.7693C37.087 10.0986 37.3432 10.7899 37.3432 11.6406Z" fill="#7E7E7F"/>
<path d="M38.4066 29.6554C38.4066 30.2642 38.1329 30.7564 37.7964 30.7564H3.44187C3.10599 30.7564 2.8317 30.2642 2.8317 29.6554C2.8317 29.0452 3.10599 28.5517 3.44187 28.5517H37.7964C38.1336 28.5517 38.4066 29.0452 38.4066 29.6554ZM39.9109 32.5772C39.9109 33.2451 39.6159 33.7865 39.2515 33.7865H2.18067C1.8169 33.7865 1.52187 33.2451 1.52187 32.5772C1.52187 31.908 1.8169 31.3666 2.18067 31.3666H39.2515C39.6159 31.3666 39.9109 31.908 39.9109 32.5772ZM41.4361 36.2538C41.4361 37.2167 41.1177 38 40.7267 38H0.711329C0.320973 38.0007 0 37.2174 0 36.2538C0 35.2896 0.320973 34.5082 0.711329 34.5082H40.7267C41.1177 34.5082 41.4361 35.2896 41.4361 36.2538Z" fill="#909091"/>
<path d="M6.89344 12.8383C7.60348 12.8383 8.17928 12.9635 8.17928 13.1165L8.9801 28.8695C8.9801 29.0225 7.60283 29.1496 6.8928 29.1496C6.18147 29.1496 4.8042 29.0232 4.8042 28.8695L5.60501 13.1165C5.60631 12.9635 6.18212 12.8383 6.89344 12.8383Z" fill="#647E89"/>
<path d="M6.45061 28.8695L7.25013 13.1165C7.25013 13.0296 7.43039 12.9531 7.71376 12.9018C7.44272 12.8567 7.16824 12.8354 6.89349 12.8383C6.18216 12.8383 5.60571 12.9634 5.60571 13.1165L4.80554 28.8695C4.80554 29.0225 6.18281 29.1496 6.89414 29.1496C7.12304 29.1496 7.41677 29.1347 7.7144 29.1139C7.08543 29.0653 6.45061 28.9739 6.45061 28.8695Z" fill="#576F77"/>
<path d="M15.4041 12.8383C16.1154 12.8383 16.6919 12.9635 16.6919 13.1165L17.4914 28.8695C17.4914 29.0225 16.1154 29.1496 15.4041 29.1496C14.694 29.1496 13.3168 29.0232 13.3168 28.8695L14.1176 13.1165C14.1182 12.9635 14.694 12.8383 15.4041 12.8383ZM24.6727 12.8383C25.3841 12.8383 25.9599 12.9635 25.9599 13.1165L26.7594 28.8695C26.7594 29.0225 25.3834 29.1496 24.6721 29.1496C23.9614 29.1496 22.5848 29.0232 22.5848 28.8695L23.3856 13.1165C23.3863 12.9635 23.9621 12.8383 24.6727 12.8383ZM34.0296 12.8383C34.7416 12.8383 35.3174 12.9635 35.3174 13.1165L36.1163 28.8695C36.1163 29.0225 34.7409 29.1496 34.029 29.1496C33.3176 29.1496 31.9417 29.0232 31.9417 28.8695L32.7412 13.1165C32.7418 12.9635 33.3183 12.8383 34.0296 12.8383Z" fill="#647E89"/>
<path d="M14.9593 28.8695L15.7601 13.1165C15.7601 13.0296 15.9404 12.9531 16.2264 12.9019C15.954 12.8568 15.6782 12.8356 15.4022 12.8383C14.6922 12.8383 14.1164 12.9635 14.1164 13.1165L13.3156 28.8695C13.3156 29.0225 14.6928 29.1496 15.4029 29.1496C15.6324 29.1496 15.9268 29.1347 16.227 29.1139C15.5954 29.0653 14.9593 28.9739 14.9593 28.8695ZM24.2319 28.8695L25.0327 13.1165C25.0327 13.0296 25.2123 12.9531 25.4963 12.9019C25.2249 12.8567 24.95 12.8354 24.6748 12.8383C23.9641 12.8383 23.3889 12.9635 23.3889 13.1165L22.5881 28.8695C22.5881 29.0225 23.9647 29.1496 24.6754 29.1496C24.903 29.1496 25.1993 29.1347 25.497 29.1139C24.868 29.0653 24.2319 28.9739 24.2319 28.8695ZM33.5803 28.8695L34.3798 13.1165C34.3798 13.0296 34.5633 12.9531 34.8474 12.9019C34.5759 12.857 34.301 12.8357 34.0258 12.8383C33.3145 12.8383 32.7387 12.9635 32.7387 13.1165L31.9391 28.8695C31.9391 29.0225 33.3151 29.1496 34.0264 29.1496C34.2527 29.1496 34.5504 29.1347 34.848 29.1139C34.2171 29.0653 33.5803 28.9739 33.5803 28.8695Z" fill="#576F77"/>
</svg>
