<svg width="50" height="50" viewBox="0 0 50 50" fill="none" xmlns="http://www.w3.org/2000/svg">
<path d="M48.7369 23.4183C48.0147 21.2911 45.7084 20.1537 43.581 20.8763C42.7777 21.149 42.1155 21.6502 41.6412 22.2824L37.3407 20.1621C36.9669 19.9778 36.5146 20.1314 36.3304 20.5053C36.1461 20.879 36.2997 21.3313 36.6735 21.5157L40.9738 23.6359C40.7606 24.3976 40.7661 25.2285 41.0391 26.0322C41.7632 28.165 44.0729 29.2948 46.195 28.5742C46.5897 28.4402 46.8009 28.0117 46.6669 27.6172C46.5329 27.2226 46.1041 27.0113 45.7099 27.1454C44.3725 27.5994 42.9222 26.8851 42.468 25.5471C42.0149 24.2127 42.7319 22.7584 44.0662 22.3053C45.4035 21.8512 46.8539 22.5657 47.3081 23.9036C47.4421 24.2982 47.8708 24.5094 48.2652 24.3754C48.6598 24.2413 48.871 23.8129 48.7369 23.4183Z" fill="#766D78"/>
<path d="M36.5097 23.4342C38.225 23.4342 39.6155 22.0436 39.6155 20.3283C39.6155 18.613 38.225 17.2225 36.5097 17.2225C34.7944 17.2225 33.4038 18.613 33.4038 20.3283C33.4038 22.0436 34.7944 23.4342 36.5097 23.4342Z" fill="#766D78"/>
<path d="M38.6166 22.6097C38.0623 23.1218 37.3238 23.4346 36.51 23.4346C34.7946 23.4346 33.4033 22.0433 33.4033 20.3279C33.4033 18.6126 34.7946 17.2223 36.51 17.2223C36.7062 17.2223 36.8993 17.2403 37.0855 17.2756C36.4708 17.842 36.0864 18.6549 36.0864 19.5573C36.0864 21.0766 37.176 22.3401 38.6166 22.6097Z" fill="#655E67"/>
<path d="M37.2992 15.2529L28.7434 1.67392L21.7446 6.4915L31.3729 19.3323C32.0834 20.279 33.4131 20.4966 34.3873 19.826L36.6852 18.2442C37.6594 17.5736 37.9309 16.2539 37.2992 15.2529Z" fill="#F0A70A"/>
<path d="M34.969 19.4256L34.3876 19.826C33.4138 20.496 32.0838 20.2787 31.3735 19.332L21.7446 6.49101L28.7437 1.67412L29.8091 3.36425L25.2658 6.49101L34.8946 19.332C34.9188 19.3643 34.9429 19.3954 34.969 19.4256Z" fill="#E38803"/>
<path d="M8.5591 24.4927C6.17892 22.1345 6.23927 18.2693 8.69211 15.9867L24.9892 0.82002C26.1901 -0.297558 28.059 -0.268359 29.2243 0.886231L31.9726 3.60918C33.138 4.76377 33.1845 6.63232 32.0781 7.84356L17.0634 24.2807C14.8036 26.7546 10.9393 26.8509 8.5591 24.4927Z" fill="#FDC202"/>
<path d="M26.8653 7.47168C27.714 7.47168 28.402 6.78366 28.402 5.93496C28.402 5.08625 27.714 4.39824 26.8653 4.39824C26.0166 4.39824 25.3286 5.08625 25.3286 5.93496C25.3286 6.78366 26.0166 7.47168 26.8653 7.47168Z" fill="#655E67"/>
<path d="M11.0069 25.6328C11.1678 25.7918 11.3348 25.9406 11.5089 26.0765C10.4304 25.8552 9.40226 25.328 8.5592 24.493C6.17892 22.1349 6.23927 18.2696 8.69201 15.9869L24.9888 0.819921C26.19 -0.297754 28.0592 -0.268555 29.2242 0.886328L29.4818 1.14189C28.7474 1.1499 28.015 1.42158 27.4375 1.95977L11.1398 17.1268C8.68693 19.4095 8.62658 23.2747 11.0069 25.6328Z" fill="#F0A70A"/>
<path d="M50.0002 42.2817V45.0846C50.0002 46.7506 48.6491 48.1026 46.9821 48.1026H18.8281V39.2637H46.982C48.6491 39.2637 50.0002 40.6147 50.0002 42.2817Z" fill="#8E8391"/>
<path d="M32.7605 45.471C33.6738 45.471 34.4142 44.7306 34.4142 43.8174C34.4142 42.9041 33.6738 42.1638 32.7605 42.1638C31.8473 42.1638 31.1069 42.9041 31.1069 43.8174C31.1069 44.7306 31.8473 45.471 32.7605 45.471Z" fill="#D8CECC"/>
<path d="M43.3343 45.471C44.2475 45.471 44.9879 44.7306 44.9879 43.8174C44.9879 42.9041 44.2475 42.1638 43.3343 42.1638C42.421 42.1638 41.6807 42.9041 41.6807 43.8174C41.6807 44.7306 42.421 45.471 43.3343 45.471Z" fill="#D8CECC"/>
<path d="M33.5771 39.2634H28.1445V33.4262C28.1445 33.1483 28.3697 32.9231 28.6476 32.9231H33.0741C33.352 32.9231 33.5771 33.1483 33.5771 33.4262V39.2634Z" fill="#40C1FA"/>
<path d="M44.8745 39.2634H39.4419V33.4262C39.4419 33.1483 39.6671 32.9231 39.9449 32.9231H44.3715C44.6493 32.9231 44.8745 33.1483 44.8745 33.4262V39.2634Z" fill="#40C1FA"/>
<path d="M31.3644 32.9236C31.0867 32.9236 30.8613 33.148 30.8613 33.4267V39.2637H28.145V33.4267C28.145 33.148 28.3704 32.9236 28.648 32.9236H31.3644Z" fill="#07A9F0"/>
<path d="M42.6607 32.9236C42.3831 32.9236 42.1577 33.148 42.1577 33.4267V39.2637H39.4414V33.4267C39.4414 33.148 39.6668 32.9236 39.9444 32.9236H42.6607Z" fill="#07A9F0"/>
<path d="M28.7186 41.8109V48.1027H18.8281V39.2637H27.8573C28.3976 39.9699 28.7186 40.8532 28.7186 41.8109Z" fill="#766D78"/>
<path d="M22.3582 40.2254H3.04053L3.98535 16.9372C4.11289 13.7929 6.69902 11.3096 9.8459 11.3096H15.5528C18.6997 11.3096 21.2858 13.7929 21.4134 16.9372L22.3582 40.2254Z" fill="#B3ADB6"/>
<path d="M12.6991 19.396C13.953 19.396 14.9695 18.3795 14.9695 17.1256C14.9695 15.8717 13.953 14.8552 12.6991 14.8552C11.4452 14.8552 10.4287 15.8717 10.4287 17.1256C10.4287 18.3795 11.4452 19.396 12.6991 19.396Z" fill="#655E67"/>
<path d="M13.367 11.3099C10.2201 11.3099 7.63359 13.7928 7.50586 16.9376L6.56123 40.2253H3.04004L3.98467 16.9376C4.1124 13.7928 6.69893 11.3099 9.8458 11.3099H13.367Z" fill="#A49CA7"/>
<path d="M22.0234 33.1992H3.53545C2.4415 33.1992 1.55469 32.3124 1.55469 31.2185V25.559C1.55469 24.465 2.4415 23.5782 3.53545 23.5782H22.0234C23.1174 23.5782 24.0042 24.465 24.0042 25.559V31.2185C24.0042 32.3124 23.1174 33.1992 22.0234 33.1992Z" fill="#FDC202"/>
<path d="M14.2826 26.1767H13.9747C13.558 26.1767 13.2202 26.5144 13.2202 26.9311C13.2202 27.3478 13.558 27.6856 13.9747 27.6856H14.2826C14.6993 27.6856 15.0371 27.3478 15.0371 26.9311C15.0371 26.5144 14.6993 26.1767 14.2826 26.1767Z" fill="#FFF5F4"/>
<path d="M17.3843 26.1767H17.0763C16.6596 26.1767 16.3218 26.5144 16.3218 26.9311C16.3218 27.3478 16.6596 27.6856 17.0763 27.6856H17.3843C17.801 27.6856 18.1388 27.3478 18.1388 26.9311C18.1388 26.5144 17.801 26.1767 17.3843 26.1767Z" fill="#FFF5F4"/>
<path d="M20.1783 27.6857H20.4862C20.9029 27.6857 21.2407 27.3479 21.2407 26.9312C21.2407 26.5145 20.9029 26.1768 20.4862 26.1768H20.1783C19.7616 26.1768 19.4238 26.5145 19.4238 26.9312C19.4237 27.3478 19.7616 27.6857 20.1783 27.6857Z" fill="#FFF5F4"/>
<path d="M14.2826 29.0918H13.9747C13.558 29.0918 13.2202 29.4296 13.2202 29.8463C13.2202 30.263 13.558 30.6008 13.9747 30.6008H14.2826C14.6993 30.6008 15.0371 30.263 15.0371 29.8463C15.0371 29.4297 14.6993 29.0918 14.2826 29.0918Z" fill="#FFF5F4"/>
<path d="M17.3843 29.0918H17.0763C16.6596 29.0918 16.3218 29.4296 16.3218 29.8463C16.3218 30.263 16.6596 30.6008 17.0763 30.6008H17.3843C17.801 30.6008 18.1388 30.263 18.1388 29.8463C18.1388 29.4297 17.801 29.0918 17.3843 29.0918Z" fill="#FFF5F4"/>
<path d="M20.4862 29.0918H20.1783C19.7616 29.0918 19.4238 29.4296 19.4238 29.8463C19.4238 30.263 19.7616 30.6008 20.1783 30.6008H20.4862C20.9029 30.6008 21.2407 30.263 21.2407 29.8463C21.2408 29.4297 20.9029 29.0918 20.4862 29.0918Z" fill="#FFF5F4"/>
<path d="M1.00605 49.9994H24.3925C24.9481 49.9994 25.3985 49.549 25.3985 48.9934V41.8104C25.3985 39.4919 23.5189 37.6122 21.2003 37.6122H4.19824C1.87969 37.6122 0 39.4918 0 41.8104V48.9934C0 49.549 0.450391 49.9994 1.00605 49.9994Z" fill="#FDC202"/>
<path d="M5.44512 46.3069C6.35838 46.3069 7.09873 45.5666 7.09873 44.6533C7.09873 43.7401 6.35838 42.9997 5.44512 42.9997C4.53185 42.9997 3.7915 43.7401 3.7915 44.6533C3.7915 45.5666 4.53185 46.3069 5.44512 46.3069Z" fill="#655E67"/>
<path d="M20.7015 41.4117H20.5193V41.1604C20.5193 40.7437 20.1815 40.406 19.7648 40.406C19.3481 40.406 19.0104 40.7437 19.0104 41.1604V41.4117H18.8282C18.4115 41.4117 18.0737 41.7495 18.0737 42.1662C18.0737 42.5829 18.4115 42.9207 18.8282 42.9207H19.0104V46.4511C19.0104 46.8678 19.3481 47.2056 19.7648 47.2056C20.1815 47.2056 20.5193 46.8678 20.5193 46.4511V42.9207H20.7015C21.1182 42.9207 21.456 42.5829 21.456 42.1662C21.456 41.7495 21.1183 41.4117 20.7015 41.4117Z" fill="#655E67"/>
<path d="M16.6326 44.1419H16.4505V41.1605C16.4505 40.7438 16.1127 40.4061 15.696 40.4061C15.2793 40.4061 14.9415 40.7438 14.9415 41.1605V44.1419H14.7594C14.3427 44.1419 14.0049 44.4797 14.0049 44.8964C14.0049 45.3131 14.3427 45.6509 14.7594 45.6509H14.9415V46.4512C14.9415 46.8679 15.2793 47.2057 15.696 47.2057C16.1127 47.2057 16.4505 46.8679 16.4505 46.4512V45.6509H16.6326C17.0493 45.6509 17.3871 45.3131 17.3871 44.8964C17.3871 44.4797 17.0493 44.1419 16.6326 44.1419Z" fill="#655E67"/>
<path d="M12.5633 42.2453H12.3812V41.1607C12.3812 40.744 12.0434 40.4062 11.6267 40.4062C11.21 40.4062 10.8722 40.744 10.8722 41.1607V42.2453H10.69C10.2733 42.2453 9.93555 42.5831 9.93555 42.9998C9.93555 43.4165 10.2733 43.7543 10.69 43.7543H10.8722V46.4513C10.8722 46.868 11.21 47.2058 11.6267 47.2058C12.0434 47.2058 12.3812 46.868 12.3812 46.4513V43.7543H12.5633C12.98 43.7543 13.3178 43.4165 13.3178 42.9998C13.3179 42.5831 12.9801 42.2453 12.5633 42.2453Z" fill="#655E67"/>
<path d="M7.05615 33.1992H3.53506C2.4415 33.1992 1.5542 32.3119 1.5542 31.2184V25.5594C1.5542 24.4647 2.4415 23.5785 3.53506 23.5785H7.05615C5.9626 23.5785 5.07529 24.4648 5.07529 25.5594V31.2184C5.07529 32.3119 5.9626 33.1992 7.05615 33.1992Z" fill="#F0A70A"/>
<path d="M3.52109 41.8109V48.9931C3.52109 49.5494 3.97178 49.9991 4.52715 49.9991H1.00605C0.450684 49.999 0 49.5493 0 48.993V41.8108C0 39.4919 1.8793 37.6127 4.19814 37.6127H7.71924C5.40039 37.6127 3.52109 39.492 3.52109 41.8109Z" fill="#F0A70A"/>
<path d="M9.92568 30.4856H5.171C4.89316 30.4856 4.66797 30.2604 4.66797 29.9826V27.0109C4.66797 26.7331 4.89316 26.5079 5.171 26.5079H9.92568C10.2035 26.5079 10.4287 26.7331 10.4287 27.0109V29.9826C10.4287 30.2604 10.2034 30.4856 9.92568 30.4856Z" fill="#FFF5F4"/>
<path d="M8.69219 30.4859H5.171C4.89336 30.4859 4.66797 30.2605 4.66797 29.9829V27.011C4.66797 26.7334 4.89336 26.508 5.171 26.508H8.69209C8.41445 26.508 8.18906 26.7334 8.18906 27.011V29.9829C8.18916 30.2606 8.41445 30.4859 8.69219 30.4859Z" fill="#EBE0DA"/>
</svg>
