<svg width="37" height="36" viewBox="0 0 37 36" fill="none" xmlns="http://www.w3.org/2000/svg">
<path d="M13.8703 29.3595L10.312 25.8003C9.74006 25.2282 8.81262 25.2281 8.24045 25.8001C7.66828 26.3721 7.66819 27.2995 8.24016 27.8717L9.29846 28.9303H5.86936C4.81574 28.9303 3.87326 28.3895 3.34192 27.4822C2.79758 26.5526 2.82746 25.3936 3.37365 24.4651L6.77268 18.6866C7.18283 17.9893 6.95012 17.0915 6.25276 16.6813C5.55539 16.2712 4.65764 16.504 4.24748 17.2013L0.818966 23.0299C-0.260135 24.8642 -0.273611 27.0623 0.783127 28.9097C1.83967 30.7571 3.74113 31.8601 5.86936 31.8601H9.29846L8.24016 32.9186C7.66819 33.4907 7.66828 34.4183 8.24045 34.9902C8.81262 35.5622 9.74006 35.5621 10.312 34.9899L13.8703 31.4309C14.4422 30.8588 14.4422 29.9314 13.8703 29.3595Z" fill="#CCFC5C"/>
<path d="M35.1653 17.8708L30.314 16.5319C29.5343 16.3167 28.7276 16.7742 28.5123 17.554L27.1724 22.4051C26.9569 23.1849 27.4146 23.9917 28.1943 24.207C28.9741 24.4225 29.7809 23.9649 29.9963 23.1851L30.4154 21.6679L32.0903 24.5152C32.6349 25.4409 32.6366 26.5519 32.0934 27.4808C31.5603 28.3925 30.561 28.9303 29.5048 28.9303H22.6001C21.7911 28.9303 21.1353 29.5861 21.1353 30.3951C21.1353 31.2041 21.7911 31.86 22.6001 31.86H29.565C31.6933 31.86 33.5947 30.757 34.6513 28.9096C35.7079 27.0622 35.6945 24.8641 34.6154 23.0298L33.0203 20.318L34.386 20.6948C35.1659 20.9101 35.9726 20.4523 36.1878 19.6725C36.4029 18.8927 35.9452 18.086 35.1653 17.8708Z" fill="#9CDD05"/>
<path d="M26.3042 8.90049L22.7678 2.88857C21.7038 1.07988 19.8159 0 17.7174 0C15.619 0 13.731 1.07988 12.667 2.88857L10.8424 5.99033L10.3736 4.40166C10.1446 3.62568 9.32992 3.18232 8.55395 3.41133C7.77807 3.64033 7.33471 4.45488 7.56371 5.23076L8.98823 10.0577C9.21713 10.8335 10.0316 11.2769 10.8075 11.0481L15.6347 9.6249C16.4107 9.39609 16.8543 8.58154 16.6255 7.80557C16.3967 7.02959 15.5822 6.58603 14.8062 6.81475L13.5361 7.18926L15.1921 4.37393C15.7243 3.46963 16.6682 2.92969 17.7174 2.92969C18.7666 2.92969 19.7106 3.46963 20.2426 4.37402L23.779 10.3858C24.1892 11.0831 25.0871 11.3159 25.7843 10.9057C26.4817 10.4955 26.7144 9.59775 26.3042 8.90049Z" fill="#CCFC5C"/>
<path d="M20.2425 4.37402L23.7789 10.3858C24.1891 11.0831 25.0869 11.3159 25.7842 10.9057C26.4814 10.4955 26.7143 9.59766 26.304 8.90039L22.7676 2.88848C21.7037 1.07988 19.8157 0 17.7173 0V2.92969C18.7665 2.92969 19.7104 3.46963 20.2425 4.37402Z" fill="#9CDD05"/>
</svg>
