<svg width="12" height="10" viewBox="0 0 12 10" fill="none" xmlns="http://www.w3.org/2000/svg">
<path d="M0 5C0 6.32608 0.526784 7.59785 1.46447 8.53553C2.40215 9.47322 3.67392 10 5 10C6.32778 10 7.6 9.47778 8.55556 8.55556L7.72222 7.72222C7.37234 8.09247 6.95025 8.38702 6.48203 8.58769C6.0138 8.78835 5.50941 8.89087 5 8.88889C1.53333 8.88889 -0.2 4.7 2.25 2.25C4.7 -0.2 8.88889 1.53889 8.88889 5H7.22222L9.44444 7.22222H9.5L11.6667 5H10C10 3.67392 9.47322 2.40215 8.53553 1.46447C7.59785 0.526784 6.32608 0 5 0C3.67392 0 2.40215 0.526784 1.46447 1.46447C0.526784 2.40215 0 3.67392 0 5Z" fill="white"/>
</svg>
