<svg width="18" height="15" viewBox="0 0 18 15" fill="none" xmlns="http://www.w3.org/2000/svg">
<path d="M0 7.5C0 9.48912 0.812753 11.3968 2.25946 12.8033C3.70617 14.2098 5.66833 15 7.71429 15C9.76286 15 11.7257 14.2167 13.2 12.8333L11.9143 11.5833C11.3745 12.1387 10.7232 12.5805 10.0008 12.8815C9.27844 13.1825 8.50023 13.3363 7.71429 13.3333C2.36571 13.3333 -0.308571 7.05 3.47143 3.375C7.25143 -0.3 13.7143 2.30833 13.7143 7.5H11.1429L14.5714 10.8333H14.6571L18 7.5H15.4286C15.4286 5.51088 14.6158 3.60322 13.1691 2.1967C11.7224 0.790176 9.76024 0 7.71429 0C5.66833 0 3.70617 0.790176 2.25946 2.1967C0.812753 3.60322 0 5.51088 0 7.5Z" fill="#EAB93B"/>
</svg>
