<svg width="12" height="14" viewBox="0 0 12 14" fill="none" xmlns="http://www.w3.org/2000/svg">
<path opacity="0.2" d="M2.25 14C1.8375 14 1.4845 13.8478 1.191 13.5434C0.897 13.2386 0.75 12.8722 0.75 12.4444V2.33333C0.5375 2.33333 0.35925 2.25893 0.21525 2.11011C0.0717501 1.96078 0 1.77593 0 1.55556C0 1.33519 0.0717501 1.15033 0.21525 1.001C0.35925 0.852185 0.5375 0.777778 0.75 0.777778H3.75C3.75 0.557407 3.822 0.372556 3.966 0.223222C4.1095 0.0744074 4.2875 0 4.5 0H7.5C7.7125 0 7.89075 0.0744074 8.03475 0.223222C8.17825 0.372556 8.25 0.557407 8.25 0.777778H11.25C11.4625 0.777778 11.6405 0.852185 11.784 1.001C11.928 1.15033 12 1.33519 12 1.55556C12 1.77593 11.928 1.96078 11.784 2.11011C11.6405 2.25893 11.4625 2.33333 11.25 2.33333V12.4444C11.25 12.8722 11.1033 13.2386 10.8097 13.5434C10.5157 13.8478 10.1625 14 9.75 14H2.25ZM2.25 2.33333V12.4444H9.75V2.33333H2.25ZM2.25 2.33333V12.4444V2.33333ZM6 8.47778L7.425 9.95556C7.575 10.0981 7.75325 10.1694 7.95975 10.1694C8.16575 10.1694 8.3375 10.0981 8.475 9.95556C8.625 9.8 8.7 9.61515 8.7 9.401C8.7 9.18737 8.625 9.00926 8.475 8.86667L7.05 7.38889L8.475 5.91111C8.625 5.75556 8.7 5.5707 8.7 5.35656C8.7 5.14293 8.625 4.96481 8.475 4.82222C8.3375 4.66667 8.16575 4.58889 7.95975 4.58889C7.75325 4.58889 7.575 4.66667 7.425 4.82222L6 6.3L4.575 4.82222C4.4375 4.66667 4.26575 4.58889 4.05975 4.58889C3.85325 4.58889 3.675 4.66667 3.525 4.82222C3.3875 4.96481 3.31875 5.14293 3.31875 5.35656C3.31875 5.5707 3.3875 5.75556 3.525 5.91111L4.95 7.38889L3.525 8.86667C3.3875 9.00926 3.31875 9.18737 3.31875 9.401C3.31875 9.61515 3.3875 9.8 3.525 9.95556C3.675 10.0981 3.85325 10.1694 4.05975 10.1694C4.26575 10.1694 4.4375 10.0981 4.575 9.95556L6 8.47778Z" fill="black"/>
</svg>
