<svg width="50" height="50" viewBox="0 0 50 50" fill="none" xmlns="http://www.w3.org/2000/svg">
<path d="M21.8284 12.3265C21.9858 13.806 21.7887 15.3016 21.2536 16.6899C20.7184 18.0781 19.8605 19.3189 18.7507 20.3099C17.3194 21.5391 16.2409 23.1271 15.6261 24.9109C15.5792 25.0359 16.2666 24.9968 9.3769 24.9968C8.74658 23.1458 7.64236 21.4921 6.17419 20.2005C5.04677 19.1786 4.18507 17.8976 3.66352 16.4682C3.14198 15.0387 2.97626 13.5038 3.18068 11.9959C3.38511 10.4881 3.95353 9.05267 4.83685 7.81367C5.72017 6.57467 6.89184 5.56933 8.25065 4.88449C9.60946 4.19965 11.1146 3.8559 12.636 3.88292C14.1574 3.90994 15.6493 4.30692 16.9829 5.03958C18.3166 5.77224 19.4518 6.81854 20.2906 8.08812C21.1293 9.35771 21.6464 10.8124 21.7972 12.3265H21.8284Z" fill="#D9D9D9"/>
<path d="M11.7204 27.5668L8.5958 17.4118C8.55947 17.2924 8.55231 17.1659 8.57493 17.0431C8.59755 16.9203 8.64928 16.8047 8.72579 16.706C8.8023 16.6073 8.90135 16.5284 9.01465 16.4758C9.12795 16.4233 9.25219 16.3987 9.37695 16.4041H15.6262C15.7509 16.3987 15.8752 16.4233 15.9885 16.4758C16.1018 16.5284 16.2008 16.6073 16.2773 16.706C16.3538 16.8047 16.4056 16.9203 16.4282 17.0431C16.4508 17.1659 16.4436 17.2924 16.4073 17.4118L13.2827 27.5668C13.2827 27.774 13.2004 27.9726 13.0539 28.1191C12.9074 28.2656 12.7087 28.3479 12.5016 28.3479C12.2944 28.3479 12.0957 28.2656 11.9492 28.1191C11.8027 27.9726 11.7204 27.774 11.7204 27.5668ZM10.4315 17.9664L12.5016 24.6843L14.5716 17.9664H10.4315Z" fill="#F3F3F3"/>
<path d="M43.7475 10.9361V26.5591H28.1245V7.8115C28.1245 7.39715 28.2891 6.99977 28.5821 6.70679C28.8751 6.4138 29.2725 6.2492 29.6868 6.2492H39.0606L43.7475 10.9361Z" fill="#F3F3F3"/>
<path d="M37.4983 21.9269V20.2552C37.4993 20.0569 37.461 19.8604 37.3856 19.6771C37.3102 19.4937 37.1992 19.3271 37.059 19.1869C36.9188 19.0467 36.7522 18.9356 36.5688 18.8603C36.3855 18.7849 36.1889 18.7466 35.9907 18.7476C35.6777 18.7459 35.3731 18.6463 35.1195 18.4628C34.866 18.2793 34.6762 18.0211 34.5768 17.7243C34.4517 17.3759 34.3083 17.0343 34.1472 16.701C34.0087 16.4197 33.9614 16.1023 34.0118 15.7929C34.0622 15.4835 34.2078 15.1974 34.4284 14.9746C34.7093 14.6909 34.867 14.3077 34.867 13.9084C34.867 13.509 34.7093 13.1259 34.4284 12.8421L33.2488 11.6626C32.9651 11.3816 32.5819 11.224 32.1826 11.224C31.7832 11.224 31.4001 11.3816 31.1163 11.6626C30.8935 11.8831 30.6075 12.0287 30.2981 12.0791C29.9887 12.1295 29.6712 12.0822 29.3899 11.9438C29.0566 11.7827 28.7151 11.6393 28.3666 11.5142C28.0699 11.4147 27.8117 11.2249 27.6281 10.9714C27.4446 10.7178 27.3451 10.4132 27.3433 10.1003C27.3413 9.70106 27.1818 9.31878 26.8995 9.03649C26.6172 8.7542 26.2349 8.5947 25.8357 8.59265H24.1641C23.9658 8.59161 23.7693 8.6299 23.5859 8.7053C23.4025 8.7807 23.2359 8.89171 23.0957 9.03191C22.9555 9.17211 22.8445 9.33872 22.7691 9.5221C22.6937 9.70549 22.6554 9.902 22.6564 10.1003C22.6547 10.4132 22.5551 10.7178 22.3716 10.9714C22.1881 11.2249 21.9299 11.4147 21.6331 11.5142C21.2847 11.6393 20.9431 11.7827 20.6098 11.9438C20.3285 12.0822 20.0111 12.1295 19.7017 12.0791C19.3923 12.0287 19.1063 11.8831 18.8835 11.6626C18.5997 11.3816 18.2165 11.224 17.8172 11.224C17.4179 11.224 17.0347 11.3816 16.7509 11.6626L15.5714 12.8421C15.2904 13.1259 15.1328 13.509 15.1328 13.9084C15.1328 14.3077 15.2904 14.6909 15.5714 14.9746C15.7919 15.1974 15.9376 15.4835 15.988 15.7929C16.0384 16.1023 15.9911 16.4197 15.8526 16.701C15.6915 17.0343 15.5481 17.3759 15.423 17.7243C15.3236 18.0211 15.1338 18.2793 14.8802 18.4628C14.6267 18.6463 14.3221 18.7459 14.0091 18.7476C13.6099 18.7497 13.2276 18.9092 12.9453 19.1914C12.663 19.4737 12.5035 19.856 12.5015 20.2552V21.9269C12.5004 22.1252 12.5387 22.3217 12.6141 22.505C12.6895 22.6884 12.8005 22.855 12.9407 22.9952C13.081 23.1354 13.2476 23.2465 13.4309 23.3218C13.6143 23.3972 13.8108 23.4355 14.0091 23.4345C14.3221 23.4362 14.6267 23.5358 14.8802 23.7193C15.1338 23.9028 15.3236 24.161 15.423 24.4578C15.5481 24.8062 15.6915 25.1478 15.8526 25.4811C15.9911 25.7624 16.0384 26.0798 15.988 26.3892C15.9376 26.6987 15.7919 26.9847 15.5714 27.2075C15.2904 27.4912 15.1328 27.8744 15.1328 28.2737C15.1328 28.6731 15.2904 29.0562 15.5714 29.34L16.7509 30.5195C17.0347 30.8005 17.4179 30.9581 17.8172 30.9581C18.2165 30.9581 18.5997 30.8005 18.8835 30.5195C19.1063 30.299 19.3923 30.1534 19.7017 30.103C20.0111 30.0526 20.3285 30.0999 20.6098 30.2383C20.9431 30.3994 21.2847 30.5428 21.6331 30.6679C21.9299 30.7674 22.1881 30.9572 22.3716 31.2107C22.5551 31.4643 22.6547 31.7689 22.6564 32.0818C22.6585 32.481 22.818 32.8633 23.1003 33.1456C23.3826 33.4279 23.7648 33.5874 24.1641 33.5895H25.8357C26.034 33.5905 26.2305 33.5522 26.4139 33.4768C26.5973 33.4014 26.7639 33.2904 26.9041 33.1502C27.0443 33.01 27.1553 32.8434 27.2307 32.66C27.3061 32.4766 27.3444 32.2801 27.3433 32.0818C27.3451 31.7689 27.4446 31.4643 27.6281 31.2107C27.8117 30.9572 28.0699 30.7674 28.3666 30.6679C28.7151 30.5428 29.0566 30.3994 29.3899 30.2383C29.6712 30.0999 29.9887 30.0526 30.2981 30.103C30.6075 30.1534 30.8935 30.299 31.1163 30.5195C31.4056 30.7897 31.7867 30.94 32.1826 30.94C32.5784 30.94 32.9595 30.7897 33.2488 30.5195L34.4284 29.34C34.7093 29.0562 34.867 28.6731 34.867 28.2737C34.867 27.8744 34.7093 27.4912 34.4284 27.2075C34.2078 26.9847 34.0622 26.6987 34.0118 26.3892C33.9614 26.0798 34.0087 25.7624 34.1472 25.4811C34.3083 25.1478 34.4517 24.8062 34.5768 24.4578C34.6762 24.161 34.866 23.9028 35.1195 23.7193C35.3731 23.5358 35.6777 23.4362 35.9907 23.4345C36.3899 23.4324 36.7722 23.273 37.0544 22.9907C37.3367 22.7084 37.4962 22.3261 37.4983 21.9269Z" fill="#FFAC00"/>
<path d="M24.9998 26.5591C28.0197 26.5591 30.4678 24.111 30.4678 21.0911C30.4678 18.0711 28.0197 15.623 24.9998 15.623C21.9799 15.623 19.5317 18.0711 19.5317 21.0911C19.5317 24.111 21.9799 26.5591 24.9998 26.5591Z" fill="#F3F3F3"/>
<path d="M4.68994 23.4345H24.9998V49.9936H6.25224C5.83789 49.9936 5.44052 49.829 5.14753 49.536C4.85454 49.243 4.68994 48.8457 4.68994 48.4313V23.4345Z" fill="#93E6E5"/>
<path d="M25 23.4345H45.3099V48.4313C45.3099 48.8457 45.1453 49.243 44.8523 49.536C44.5593 49.829 44.162 49.9936 43.7476 49.9936H25V23.4345Z" fill="#50D9D7"/>
<path d="M4.69 23.4345L1.10452 27.6137C1.00746 27.7271 0.944954 27.8661 0.924416 28.014C0.903878 28.1619 0.926166 28.3126 0.988639 28.4482C1.05111 28.5838 1.15115 28.6987 1.27691 28.7792C1.40266 28.8598 1.54887 28.9026 1.69819 28.9026H18.2351C18.6456 28.9029 19.0521 28.8223 19.4314 28.6655C19.8107 28.5087 20.1554 28.2787 20.4458 27.9886L24.9999 23.4345H4.69Z" fill="#50D9D7"/>
<path d="M45.3099 23.4345L48.8954 27.6137C48.9924 27.7271 49.055 27.8661 49.0755 28.014C49.096 28.1619 49.0737 28.3126 49.0113 28.4482C48.9488 28.5838 48.8488 28.6987 48.723 28.7792C48.5972 28.8598 48.451 28.9026 48.3017 28.9026H31.7648C31.3543 28.9029 30.9478 28.8223 30.5685 28.6655C30.1892 28.5087 29.8445 28.2787 29.5541 27.9886L25 23.4345H45.3099Z" fill="#00BEBD"/>
<path d="M12.5017 44.5256H7.81484C7.38342 44.5256 7.03369 44.8753 7.03369 45.3067V46.869C7.03369 47.3004 7.38342 47.6502 7.81484 47.6502H12.5017C12.9332 47.6502 13.2829 47.3004 13.2829 46.869V45.3067C13.2829 44.8753 12.9332 44.5256 12.5017 44.5256Z" fill="#F3F3F3"/>
<path d="M28.9056 47.6502C29.7684 47.6502 30.4679 46.9507 30.4679 46.0879C30.4679 45.225 29.7684 44.5256 28.9056 44.5256C28.0427 44.5256 27.3433 45.225 27.3433 46.0879C27.3433 46.9507 28.0427 47.6502 28.9056 47.6502Z" fill="#F3F3F3"/>
<path d="M34.3738 47.6502C35.2367 47.6502 35.9361 46.9507 35.9361 46.0879C35.9361 45.225 35.2367 44.5256 34.3738 44.5256C33.511 44.5256 32.8115 45.225 32.8115 46.0879C32.8115 46.9507 33.511 47.6502 34.3738 47.6502Z" fill="#F3F3F3"/>
<path d="M43.7474 10.9361H40.6228C40.2085 10.9361 39.8111 10.7715 39.5181 10.4785C39.2251 10.1855 39.0605 9.78815 39.0605 9.3738V6.2492L43.7474 10.9361Z" fill="#D9D9D9"/>
<path d="M46.0909 21.8722C45.9357 21.8731 45.7838 21.8278 45.6545 21.742C45.5252 21.6562 45.4244 21.5339 45.3649 21.3906C45.3054 21.2473 45.2899 21.0895 45.3204 20.9374C45.351 20.7853 45.4261 20.6457 45.5363 20.5364L48.6609 17.4118C48.8079 17.2647 49.0074 17.1821 49.2155 17.1821C49.4235 17.1821 49.623 17.2647 49.7701 17.4118C49.9172 17.5589 49.9998 17.7584 49.9998 17.9665C49.9998 18.1745 49.9172 18.374 49.7701 18.5211L46.6455 21.6457C46.5725 21.7181 46.4859 21.7753 46.3908 21.8142C46.2956 21.8531 46.1937 21.8728 46.0909 21.8722Z" fill="#FFAC00"/>
<path d="M46.0909 17.1853C45.9357 17.1862 45.7838 17.1409 45.6545 17.0551C45.5252 16.9693 45.4244 16.847 45.3649 16.7037C45.3054 16.5604 45.2899 16.4026 45.3204 16.2505C45.351 16.0984 45.4261 15.9588 45.5363 15.8495L47.0986 14.2872C47.2456 14.1401 47.4451 14.0575 47.6532 14.0575C47.8612 14.0575 48.0607 14.1401 48.2078 14.2872C48.3549 14.4343 48.4375 14.6338 48.4375 14.8419C48.4375 15.0499 48.3549 15.2494 48.2078 15.3965C46.5049 17.0994 46.5127 17.1853 46.0909 17.1853Z" fill="#FFAC00"/>
<path d="M3.90895 21.8722C3.80614 21.8728 3.70423 21.8531 3.60906 21.8142C3.51389 21.7753 3.42732 21.7181 3.35433 21.6457L0.22973 18.5211C0.0826362 18.374 0 18.1745 0 17.9665C0 17.7584 0.0826362 17.5589 0.22973 17.4118C0.376823 17.2647 0.576325 17.1821 0.784346 17.1821C0.992368 17.1821 1.19187 17.2647 1.33896 17.4118L4.46356 20.5364C4.57373 20.6457 4.64886 20.7853 4.67938 20.9374C4.7099 21.0895 4.69442 21.2473 4.63492 21.3906C4.57543 21.5339 4.4746 21.6562 4.34531 21.742C4.21601 21.8278 4.0641 21.8731 3.90895 21.8722Z" fill="#FFAC00"/>
<path d="M46.0912 8.59265C46.5226 8.59265 46.8724 8.24292 46.8724 7.8115C46.8724 7.38008 46.5226 7.03035 46.0912 7.03035C45.6598 7.03035 45.3101 7.38008 45.3101 7.8115C45.3101 8.24292 45.6598 8.59265 46.0912 8.59265Z" fill="#50D9D7"/>
<path d="M1.56533 10.155C1.99675 10.155 2.34648 9.80522 2.34648 9.3738C2.34648 8.94238 1.99675 8.59265 1.56533 8.59265C1.13391 8.59265 0.78418 8.94238 0.78418 9.3738C0.78418 9.80522 1.13391 10.155 1.56533 10.155Z" fill="#50D9D7"/>
<path d="M10.1581 1.5623C10.5895 1.5623 10.9393 1.21257 10.9393 0.78115C10.9393 0.349733 10.5895 0 10.1581 0C9.72669 0 9.37695 0.349733 9.37695 0.78115C9.37695 1.21257 9.72669 1.5623 10.1581 1.5623Z" fill="#50D9D7"/>
<path d="M24.9999 3.90575C25.4313 3.90575 25.7811 3.55602 25.7811 3.1246C25.7811 2.69319 25.4313 2.34345 24.9999 2.34345C24.5685 2.34345 24.2188 2.69319 24.2188 3.1246C24.2188 3.55602 24.5685 3.90575 24.9999 3.90575Z" fill="#50D9D7"/>
<path d="M35.9359 3.90575C36.3674 3.90575 36.7171 3.55602 36.7171 3.1246C36.7171 2.69319 36.3674 2.34345 35.9359 2.34345C35.5045 2.34345 35.1548 2.69319 35.1548 3.1246C35.1548 3.55602 35.5045 3.90575 35.9359 3.90575Z" fill="#50D9D7"/>
</svg>
