<svg width="20" height="15" viewBox="0 0 20 15" fill="none" xmlns="http://www.w3.org/2000/svg">
<path d="M10 0C4.47708 0 0 1.91886 0 4.28571V10.7143C0 13.0811 4.47708 15 10 15C15.5229 15 20 13.0811 20 10.7143V4.28571C20 1.91886 15.5229 0 10 0ZM7.1184 5.30223C6.96389 5.85837 6.61354 6.32578 6.13542 6.65759C3.48021 6.2096 1.66667 5.31629 1.66667 4.28571C1.66667 3.27589 3.4066 2.39766 5.97361 1.94096L6.8625 3.42556C7.20486 3.99777 7.29583 4.66406 7.1184 5.30223ZM10 6.96429C9.26806 6.96429 8.56215 6.9308 7.88576 6.87388C8.16563 5.999 9.00208 5.35714 10 5.35714C10.9979 5.35714 11.8344 5.999 12.1142 6.87388C11.4378 6.9308 10.7319 6.96429 10 6.96429ZM12.2222 2.14286C12.2222 3.32444 11.2253 4.28571 10 4.28571C8.77465 4.28571 7.77778 3.32444 7.77778 2.14286V1.70625C8.48611 1.6433 9.22917 1.60714 10 1.60714C10.7708 1.60714 11.5139 1.6433 12.2222 1.70625V2.14286ZM13.8517 6.6596C13.3722 6.32779 13.0205 5.85938 12.8656 5.30223C12.6882 4.66406 12.7792 3.99777 13.1219 3.42589L14.0125 1.93862C16.5875 2.39397 18.3333 3.27422 18.3333 4.28571C18.3333 5.31797 16.5139 6.21228 13.8517 6.6596Z" fill="#428BC1"/>
</svg>
