<svg width="20" height="20" viewBox="0 0 20 20" fill="none" xmlns="http://www.w3.org/2000/svg">
<circle opacity="0.5" cx="10" cy="10" r="10" fill="white"/>
<circle cx="10.0001" cy="10" r="8.33333" fill="white"/>
<path d="M4.16675 10C4.16675 11.3261 4.69353 12.5979 5.63121 13.5355C6.5689 14.4732 7.84067 15 9.16675 15C10.4945 15 11.7667 14.4778 12.7223 13.5556L11.889 12.7222C11.5391 13.0925 11.117 13.387 10.6488 13.5877C10.1806 13.7884 9.67615 13.8909 9.16675 13.8889C5.70008 13.8889 3.96675 9.7 6.41675 7.25C8.86675 4.8 13.0556 6.53889 13.0556 10H11.389L13.6112 12.2222H13.6667L15.8334 10H14.1667C14.1667 8.67392 13.64 7.40215 12.7023 6.46447C11.7646 5.52678 10.4928 5 9.16675 5C7.84067 5 6.5689 5.52678 5.63121 6.46447C4.69353 7.40215 4.16675 8.67392 4.16675 10Z" fill="#4C5EFE"/>
</svg>
