<svg width="50" height="48" viewBox="0 0 50 48" fill="none" xmlns="http://www.w3.org/2000/svg">
<path d="M49.0761 21.7523L45.0153 22.2406L40.8345 21.7523C40.3242 21.7523 39.9106 21.3387 39.9106 20.8285V18.9727C39.9106 18.4624 40.3243 18.0488 40.8345 18.0488H49.076C49.5862 18.0488 49.9998 18.4625 49.9998 18.9727V20.8285C49.9999 21.3387 49.5863 21.7523 49.0761 21.7523Z" fill="#FFD496"/>
<path d="M49.0761 29.16L44.7794 29.6482L40.8345 29.16C40.3242 29.16 39.9106 28.7463 39.9106 28.2361V26.3803C39.9106 25.87 40.3243 25.4564 40.8345 25.4564L44.3855 24.9682L49.076 25.4564C49.5862 25.4564 49.9998 25.8701 49.9998 26.3803V28.2361C49.9999 28.7464 49.5863 29.16 49.0761 29.16Z" fill="#FFD496"/>
<path d="M49.0761 36.5679L44.8266 37.0562L40.8345 36.5679C40.3242 36.5679 39.9106 36.1542 39.9106 35.644V33.7881C39.9106 33.2778 40.3243 32.8643 40.8345 32.8643L44.7794 32.376L49.0761 32.8643C49.5863 32.8643 49.9999 33.2779 49.9999 33.7881V35.6439C49.9999 36.1542 49.5863 36.5679 49.0761 36.5679Z" fill="#FFD496"/>
<path d="M49.076 43.9757L44.9209 44.464L40.8345 43.9757C40.3242 43.9757 39.9106 43.562 39.9106 43.0519V41.196C39.9106 40.6857 40.3243 40.2722 40.8345 40.2722L44.8266 39.7839L49.0761 40.2722C49.5863 40.2722 49.9999 40.6858 49.9999 41.196V43.0519C49.9998 43.5621 49.5862 43.9757 49.076 43.9757Z" fill="#FFD496"/>
<path d="M35.7723 40.2718L31.6133 40.7601L27.5308 40.2718C27.0205 40.2718 26.6069 39.8581 26.6069 39.3479V37.4921C26.6069 36.9818 27.0206 36.5683 27.5308 36.5683L31.5189 36.08L35.7724 36.5683C36.2826 36.5683 36.6962 36.9819 36.6962 37.4921V39.3479C36.6961 39.8581 36.2825 40.2718 35.7723 40.2718Z" fill="#FFD496"/>
<path d="M35.7723 32.864L31.5661 33.3522L27.5308 32.864C27.0205 32.864 26.6069 32.4503 26.6069 31.9401V30.0843C26.6069 29.574 27.0206 29.1604 27.5308 29.1604L31.3773 28.6722L35.7723 29.1604C36.2825 29.1604 36.6961 29.5741 36.6961 30.0843V31.9401C36.6961 32.4503 36.2825 32.864 35.7723 32.864Z" fill="#FFD496"/>
<path d="M22.4691 29.1598L18.4478 29.648L14.2275 29.1598C13.7173 29.1598 13.3037 28.7461 13.3037 28.2359V26.3801C13.3037 25.8698 13.7174 25.4562 14.2275 25.4562H22.469C22.9793 25.4562 23.3929 25.8699 23.3929 26.3801V28.2359C23.393 28.7461 22.9794 29.1598 22.4691 29.1598Z" fill="#FFD496"/>
<path d="M22.469 36.5679L18.4005 37.0562L14.2275 36.5679C13.7173 36.5679 13.3037 36.1542 13.3037 35.644V33.7881C13.3037 33.2778 13.7174 32.8643 14.2275 32.8643L18.259 32.376L22.4691 32.8643C22.9794 32.8643 23.393 33.2779 23.393 33.7881V35.6439C23.3929 36.1542 22.9793 36.5679 22.469 36.5679Z" fill="#FFD496"/>
<path d="M22.469 43.9757L18.3533 44.464L14.2275 43.9757C13.7173 43.9757 13.3037 43.562 13.3037 43.0519V41.196C13.3037 40.6857 13.7174 40.2722 14.2275 40.2722L18.3533 39.7839L22.469 40.2722C22.9793 40.2722 23.3929 40.6858 23.3929 41.196V43.0519C23.3929 43.5621 22.9793 43.9757 22.469 43.9757Z" fill="#FFD496"/>
<path d="M9.16543 40.2718L4.9042 40.7601L0.923828 40.2718C0.413574 40.2718 0 39.8581 0 39.3479V37.4921C0 36.9818 0.413672 36.5683 0.923828 36.5683L4.99854 36.08L9.16533 36.5683C9.67559 36.5683 10.0892 36.9819 10.0892 37.4921V39.3479C10.0893 39.8581 9.67559 40.2718 9.16543 40.2718Z" fill="#FFD496"/>
<path d="M11.6995 20.3236L8.49473 23.3569C7.44023 22.7218 6.61396 21.7447 6.1709 20.5808L9.73721 17.2035L11.6995 20.3236Z" fill="#17998C"/>
<path d="M1.80772 29.0072C1.32853 29.0072 0.8504 28.8179 0.494932 28.4424C-0.191396 27.7175 -0.160049 26.5735 0.564854 25.8873L9.73712 17.2035C10.0728 16.8857 10.5175 16.7086 10.9797 16.7086H31.04L45.3426 2.40605C46.0484 1.70019 47.1928 1.70019 47.8986 2.40605C48.6045 3.11191 48.6045 4.25625 47.8986 4.96211L33.0667 19.794C32.7277 20.133 32.268 20.3234 31.7887 20.3234H11.6995L3.05001 28.5123C2.7006 28.8432 2.25372 29.0072 1.80772 29.0072Z" fill="#20B69F"/>
<path d="M47.8992 4.96162L44.5385 8.32236C44.397 7.9206 44.3195 7.48789 44.3195 7.0376V6.00068H43.2826C42.824 6.00068 42.3841 5.92119 41.9761 5.77344L45.343 2.40644C46.0483 1.7 47.1927 1.7 47.8991 2.40644C48.6046 3.11191 48.6046 4.25625 47.8992 4.96162Z" fill="#17998C"/>
<path d="M48.1265 8.84355C47.1471 8.80869 46.385 7.97402 46.385 6.99404V4.43789C46.385 4.16006 46.1598 3.93486 45.8819 3.93486H43.3258C42.3457 3.93486 41.511 3.17275 41.4763 2.19336C41.4397 1.16514 42.2624 0.320019 43.2825 0.320019H48.1924C49.1906 0.320019 49.9998 1.1292 49.9998 2.12744V7.0373C49.9998 8.05742 49.1548 8.88017 48.1265 8.84355Z" fill="#23F1A8"/>
<path d="M11.341 22.0818C13.2552 22.0818 14.807 20.53 14.807 18.6158C14.807 16.7016 13.2552 15.1498 11.341 15.1498C9.42679 15.1498 7.875 16.7016 7.875 18.6158C7.875 20.53 9.42679 22.0818 11.341 22.0818Z" fill="#23F1A8"/>
<path d="M14.8072 18.6153C14.8072 20.5302 13.2549 22.0814 11.3411 22.0814C10.6419 22.0814 9.99023 21.8738 9.44492 21.5165C10.961 21.4194 12.1622 20.1573 12.1622 18.6153C12.1622 17.0733 10.961 15.8112 9.44385 15.7152C9.98916 15.3579 10.6408 15.1503 11.3411 15.1503C13.2549 15.1503 14.8072 16.7016 14.8072 18.6153Z" fill="#26D192"/>
<path d="M31.8947 21.5788C33.809 21.5788 35.3607 20.027 35.3607 18.1128C35.3607 16.1986 33.809 14.6468 31.8947 14.6468C29.9805 14.6468 28.4287 16.1986 28.4287 18.1128C28.4287 20.027 29.9805 21.5788 31.8947 21.5788Z" fill="#23F1A8"/>
<path d="M35.3609 18.1123C35.3609 20.0272 33.8086 21.5784 31.8948 21.5784C31.1956 21.5784 30.5439 21.3708 29.9986 21.0135C31.5147 20.9164 32.7159 19.6543 32.7159 18.1123C32.7159 16.5703 31.5147 15.3082 29.9976 15.2122C30.5429 14.8549 31.1945 14.6473 31.8948 14.6473C33.8086 14.6473 35.3609 16.1985 35.3609 18.1123Z" fill="#26D192"/>
<path d="M9.16543 47.6796H0.923828C0.413574 47.6796 0 47.2659 0 46.7558V44.8999C0 44.3896 0.413672 43.9761 0.923828 43.9761L4.85693 43.4878L9.16533 43.9761C9.67559 43.9761 10.0892 44.3897 10.0892 44.8999V46.7558C10.0893 47.266 9.67559 47.6796 9.16543 47.6796Z" fill="#FFD496"/>
<path d="M10.0893 44.9001V46.7562C10.0893 47.2661 9.67539 47.68 9.16543 47.68H6.27832C6.78828 47.68 7.20215 47.2661 7.20215 46.7562V44.9001C7.20215 44.3901 6.78828 43.9763 6.27832 43.9763H9.16533C9.67529 43.9762 10.0893 44.3901 10.0893 44.9001Z" fill="#FCC16D"/>
<path d="M9.16543 43.9757H0.923828C0.413574 43.9757 0 43.562 0 43.0519V41.196C0 40.6857 0.413672 40.2722 0.923828 40.2722H9.16533C9.67559 40.2722 10.0892 40.6858 10.0892 41.196V43.0519C10.0893 43.5621 9.67559 43.9757 9.16543 43.9757Z" fill="#FCA62F"/>
<path d="M10.0893 41.1961V43.0521C10.0893 43.5621 9.67539 43.976 9.16543 43.976H6.27832C6.78828 43.976 7.20215 43.5621 7.20215 43.0521V41.1961C7.20215 40.6861 6.78828 40.2723 6.27832 40.2723H9.16533C9.67529 40.2723 10.0893 40.6861 10.0893 41.1961Z" fill="#F98824"/>
<path d="M10.0893 37.4922V39.3482C10.0893 39.8582 9.67539 40.2721 9.16543 40.2721H6.27832C6.78828 40.2721 7.20215 39.8582 7.20215 39.3482V37.4922C7.20215 36.9822 6.78828 36.5684 6.27832 36.5684H9.16533C9.67529 36.5684 10.0893 36.9822 10.0893 37.4922Z" fill="#FCC16D"/>
<path d="M9.16543 36.568H0.923828C0.413574 36.568 0 36.1543 0 35.6441V33.7883C0 33.278 0.413672 32.8645 0.923828 32.8645H9.16533C9.67559 32.8645 10.0892 33.2781 10.0892 33.7883V35.6441C10.0893 36.1543 9.67559 36.568 9.16543 36.568Z" fill="#FCA62F"/>
<path d="M10.0893 33.7884V35.6444C10.0893 36.1544 9.67539 36.5683 9.16543 36.5683H6.27832C6.78828 36.5683 7.20215 36.1544 7.20215 35.6444V33.7884C7.20215 33.2784 6.78828 32.8646 6.27832 32.8646H9.16533C9.67529 32.8646 10.0893 33.2784 10.0893 33.7884Z" fill="#F98824"/>
<path d="M22.469 47.6796H14.2275C13.7173 47.6796 13.3037 47.2659 13.3037 46.7558V44.8999C13.3037 44.3896 13.7174 43.9761 14.2275 43.9761H22.469C22.9793 43.9761 23.3929 44.3897 23.3929 44.8999V46.7558C23.3929 47.266 22.9793 47.6796 22.469 47.6796Z" fill="#FCA62F"/>
<path d="M23.393 44.9001V46.7562C23.393 47.2661 22.9791 47.68 22.4691 47.68H19.582C20.092 47.68 20.5059 47.2661 20.5059 46.7562V44.9001C20.5059 44.3901 20.092 43.9763 19.582 43.9763H22.469C22.9791 43.9762 23.393 44.3901 23.393 44.9001Z" fill="#F98824"/>
<path d="M23.393 41.1961V43.0521C23.393 43.5621 22.9791 43.976 22.4691 43.976H19.582C20.092 43.976 20.5059 43.5621 20.5059 43.0521V41.1961C20.5059 40.6861 20.092 40.2723 19.582 40.2723H22.469C22.9791 40.2723 23.393 40.6861 23.393 41.1961Z" fill="#FCC16D"/>
<path d="M22.469 40.2718H14.2275C13.7173 40.2718 13.3037 39.8581 13.3037 39.3479V37.4921C13.3037 36.9818 13.7174 36.5683 14.2275 36.5683H22.469C22.9793 36.5683 23.3929 36.9819 23.3929 37.4921V39.3479C23.3929 39.8581 22.9793 40.2718 22.469 40.2718Z" fill="#FCA62F"/>
<path d="M23.393 37.4922V39.3482C23.393 39.8582 22.9791 40.2721 22.4691 40.2721H19.582C20.092 40.2721 20.5059 39.8582 20.5059 39.3482V37.4922C20.5059 36.9822 20.092 36.5684 19.582 36.5684H22.469C22.9791 36.5684 23.393 36.9822 23.393 37.4922Z" fill="#F98824"/>
<path d="M35.7723 47.6796H27.5308C27.0205 47.6796 26.6069 47.2659 26.6069 46.7558V44.8999C26.6069 44.3896 27.0206 43.9761 27.5308 43.9761L31.7549 43.4878L35.7724 43.9761C36.2826 43.9761 36.6962 44.3897 36.6962 44.8999V46.7558C36.6961 47.266 36.2825 47.6796 35.7723 47.6796Z" fill="#FFD496"/>
<path d="M36.6961 44.9001V46.7562C36.6961 47.2661 36.2822 47.68 35.7723 47.68H32.8853C33.3952 47.68 33.8091 47.2661 33.8091 46.7562V44.9001C33.8091 44.3901 33.3952 43.9763 32.8853 43.9763H35.7723C36.2822 43.9762 36.6961 44.3901 36.6961 44.9001Z" fill="#FCC16D"/>
<path d="M35.7723 43.9757H27.5308C27.0205 43.9757 26.6069 43.562 26.6069 43.0519V41.196C26.6069 40.6857 27.0206 40.2722 27.5308 40.2722H35.7723C36.2825 40.2722 36.6961 40.6858 36.6961 41.196V43.0519C36.6961 43.5621 36.2825 43.9757 35.7723 43.9757Z" fill="#FCA62F"/>
<path d="M36.6961 41.1961V43.0521C36.6961 43.5621 36.2822 43.976 35.7723 43.976H32.8853C33.3952 43.976 33.8091 43.5621 33.8091 43.0521V41.1961C33.8091 40.6861 33.3952 40.2723 32.8853 40.2723H35.7723C36.2822 40.2723 36.6961 40.6861 36.6961 41.1961Z" fill="#F98824"/>
<path d="M36.6961 37.4922V39.3482C36.6961 39.8582 36.2822 40.2721 35.7723 40.2721H32.8853C33.3952 40.2721 33.8091 39.8582 33.8091 39.3482V37.4922C33.8091 36.9822 33.3952 36.5684 32.8853 36.5684H35.7723C36.2822 36.5684 36.6961 36.9822 36.6961 37.4922Z" fill="#FCC16D"/>
<path d="M49.076 47.6796H40.8345C40.3242 47.6796 39.9106 47.2659 39.9106 46.7558V44.8999C39.9106 44.3896 40.3243 43.9761 40.8345 43.9761H49.076C49.5862 43.9761 49.9998 44.3897 49.9998 44.8999V46.7558C49.9998 47.266 49.5862 47.6796 49.076 47.6796Z" fill="#FCA62F"/>
<path d="M49.9998 44.9001V46.7562C49.9998 47.2661 49.5859 47.68 49.076 47.68H46.189C46.6989 47.68 47.1128 47.2661 47.1128 46.7562V44.9001C47.1128 44.3901 46.6989 43.9763 46.189 43.9763H49.076C49.5859 43.9762 49.9998 44.3901 49.9998 44.9001Z" fill="#F98824"/>
<path d="M49.9998 41.1961V43.0521C49.9998 43.5621 49.5859 43.976 49.076 43.976H46.189C46.6989 43.976 47.1128 43.5621 47.1128 43.0521V41.1961C47.1128 40.6861 46.6989 40.2723 46.189 40.2723H49.076C49.5859 40.2723 49.9998 40.6861 49.9998 41.1961Z" fill="#FCC16D"/>
<path d="M49.076 40.2718H40.8345C40.3242 40.2718 39.9106 39.8581 39.9106 39.3479V37.4921C39.9106 36.9818 40.3243 36.5683 40.8345 36.5683H49.076C49.5862 36.5683 49.9998 36.9819 49.9998 37.4921V39.3479C49.9998 39.8581 49.5862 40.2718 49.076 40.2718Z" fill="#FCA62F"/>
<path d="M49.9998 37.4922V39.3482C49.9998 39.8582 49.5859 40.2721 49.076 40.2721H46.189C46.6989 40.2721 47.1128 39.8582 47.1128 39.3482V37.4922C47.1128 36.9822 46.6989 36.5684 46.189 36.5684H49.076C49.5859 36.5684 49.9998 36.9822 49.9998 37.4922Z" fill="#F98824"/>
<path d="M23.393 33.7883V35.6443C23.393 36.1543 22.9791 36.5682 22.4691 36.5682H19.582C20.092 36.5682 20.5059 36.1543 20.5059 35.6443V33.7883C20.5059 33.2783 20.092 32.8645 19.582 32.8645H22.469C22.9791 32.8645 23.393 33.2783 23.393 33.7883Z" fill="#FCC16D"/>
<path d="M22.469 32.8638H14.2275C13.7173 32.8638 13.3037 32.4501 13.3037 31.9399V30.084C13.3037 29.5737 13.7174 29.1602 14.2275 29.1602H22.469C22.9793 29.1602 23.3929 29.5738 23.3929 30.084V31.9398C23.3929 32.4501 22.9793 32.8638 22.469 32.8638Z" fill="#FCA62F"/>
<path d="M23.393 30.0842V31.9402C23.393 32.4502 22.9791 32.8641 22.4691 32.8641H19.582C20.092 32.8641 20.5059 32.4502 20.5059 31.9402V30.0842C20.5059 29.5742 20.092 29.1604 19.582 29.1604H22.469C22.9791 29.1604 23.393 29.5742 23.393 30.0842Z" fill="#F98824"/>
<path d="M35.7723 36.5679H27.5308C27.0205 36.5679 26.6069 36.1542 26.6069 35.644V33.7881C26.6069 33.2778 27.0206 32.8643 27.5308 32.8643H35.7723C36.2825 32.8643 36.6961 33.2779 36.6961 33.7881V35.6439C36.6961 36.1542 36.2825 36.5679 35.7723 36.5679Z" fill="#FCA62F"/>
<path d="M36.6961 33.7883V35.6443C36.6961 36.1543 36.2822 36.5682 35.7723 36.5682H32.8853C33.3952 36.5682 33.8091 36.1543 33.8091 35.6443V33.7883C33.8091 33.2783 33.3952 32.8645 32.8853 32.8645H35.7723C36.2822 32.8645 36.6961 33.2783 36.6961 33.7883Z" fill="#F98824"/>
<path d="M36.6961 30.0844V31.9404C36.6961 32.4504 36.2822 32.8643 35.7723 32.8643H32.8853C33.3952 32.8643 33.8091 32.4504 33.8091 31.9404V30.0844C33.8091 29.5744 33.3952 29.1605 32.8853 29.1605H35.7723C36.2822 29.1604 36.6961 29.5744 36.6961 30.0844Z" fill="#FCC16D"/>
<path d="M23.393 26.3802V28.2362C23.393 28.7462 22.9791 29.1601 22.4691 29.1601H19.582C20.092 29.1601 20.5059 28.7462 20.5059 28.2362V26.3802C20.5059 25.8702 20.092 25.4563 19.582 25.4563H22.469C22.9791 25.4563 23.393 25.8702 23.393 26.3802Z" fill="#FCC16D"/>
<path d="M35.7723 29.1599H27.5308C27.0205 29.1599 26.6069 28.7462 26.6069 28.236V26.3802C26.6069 25.8699 27.0206 25.4563 27.5308 25.4563H35.7723C36.2825 25.4563 36.6961 25.87 36.6961 26.3802V28.236C36.6961 28.7463 36.2825 29.1599 35.7723 29.1599Z" fill="#FCA62F"/>
<path d="M36.6961 26.3804V28.2364C36.6961 28.7464 36.2822 29.1603 35.7723 29.1603H32.8853C33.3952 29.1603 33.8091 28.7464 33.8091 28.2364V26.3804C33.8091 25.8704 33.3952 25.4565 32.8853 25.4565H35.7723C36.2822 25.4564 36.6961 25.8704 36.6961 26.3804Z" fill="#F98824"/>
<path d="M49.9998 33.7883V35.6443C49.9998 36.1543 49.5859 36.5682 49.076 36.5682H46.189C46.6989 36.5682 47.1128 36.1543 47.1128 35.6443V33.7883C47.1128 33.2783 46.6989 32.8645 46.189 32.8645H49.076C49.5859 32.8645 49.9998 33.2783 49.9998 33.7883Z" fill="#FCC16D"/>
<path d="M49.076 32.864H40.8345C40.3242 32.864 39.9106 32.4503 39.9106 31.9401V30.0843C39.9106 29.574 40.3243 29.1604 40.8345 29.1604H49.076C49.5862 29.1604 49.9998 29.5741 49.9998 30.0843V31.9401C49.9998 32.4503 49.5862 32.864 49.076 32.864Z" fill="#FCA62F"/>
<path d="M49.9998 30.0844V31.9404C49.9998 32.4504 49.5859 32.8643 49.076 32.8643H46.189C46.6989 32.8643 47.1128 32.4504 47.1128 31.9404V30.0844C47.1128 29.5744 46.6989 29.1605 46.189 29.1605H49.076C49.5859 29.1604 49.9998 29.5744 49.9998 30.0844Z" fill="#F98824"/>
<path d="M49.9998 26.3805V28.2365C49.9998 28.7465 49.5859 29.1604 49.076 29.1604H46.189C46.6989 29.1604 47.1128 28.7465 47.1128 28.2365V26.3805C47.1128 25.8705 46.6989 25.4566 46.189 25.4566H49.076C49.5859 25.4565 49.9998 25.8704 49.9998 26.3805Z" fill="#FCC16D"/>
<path d="M49.076 25.4562H40.8345C40.3242 25.4562 39.9106 25.0426 39.9106 24.5324V22.6766C39.9106 22.1663 40.3243 21.7527 40.8345 21.7527H49.076C49.5862 21.7527 49.9998 22.1664 49.9998 22.6766V24.5324C49.9998 25.0426 49.5862 25.4562 49.076 25.4562Z" fill="#FCA62F"/>
<path d="M49.9998 22.6767V24.5327C49.9998 25.0427 49.5859 25.4565 49.076 25.4565H46.189C46.6989 25.4565 47.1128 25.0427 47.1128 24.5327V22.6767C47.1128 22.1667 46.6989 21.7528 46.189 21.7528H49.076C49.5859 21.7528 49.9998 22.1667 49.9998 22.6767Z" fill="#F98824"/>
<path d="M49.9998 18.9728V20.8288C49.9998 21.3388 49.5859 21.7526 49.076 21.7526H46.189C46.6989 21.7526 47.1128 21.3388 47.1128 20.8288V18.9728C47.1128 18.4628 46.6989 18.0489 46.189 18.0489H49.076C49.5859 18.0489 49.9998 18.4628 49.9998 18.9728Z" fill="#FCC16D"/>
</svg>
