<svg width="22" height="22" viewBox="0 0 22 22" fill="none" xmlns="http://www.w3.org/2000/svg">
<circle cx="11" cy="11" r="11" fill="#4C5EFE"/>
<path d="M9.96875 7.5625H11.3438C11.3438 7.38016 11.2713 7.2053 11.1424 7.07636C11.0135 6.94743 10.8386 6.875 10.6562 6.875C10.4739 6.875 10.299 6.94743 10.1701 7.07636C10.0412 7.2053 9.96875 7.38016 9.96875 7.5625ZM9.28125 7.5625C9.28125 7.19783 9.42612 6.84809 9.68398 6.59023C9.94184 6.33237 10.2916 6.1875 10.6562 6.1875C11.0209 6.1875 11.3707 6.33237 11.6285 6.59023C11.8864 6.84809 12.0312 7.19783 12.0312 7.5625H14.7812C14.8724 7.5625 14.9599 7.59872 15.0243 7.66318C15.0888 7.72765 15.125 7.81508 15.125 7.90625C15.125 7.99742 15.0888 8.08485 15.0243 8.14932C14.9599 8.21378 14.8724 8.25 14.7812 8.25H14.3935L13.5651 14.3261C13.5089 14.7379 13.3054 15.1154 12.9923 15.3886C12.6792 15.6619 12.2777 15.8125 11.8621 15.8125H9.45037C9.03479 15.8125 8.63329 15.6619 8.32019 15.3886C8.0071 15.1154 7.80362 14.7379 7.74744 14.3261L6.919 8.25H6.53125C6.44008 8.25 6.35265 8.21378 6.28818 8.14932C6.22372 8.08485 6.1875 7.99742 6.1875 7.90625C6.1875 7.81508 6.22372 7.72765 6.28818 7.66318C6.35265 7.59872 6.44008 7.5625 6.53125 7.5625H9.28125ZM9.96875 9.96875C9.96875 9.87758 9.93253 9.79015 9.86807 9.72568C9.8036 9.66122 9.71617 9.625 9.625 9.625C9.53383 9.625 9.4464 9.66122 9.38193 9.72568C9.31747 9.79015 9.28125 9.87758 9.28125 9.96875V13.4062C9.28125 13.4974 9.31747 13.5849 9.38193 13.6493C9.4464 13.7138 9.53383 13.75 9.625 13.75C9.71617 13.75 9.8036 13.7138 9.86807 13.6493C9.93253 13.5849 9.96875 13.4974 9.96875 13.4062V9.96875ZM11.6875 9.625C11.5963 9.625 11.5089 9.66122 11.4444 9.72568C11.38 9.79015 11.3438 9.87758 11.3438 9.96875V13.4062C11.3438 13.4974 11.38 13.5849 11.4444 13.6493C11.5089 13.7138 11.5963 13.75 11.6875 13.75C11.7787 13.75 11.8661 13.7138 11.9306 13.6493C11.995 13.5849 12.0312 13.4974 12.0312 13.4062V9.96875C12.0312 9.87758 11.995 9.79015 11.9306 9.72568C11.8661 9.66122 11.7787 9.625 11.6875 9.625Z" fill="#F8FAFB"/>
</svg>
