<svg width="26" height="24" viewBox="0 0 26 24" fill="none" xmlns="http://www.w3.org/2000/svg">
<path d="M12.9969 11.8249V22.6314M12.9969 11.8249L9.99509 14.2263M12.9969 11.8249L15.9987 14.2263M4.63268 8.36322C3.49705 8.64898 2.50486 9.3396 1.84251 10.3053C1.18016 11.271 0.893255 12.4454 1.03569 13.6077C1.17812 14.77 1.7401 15.8404 2.61603 16.6176C3.49196 17.3948 4.62155 17.8254 5.79257 17.8285H6.99329" stroke="#4C5EFE" stroke-width="2" stroke-linecap="round" stroke-linejoin="round"/>
<path d="M17.595 5.987C17.1846 4.36191 16.1716 2.95367 14.7615 2.04775C13.3513 1.14182 11.6494 0.806004 10.0008 1.10836C8.35215 1.41072 6.88019 2.32863 5.88326 3.67602C4.88633 5.02341 4.43903 6.69947 4.63204 8.36443C4.63204 8.36443 4.81575 9.42346 5.19157 10.0238" stroke="#4C5EFE" stroke-width="2" stroke-linecap="round" stroke-linejoin="round"/>
<path d="M19.0014 17.8285C19.8492 17.828 20.6872 17.6479 21.4603 17.3001C22.2335 16.9523 22.9242 16.4447 23.487 15.8107C24.0498 15.1767 24.472 14.4308 24.7257 13.6219C24.9794 12.813 25.059 11.9595 24.9591 11.1177C24.8592 10.2758 24.5822 9.46465 24.1462 8.73759C23.7103 8.01052 23.1253 7.38402 22.4298 6.89934C21.7342 6.41465 20.9439 6.08277 20.1109 5.92552C19.2778 5.76828 18.4209 5.78925 17.5966 5.98705L15.9996 6.42171" stroke="#4C5EFE" stroke-width="2" stroke-linecap="round" stroke-linejoin="round"/>
</svg>
