<svg width="56" height="56" viewBox="0 0 56 56" fill="none" xmlns="http://www.w3.org/2000/svg">
<path d="M0 28C0 12.536 12.536 0 28 0C43.464 0 56 12.536 56 28C56 43.464 43.464 56 28 56C12.536 56 0 43.464 0 28Z" fill="#FCEFDD"/>
<path d="M27.998 23.3337V28.0004M27.998 32.6671H28.0096M26.0029 17.3371L16.1213 33.8337C15.9175 34.1866 15.8097 34.5866 15.8086 34.994C15.8075 35.4014 15.913 35.8021 16.1148 36.156C16.3165 36.51 16.6075 36.8049 16.9586 37.0116C17.3098 37.2182 17.7089 37.3293 18.1163 37.3337H37.8796C38.287 37.3293 38.6861 37.2182 39.0373 37.0116C39.3884 36.8049 39.6794 36.51 39.8811 36.156C40.0829 35.8021 40.1884 35.4014 40.1873 34.994C40.1862 34.5866 40.0784 34.1866 39.8746 33.8337L29.993 17.3371C29.785 16.9942 29.4921 16.7107 29.1427 16.514C28.7932 16.3172 28.399 16.2139 27.998 16.2139C27.5969 16.2139 27.2027 16.3172 26.8532 16.514C26.5038 16.7107 26.2109 16.9942 26.0029 17.3371Z" stroke="#FF9800" stroke-width="2.33333" stroke-linecap="round" stroke-linejoin="round"/>
</svg>
