<svg width="23" height="21" viewBox="0 0 23 21" fill="none" xmlns="http://www.w3.org/2000/svg">
<path d="M21.1417 3.97429C18.0544 2.69119 14.9679 1.40775 11.8803 0.125005C11.8195 0.0994306 11.7585 0.0742165 11.6975 0.0493639C11.6117 0.012939 11.5188 -0.00369814 11.4257 0.000687622C11.3331 -0.00345119 11.2407 0.0131803 11.1554 0.0493639L1.89426 3.89794L1.71076 3.97429C1.20579 4.1837 1.47753 4.87883 1.98251 4.87883H20.8696C21.3749 4.87848 21.6449 4.18335 21.1417 3.97429" fill="#4C5EFE"/>
<path d="M6.65684 3.97429L6.83894 3.89794C9.19186 2.92022 11.5448 1.94249 13.8953 0.964409L11.8754 0.125005C11.8146 0.0994306 11.7536 0.0742165 11.6926 0.0493639C11.6068 0.012939 11.5139 -0.00369814 11.4208 0.000687622C11.3282 -0.00345118 11.2358 0.0131803 11.1505 0.0493639L1.88971 3.89794L1.70621 3.97429C1.20124 4.1837 1.47299 4.87883 1.97796 4.87883H6.92614C6.42256 4.87847 6.15082 4.18335 6.65579 3.97429M20.5261 6.28659C20.5261 6.74638 20.3878 7.11829 20.2162 7.11829H2.80791C2.63737 7.11829 2.49939 6.74638 2.49939 6.28659C2.49939 5.82714 2.63737 5.45384 2.80791 5.45384H20.2162C20.3878 5.45384 20.5261 5.82714 20.5261 6.28659Z" fill="#4C5EFE"/>
<path d="M21.1028 16.0156C21.1028 16.3444 20.9551 16.6102 20.7733 16.6102H2.21992C2.03852 16.6102 1.89039 16.3444 1.89039 16.0156C1.89039 15.686 2.03852 15.4196 2.21992 15.4196H20.7733C20.9554 15.4196 21.1028 15.686 21.1028 16.0156M21.9153 17.5935C21.9153 17.9542 21.7559 18.2466 21.5591 18.2466H1.5388C1.34235 18.2466 1.18301 17.9542 1.18301 17.5935C1.18301 17.2321 1.34235 16.9397 1.5388 16.9397H21.5591C21.7559 16.9397 21.9153 17.2321 21.9153 17.5935ZM22.7389 19.5791C22.7389 20.0991 22.567 20.5222 22.3558 20.5222H0.745272C0.534458 20.5225 0.361115 20.0995 0.361115 19.5791C0.361115 19.0584 0.534458 18.6364 0.745272 18.6364H22.3558C22.567 18.6364 22.7389 19.0584 22.7389 19.5791" fill="#4C5EFE"/>
<path d="M4.08427 6.93347C4.46773 6.93347 4.7787 7.00106 4.7787 7.0837L5.21118 15.5912C5.21118 15.6738 4.46738 15.7425 4.08392 15.7425C3.69977 15.7425 2.95596 15.6742 2.95596 15.5912L3.38845 7.0837C3.38915 7.00106 3.70012 6.93347 4.08427 6.93347Z" fill="#4C5EFE"/>
<path d="M3.84439 15.5912L4.27618 7.08372C4.27618 7.03679 4.37353 6.99547 4.52656 6.96781C4.38019 6.94342 4.23196 6.93194 4.08357 6.93349C3.69942 6.93349 3.3881 7.00107 3.3881 7.08372L2.95596 15.5912C2.95596 15.6739 3.69977 15.7425 4.08392 15.7425C4.20754 15.7425 4.36618 15.7344 4.52691 15.7232C4.18723 15.697 3.84439 15.6476 3.84439 15.5912Z" fill="#4C5EFE"/>
<path d="M8.68054 6.93347C9.0647 6.93347 9.37602 7.00106 9.37602 7.0837L9.8078 15.5912C9.8078 15.6738 9.0647 15.7425 8.68054 15.7425C8.29709 15.7425 7.55328 15.6742 7.55328 15.5912L7.98577 7.0837C7.98612 7.00106 8.29709 6.93347 8.68054 6.93347ZM13.6861 6.93347C14.0703 6.93347 14.3813 7.00106 14.3813 7.0837L14.8131 15.5912C14.8131 15.6738 14.07 15.7425 13.6858 15.7425C13.302 15.7425 12.5585 15.6742 12.5585 15.5912L12.991 7.0837C12.9914 7.00106 13.3023 6.93347 13.6861 6.93347M18.7394 6.93347C19.1239 6.93347 19.4349 7.00106 19.4349 7.0837L19.8663 15.5912C19.8663 15.6738 19.1235 15.7425 18.739 15.7425C18.3549 15.7425 17.6118 15.6742 17.6118 15.5912L18.0436 7.0837C18.0439 7.00106 18.3552 6.93347 18.7394 6.93347" fill="#4C5EFE"/>
<path d="M8.44101 15.5912L8.8735 7.08372C8.8735 7.0368 8.97085 6.99548 9.12528 6.96781C8.9782 6.9435 8.82927 6.93201 8.68019 6.93349C8.29674 6.93349 7.98577 7.00108 7.98577 7.08372L7.55328 15.5912C7.55328 15.6739 8.29709 15.7425 8.68054 15.7425C8.80451 15.7425 8.9635 15.7345 9.12563 15.7232C8.78455 15.697 8.44101 15.6476 8.44101 15.5912ZM13.4487 15.5912L13.8812 7.08372C13.8812 7.0368 13.9782 6.99548 14.1316 6.96781C13.985 6.9434 13.8365 6.93192 13.6879 6.93349C13.3041 6.93349 12.9935 7.00108 12.9935 7.08372L12.561 15.5912C12.561 15.6739 13.3044 15.7425 13.6883 15.7425C13.8112 15.7425 13.9712 15.7345 14.1319 15.7232C13.7923 15.697 13.4487 15.6476 13.4487 15.5912M18.4974 15.5912L18.9292 7.08372C18.9292 7.0368 19.0283 6.99548 19.1817 6.96781C19.035 6.94358 18.8866 6.9321 18.738 6.93349C18.3538 6.93349 18.0429 7.00108 18.0429 7.08372L17.6111 15.5912C17.6111 15.6739 18.3542 15.7425 18.7383 15.7425C18.8605 15.7425 19.0213 15.7345 19.182 15.7232C18.8413 15.697 18.4974 15.6476 18.4974 15.5912Z" fill="#4C5EFE"/>
</svg>
