<svg width="19" height="22" viewBox="0 0 19 22" fill="none" xmlns="http://www.w3.org/2000/svg">
<path d="M12.5715 19.7847L10.5365 17.7497L9.42859 18.8575L12.5715 22.0004L18.8572 15.7147L17.7493 14.6068L12.5715 19.7847Z" fill="#4C5EFE"/>
<path d="M7.07146 20.4289H1.57144V1.5717H7.85718V6.28601C7.85842 6.7024 8.02438 7.10138 8.31881 7.39581C8.61325 7.69024 9.01223 7.8562 9.42861 7.85745H14.1429V12.5718H15.7144V6.28601C15.7171 6.18275 15.6975 6.08011 15.6568 5.98516C15.6161 5.89022 15.5553 5.80521 15.4786 5.73601L9.97862 0.235982C9.90944 0.159253 9.82445 0.0984429 9.72949 0.057748C9.63454 0.017053 9.53188 -0.00255816 9.42861 0.000267176H1.57144C1.15505 0.00151075 0.756069 0.167472 0.461637 0.461904C0.167204 0.756336 0.00124358 1.15531 0 1.5717V20.4289C0.00124358 20.8453 0.167204 21.2443 0.461637 21.5387C0.756069 21.8332 1.15505 21.9991 1.57144 22.0004H7.07146V20.4289ZM9.42861 1.88599L13.8286 6.28601H9.42861V1.88599Z" fill="#4C5EFE"/>
</svg>
