<svg width="20" height="24" viewBox="0 0 20 24" fill="none" xmlns="http://www.w3.org/2000/svg">
<path d="M19.7329 4.53078C19.6438 4.42887 19.5346 4.34647 19.4123 4.28874C19.2899 4.23101 19.1569 4.1992 19.0217 4.19529C16.9211 4.14029 14.263 1.89085 12.5056 1.00812C11.42 0.464556 10.7033 0.106148 10.1651 0.0117343C10.0558 -0.00421288 9.94481 -0.003904 9.83562 0.012651C9.29741 0.107065 8.58072 0.465472 7.49607 1.00904C5.73867 1.89085 3.08059 4.14029 0.97994 4.19529C0.84463 4.1994 0.711604 4.2313 0.589109 4.28901C0.466613 4.34672 0.357259 4.42901 0.267825 4.53078C0.0824488 4.74082 -0.0131959 5.01533 0.00146813 5.29526C0.452719 14.4828 3.74328 20.1687 9.51709 23.4732C9.6672 23.5584 9.83379 23.6024 9.99946 23.6024C10.1651 23.6024 10.3317 23.5584 10.4827 23.4732C16.2566 20.1687 19.5462 14.4828 19.9984 5.29526C20.0139 5.01537 19.9185 4.74065 19.7329 4.53078ZM15.1417 8.14419L10.2695 15.3444C10.0947 15.6029 9.82006 15.7743 9.54821 15.7743C9.27544 15.7743 8.97248 15.6249 8.78117 15.4333L5.34691 11.9932C5.23479 11.8805 5.17183 11.7279 5.17183 11.5688C5.17183 11.4097 5.23479 11.2571 5.34691 11.1444L6.19541 10.2928C6.30818 10.181 6.46048 10.1182 6.6192 10.1182C6.77791 10.1182 6.93021 10.181 7.04299 10.2928L9.27636 12.5294L13.1564 6.79397C13.2462 6.66272 13.3841 6.57238 13.5402 6.54267C13.6963 6.51296 13.8577 6.54629 13.9893 6.63539L14.9824 7.31004C15.1136 7.3998 15.204 7.53792 15.2339 7.69421C15.2637 7.85051 15.2306 8.01228 15.1417 8.14419Z" fill="#0CA819"/>
</svg>
