<svg width="17" height="21" viewBox="0 0 17 21" fill="none" xmlns="http://www.w3.org/2000/svg">
<path d="M2.99902 19.5H13.499C13.999 19.5 14.249 19.75 14.249 20.25C14.249 20.75 13.999 21 13.499 21H2.99902C2.49902 21 2.24902 20.75 2.24902 20.25C2.24902 19.75 2.49902 19.5 2.99902 19.5Z" fill="#4C5EFE"/>
<path d="M15 8.25C15 6.45979 14.2888 4.7429 13.023 3.47703C11.7571 2.21116 10.0402 1.5 8.25 1.5C6.45979 1.5 4.7429 2.21116 3.47703 3.47703C2.21116 4.7429 1.5 6.45979 1.5 8.25C1.5 11.019 3.7155 14.628 8.25 18.951C12.7845 14.628 15 11.019 15 8.25ZM8.25 21C2.7495 16.0005 0 11.7495 0 8.25C0 6.06196 0.869194 3.96354 2.41637 2.41637C3.96354 0.869194 6.06196 0 8.25 0C10.438 0 12.5365 0.869194 14.0836 2.41637C15.6308 3.96354 16.5 6.06196 16.5 8.25C16.5 11.7495 13.7505 16.0005 8.25 21Z" fill="#4C5EFE"/>
<path d="M8.25033 10.5C8.84706 10.5 9.41936 10.2629 9.84132 9.84099C10.2633 9.41903 10.5003 8.84674 10.5003 8.25C10.5003 7.65326 10.2633 7.08097 9.84132 6.65901C9.41936 6.23705 8.84706 6 8.25033 6C7.65359 6 7.08129 6.23705 6.65934 6.65901C6.23738 7.08097 6.00033 7.65326 6.00033 8.25C6.00033 8.84674 6.23738 9.41903 6.65934 9.84099C7.08129 10.2629 7.65359 10.5 8.25033 10.5ZM8.25033 12C7.25577 12 6.30194 11.6049 5.59868 10.9017C4.89542 10.1984 4.50033 9.24456 4.50033 8.25C4.50033 7.25544 4.89542 6.30161 5.59868 5.59835C6.30194 4.89509 7.25577 4.5 8.25033 4.5C9.24489 4.5 10.1987 4.89509 10.902 5.59835C11.6052 6.30161 12.0003 7.25544 12.0003 8.25C12.0003 9.24456 11.6052 10.1984 10.902 10.9017C10.1987 11.6049 9.24489 12 8.25033 12Z" fill="#4C5EFE"/>
</svg>
